<svg height="1000px" width="999px" xmlns="http://www.w3.org/2000/svg">
  <g>
    <path d="M0 958c0 -34 20.333 -69.5 61 -106.5c40.667 -37 81.667 -66.5 123 -88.5c0 0 15 22 15 22c-29.333 21.333 -59.5 48.833 -90.5 82.5c-31 33.667 -50.5 63.5 -58.5 89.5c58 -18 146.333 -144.333 265 -379c43.333 -87.333 77.667 -174.333 103 -261c-22 -71.333 -33 -138.667 -33 -202c0 -76.667 15.667 -115 47 -115c15.333 0 26.667 0.667 34 2c7.333 1.333 14.167 5.667 20.5 13c6.333 7.333 9.5 18.667 9.5 34c0 10 -1 19.333 -3 28c0 0 -27 -1 -27 -1c-1.333 -17.333 -7 -31 -17 -41c-8 13.333 -12 36.333 -12 69c0 25.333 3 56.667 9 94c2 -12 4.833 -29.833 8.5 -53.5c3.667 -23.667 6.833 -41.5 9.5 -53.5c0 0 26 3 26 3c-1.333 101.333 -6 174 -14 218c24 71.333 52.833 129.333 86.5 174c33.667 44.667 81.167 84.333 142.5 119c45.333 -4.667 84 -7 116 -7c118.667 0 178 23.333 178 70c0 7.333 -1.667 15.333 -5 24c0 0 -3 -1 -3 -1c-3.333 28 -25.667 42 -67 42c-69.333 0 -149.333 -24 -240 -72c-146.667 14.667 -276.333 42 -389 82c-98 171.333 -176.333 257 -235 257c-4.667 0 -9.333 -0.667 -14 -2c-4.667 -1.333 -8.833 -2.833 -12.5 -4.5c-3.667 -1.667 -8.167 -4 -13.5 -7c-5.333 -3 -9.333 -5.167 -12 -6.5c-5.333 -5.333 -8 -12.667 -8 -22c0 0 0 0 0 0m318 -255c89.333 -36 188.667 -64.333 298 -85c-68.667 -48.667 -123.333 -118.333 -164 -209c-24 80.667 -68.667 178.667 -134 294c0 0 0 0 0 0m486 -50c60 23.333 107.333 35 142 35c10 0 17.333 -1 22 -3c0 -21.333 -48.333 -32 -145 -32c0 0 -19 0 -19 0c0 0 0 0 0 0" />
  </g>
</svg>