<svg height="1000px" width="1294px" xmlns="http://www.w3.org/2000/svg">
  <g>
    <path d="M0 418c0 -70 17.5 -132.667 52.5 -188c35 -55.333 80.5 -99.167 136.5 -131.5c56 -32.333 116.167 -56.833 180.5 -73.5c64.333 -16.667 129.167 -25 194.5 -25c19.333 0 33.667 0.333 43 1c76.667 4 152 17.667 226 41c58 18.667 113.333 43.5 166 74.5c52.667 31 101.5 67.333 146.5 109c45 41.667 81 90.5 108 146.5c27 56 40.5 114.667 40.5 176c0 8.667 -0.333 15 -1 19c-7.333 101.333 -47.5 186.667 -120.5 256c-73 69.333 -162.5 118.333 -268.5 147c-71.333 20 -147.667 30 -229 30c0 0 -8 0 -8 0c-134 0 -239 -17.667 -315 -53c-4 -1.333 -6.333 -3.333 -7 -6c0 -1.333 1 -2 3 -2c0.667 0 1.833 0.167 3.5 0.5c1.667 0.333 2.833 0.5 3.5 0.5c33.333 8 63 12 89 12c16 0 31.667 -1.5 47 -4.5c15.333 -3 29.833 -9.667 43.5 -20c13.667 -10.333 20.5 -23.5 20.5 -39.5c0 -8 -2 -16 -6 -24c-6 -10.667 -25.5 -21.833 -58.5 -33.5c-33 -11.667 -71 -22.833 -114 -33.5c-43 -10.667 -68.167 -17.333 -75.5 -20c-53.333 -17.333 -99.667 -39.333 -139 -66c0 -0.667 1.167 -3.833 3.5 -9.5c2.333 -5.667 4.333 -10.5 6 -14.5c1.667 -4 4 -8 7 -12c3 -4 5.833 -6 8.5 -6c0 0 179 0 179 0c6 0 11.5 7.167 16.5 21.5c5 14.333 12 28.833 21 43.5c9 14.667 20.833 22 35.5 22c12 0 22.333 -3.833 31 -11.5c8.667 -7.667 13 -17.5 13 -29.5c0 -7.333 -28 -73.667 -84 -199c-56 -125.333 -91.333 -202.333 -106 -231c-4 -10 -9.333 -15 -16 -15c-5.333 0 -9.667 3 -13 9c0 0 -3 6 -3 6c-5.333 10 -22.667 48 -52 114c0 0 -107 238 -107 238c0 0 -7 15 -7 15c-63.333 -72.667 -95 -150.667 -95 -234c0 0 0 0 0 0m218 166c0 -6.667 18 -49.667 54 -129c0 0 5 -3 5 -3c4 0 14.833 21.167 32.5 63.5c17.667 42.333 26.5 65.5 26.5 69.5c0 2.667 -1.667 4 -5 4c0 0 -108 0 -108 0c-3.333 0 -5 -1.667 -5 -5c0 0 0 0 0 0m307 123c0 30 15.667 45 47 45c31.333 0 47 -15 47 -45c0 0 0 -388 0 -388c0 -30 -15.667 -45 -47 -45c-31.333 0 -47 15 -47 45c0 0 0 388 0 388c0 0 0 0 0 0m185 0c0 30 15.667 45 47 45c31.333 0 47 -15 47 -45c0 0 0 -181 0 -181c0 0 92 185 92 185c8.667 19.333 22.333 29 41 29c21.333 0 36.667 -9.667 46 -29c0 0 91 -185 91 -185c0 0 0 181 0 181c0 30 15.667 45 47 45c32 0 48 -15 48 -45c0 0 0 -388 0 -388c0 -30 -15.667 -45 -47 -45c-23.333 0 -39 9.667 -47 29c0 0 -138 302 -138 302c0 0 -133 -302 -133 -302c-9.333 -19.333 -25.333 -29 -48 -29c-30.667 0 -46 15 -46 45c0 0 0 388 0 388c0 0 0 0 0 0" />
  </g>
</svg>