<svg height="1000" width="1294" xmlns="http://www.w3.org/2000/svg"><path d="M0 418q0-105 52.5-188t136.5-131.5 180.5-73.5 194.5-25q29 0 43 1 115 6 226 41 87 28 166 74.5t146.5 109 108 146.5 40.5 176q0 13-1 19-11 152-120.5 256t-268.5 147q-107 30-229 30l-8 0q-201 0-315-53-6-2-7-6 0-2 3-2 1 0 3.5.5t3.5.5q50 12 89 12 24 0 47-4.5t43.5-20 20.5-39.5q0-12-6-24-9-16-58.5-33.5t-114-33.5-75.5-20q-80-26-139-66 0-1 3.5-9.5t6-14.5 7-12 8.5-6l179 0q9 0 16.5 21.5t21 43.5 35.5 22q18 0 31-11.5t13-29.5q0-11-84-199t-106-231q-6-15-16-15-8 0-13 9l-3 6q-8 15-52 114l-107 238-7 15q-95-109-95-234zm218 166q0-10 54-129l5-3q6 0 32.5 63.5t26.5 69.5q0 4-5 4l-108 0q-5 0-5-5zm307 123q0 45 47 45t47-45l0-388q0-45-47-45t-47 45l0 388zm185 0q0 45 47 45t47-45l0-181l92 185q13 29 41 29 32 0 46-29l91-185l0 181q0 45 47 45 48 0 48-45l0-388q0-45-47-45-35 0-47 29l-138 302-133-302q-14-29-48-29-46 0-46 45l0 388z"/></svg>