<svg height="1000" width="1100" xmlns="http://www.w3.org/2000/svg"><path d="M2 776q5-8 16-1 250 145 544 145 196 0 387-73 5-2 14.5-6t13.5-6q15-6 23.5 6t-5.5 22q-18 13-46 30-86 51-192 79t-207 28q-156 0-295-54.5t-249-153.5q-6-5-6-10 0-3 2-6zm301-285q0-69 34-118t93-74q54-23 133-33 27-3 88-8l0-17q0-64-14-86-21-30-66-30l-8 0q-33 3-57 21t-31 50q-4 20-20 23l-115-14q-17-4-17-18 0-3 1-7 17-89 83.5-132t155.5-48l25 0q114 0 178 59 10 10 18.5 21.5t13.5 20.5 9 26 6 23.5 3 28 1 25.5l0 242q0 26 7.5 47.5t14.5 31 23 30.5q6 9 6 16 0 8-8 14-83 72-90 78-12 9-29 2-14-12-24.5-23t-15-16-14.5-19.5-14-19.5q-56 61-110 76-34 10-84 10-77 0-126.5-47.5t-49.5-134.5zm172-20q0 39 19.5 62.5t52.5 23.5q3 0 8.5-1t7.5-1q42-11 65-54 11-19 16.5-41.5t6-36.5.5-46l0-25q-58 0-88 8-88 25-88 111zm420 322q2-4 6-8 25-17 48-23 38-10 74-11 10-1 19 1 45 4 54 15 4 6 4 18l0 7q0 35-19 82.5t-53 76.5q-5 4-9 4-2 0-4-1-6-3-3-11 37-87 37-121 0-11-4-16-10-12-56-12-17 0-40 2-25 3-46 6-6 0-8-2t-1-4q0-1 1-3z"/></svg>