<svg height="1000px" width="1099px" xmlns="http://www.w3.org/2000/svg">
  <g>
    <path d="M1 776c3.333 -5.333 8.667 -5.667 16 -1c166.667 96.667 348 145 544 145c130.667 0 259.667 -24.333 387 -73c3.333 -1.333 8.167 -3.333 14.5 -6c6.333 -2.667 10.833 -4.667 13.5 -6c10 -4 17.833 -2 23.5 6c5.667 8 3.833 15.333 -5.5 22c-12 8.667 -27.333 18.667 -46 30c-57.333 34 -121.333 60.333 -192 79c-70.667 18.667 -139.667 28 -207 28c-104 0 -202.333 -18.167 -295 -54.5c-92.667 -36.333 -175.667 -87.5 -249 -153.5c-4 -3.333 -6 -6.667 -6 -10c0 -2 0.667 -4 2 -6c0 0 0 0 0 0m301 -285c0 -46 11.333 -85.333 34 -118c22.667 -32.667 53.667 -57.333 93 -74c36 -15.333 80.333 -26.333 133 -33c18 -2 47.333 -4.667 88 -8c0 0 0 -17 0 -17c0 -42.667 -4.667 -71.333 -14 -86c-14 -20 -36 -30 -66 -30c0 0 -8 0 -8 0c-22 2 -41 9 -57 21c-16 12 -26.333 28.667 -31 50c-2.667 13.333 -9.333 21 -20 23c0 0 -115 -14 -115 -14c-11.333 -2.667 -17 -8.667 -17 -18c0 -2 0.333 -4.333 1 -7c11.333 -59.333 39.167 -103.333 83.5 -132c44.333 -28.667 96.167 -44.667 155.5 -48c0 0 25 0 25 0c76 0 135.333 19.667 178 59c6.667 6.667 12.833 13.833 18.5 21.5c5.667 7.667 10.167 14.5 13.5 20.5c3.333 6 6.333 14.667 9 26c2.667 11.333 4.667 19.167 6 23.5c1.333 4.333 2.333 13.667 3 28c0.667 14.333 1 22.833 1 25.5c0 0 0 30 0 30c0 0 0 28 0 28c0 0 0 184 0 184c0 17.333 2.5 33.167 7.5 47.5c5 14.333 9.833 24.667 14.5 31c4.667 6.333 12.333 16.5 23 30.5c4 6 6 11.333 6 16c0 5.333 -2.667 10 -8 14c-55.333 48 -85.333 74 -90 78c-8 6 -17.667 6.667 -29 2c-9.333 -8 -17.5 -15.667 -24.5 -23c-7 -7.333 -12 -12.667 -15 -16c-3 -3.333 -7.833 -9.833 -14.5 -19.5c-6.667 -9.667 -11.333 -16.167 -14 -19.5c-37.333 40.667 -74 66 -110 76c-22.667 6.667 -50.667 10 -84 10c-51.333 0 -93.5 -15.833 -126.5 -47.5c-33 -31.667 -49.5 -76.5 -49.5 -134.5c0 0 0 0 0 0m172 -20c0 26 6.5 46.833 19.5 62.5c13 15.667 30.5 23.5 52.5 23.5c2 0 4.833 -0.333 8.5 -1c3.667 -0.667 6.167 -1 7.5 -1c28 -7.333 49.667 -25.333 65 -54c7.333 -12.667 12.833 -26.5 16.5 -41.5c3.667 -15 5.667 -27.167 6 -36.5c0.333 -9.333 0.5 -24.667 0.5 -46c0 0 0 -25 0 -25c-38.667 0 -68 2.667 -88 8c-58.667 16.667 -88 53.667 -88 111c0 0 0 0 0 0m420 322c1.333 -2.667 3.333 -5.333 6 -8c16.667 -11.333 32.667 -19 48 -23c25.333 -6.667 50 -10.333 74 -11c6.667 -0.667 13 -0.333 19 1c30 2.667 48 7.667 54 15c2.667 4 4 10 4 18c0 0 0 7 0 7c0 23.333 -6.333 50.833 -19 82.5c-12.667 31.667 -30.333 57.167 -53 76.5c-3.333 2.667 -6.333 4 -9 4c-1.333 0 -2.667 -0.333 -4 -1c-4 -2 -5 -5.667 -3 -11c24.667 -58 37 -98.333 37 -121c0 -7.333 -1.333 -12.667 -4 -16c-6.667 -8 -25.333 -12 -56 -12c-11.333 0 -24.667 0.667 -40 2c-16.667 2 -32 4 -46 6c-4 0 -6.667 -0.667 -8 -2c-1.333 -1.333 -1.667 -2.667 -1 -4c0 -0.667 0.333 -1.667 1 -3c0 0 0 0 0 0" />
  </g>
</svg>