<svg height="1000px" width="920px" xmlns="http://www.w3.org/2000/svg">
  <g>
    <path d="M0 649c0 0 0 -269 0 -269c0 -17.333 6.333 -32.167 19 -44.5c12.667 -12.333 27.333 -18.5 44 -18.5c17.333 0 32.167 6.167 44.5 18.5c12.333 12.333 18.5 27.167 18.5 44.5c0 0 0 269 0 269c0 17.333 -6.167 32.167 -18.5 44.5c-12.333 12.333 -27.167 18.5 -44.5 18.5c-17.333 0 -32.167 -6.167 -44.5 -18.5c-12.333 -12.333 -18.5 -27.167 -18.5 -44.5c0 0 0 0 0 0m173 100c0 0 0 -418 0 -418c0 0 574 0 574 0c0 0 0 418 0 418c0 17.333 -6.167 32.167 -18.5 44.5c-12.333 12.333 -27.167 18.5 -44.5 18.5c0 0 -448 0 -448 0c-17.333 0 -32.167 -6.167 -44.5 -18.5c-12.333 -12.333 -18.5 -27.167 -18.5 -44.5c0 0 0 0 0 0m0 -465c0 0 574 0 574 0c0 -76.667 -28.333 -139.667 -85 -189c-56.667 -49.333 -124 -74 -202 -74c-78 0 -145.333 24.667 -202 74c-56.667 49.333 -85 112.333 -85 189c0 0 0 0 0 0m101 -316c0 -5.333 2.333 -8 7 -8c2 0 4.333 0.667 7 2c0 0 49 89 49 89c0 0 -15 8 -15 8c-32 -58.667 -48 -89 -48 -91c0 0 0 0 0 0m15 807c0 -18 6.333 -33 19 -45c12.667 -12 28.333 -18 47 -18c16.667 0 31.333 6.333 44 19c12.667 12.667 19 27.333 19 44c0 0 0 202 0 202c0 18.667 -6.333 33.833 -19 45.5c-12.667 11.667 -28.333 17.5 -47 17.5c-17.333 0 -32.167 -6.167 -44.5 -18.5c-12.333 -12.333 -18.5 -27.167 -18.5 -44.5c0 0 0 -202 0 -202c0 0 0 0 0 0m5 -620c0 -10.667 4 -19.833 12 -27.5c8 -7.667 17.333 -11.5 28 -11.5c10.667 0 19.833 3.833 27.5 11.5c7.667 7.667 11.5 16.833 11.5 27.5c0 11.333 -3.833 20.833 -11.5 28.5c-7.667 7.667 -17.167 11.5 -28.5 11.5c-10.667 0 -19.833 -4 -27.5 -12c-7.667 -8 -11.5 -17.333 -11.5 -28c0 0 0 0 0 0m208 620c0 -18 6.5 -33 19.5 -45c13 -12 28.5 -18 46.5 -18c17.333 0 32.167 6.167 44.5 18.5c12.333 12.333 18.5 27.167 18.5 44.5c0 0 0 202 0 202c0 18.667 -6.333 33.833 -19 45.5c-12.667 11.667 -28.333 17.5 -47 17.5c-17.333 0 -32.167 -6.167 -44.5 -18.5c-12.333 -12.333 -18.5 -27.167 -18.5 -44.5c0 0 0 -202 0 -202c0 0 0 0 0 0m45 -620c0 -10.667 4 -19.833 12 -27.5c8 -7.667 17.333 -11.5 28 -11.5c10.667 0 19.833 3.833 27.5 11.5c7.667 7.667 11.5 16.833 11.5 27.5c0 11.333 -4 20.833 -12 28.5c-8 7.667 -17.333 11.5 -28 11.5c-10.667 0 -19.833 -4 -27.5 -12c-7.667 -8 -11.5 -17.333 -11.5 -28c0 0 0 0 0 0m36 -104c1.333 -2 6 -11.5 14 -28.5c8 -17 15.833 -31.667 23.5 -44c7.667 -12.333 13.833 -18.5 18.5 -18.5c4.667 0 7 3 7 9c0 0 0 2 0 2c0 0 -48 89 -48 89c0 0 -15 -9 -15 -9m211 598c0 0 0 -268 0 -268c0 -17.333 6.167 -32.333 18.5 -45c12.333 -12.667 27.167 -19 44.5 -19c17.333 0 32.167 6.333 44.5 19c12.333 12.667 18.5 27.667 18.5 45c0 0 0 268 0 268c0 17.333 -6.167 32.167 -18.5 44.5c-12.333 12.333 -27.167 18.5 -44.5 18.5c-17.333 0 -32.333 -6.167 -45 -18.5c-12.667 -12.333 -18.667 -27.167 -18 -44.5c0 0 0 0 0 0" />
  </g>
</svg>