<svg height="1000" width="920" xmlns="http://www.w3.org/2000/svg"><path d="M0 649l0-269q0-26 19-44.5t44-18.5q26 0 44.5 18.5t18.5 44.5l0 269q0 26-18.5 44.5t-44.5 18.5-44.5-18.5-18.5-44.5zm173 100l0-418l574 0l0 418q0 26-18.5 44.5t-44.5 18.5l-448 0q-26 0-44.5-18.5t-18.5-44.5zm0-465l574 0q0-115-85-189t-202-74-202 74-85 189zm101-316q0-8 7-8 3 0 7 2l49 89-15 8q-48-88-48-91zm15 807q0-27 19-45t47-18q25 0 44 19t19 44l0 202q0 28-19 45.5t-47 17.5q-26 0-44.5-18.5t-18.5-44.5l0-202zm5-620q0-16 12-27.5t28-11.5 27.5 11.5 11.5 27.5q0 17-11.5 28.5t-28.5 11.5q-16 0-27.5-12t-11.5-28zm208 620q0-27 19.5-45t46.5-18q26 0 44.5 18.5t18.5 44.5l0 202q0 28-19 45.5t-47 17.5q-26 0-44.5-18.5t-18.5-44.5l0-202zm45-620q0-16 12-27.5t28-11.5 27.5 11.5 11.5 27.5q0 17-12 28.5t-28 11.5-27.5-12-11.5-28zm36-104q2-3 14-28.5t23.5-44 18.5-18.5 7 9l0 2l-48 89zm211 598l0-268q0-26 18.5-45t44.5-19 44.5 19 18.5 45l0 268q0 26-18.5 44.5t-44.5 18.5-45-18.5-18-44.5z"/></svg>