<svg height="1000" width="716" xmlns="http://www.w3.org/2000/svg"><path d="M0 714q0-63 28-98 23-31 74-45-16-40-16-59 0-33 35-70 37-35 69-35 17 0 40 9-48-137-69-208-24-81-24-115 0-48 24-75 25-28 67-28 72 0 173 295l17 49q6-15 12-33 100-292 180-292 40 0 63 27 24 27 24 70 0 28-24 113-21 73-66 200 57 14 82 54 27 43 27 133 0 178-106 291-108 113-274 113-66 0-127-24-59-21-107-66-51-48-76-99-26-54-26-107zm65-5q0 25 14 59 13 32 39 67 41 53 97 81 57 28 129 28 129 0 217-97 87-96 87-243 0-46-6-71-5-22-19-34-27-23-106-40-79-18-168-18-22 0-28 6-7 3-7 20 0 41 46 58 50 21 165 21l28 0q16 0 23 11 8 8 11 31-17 17-55 31-36 13-53 26-40 29-64 69-23 39-23 74 0 21 10 51 11 33 11 43l0 6l-4 15q-44-3-64-41-17-32-19-82-3 1-12 1l-11 0q1 5 1 12 0 30-23 51t-54 21q-47 0-95-45-48-46-48-90 0-8 3-16 1-7 16-22 25 31 34 43 42 59 76 59 9 0 17-6 6-6 6-10 0-8-12-29-8-15-37-53-28-36-45-50-15-14-22-14-19 0-37 22t-18 55zm90-191q0 13 16 45 14 27 45 68 31 40 56 62 24 20 36 20 7 0 14-7 7-8 7-16 0-12-18-58-21-51-46-92-22-35-39-49-16-15-31-15-11 0-25 15-15 15-15 27zm45-432q0 34 24 107 22 71 66 190 10-6 28-6 1 0 6.5.5t10.5.5q4 0 26 2l-69-200q-28-80-44-104-13-21-26-21-9 0-15 8-7 9-7 23zm166 510q9 23 19 50 20-23 40-38-5-1-15-2.5t-15-2.5q-20-4-29-7zm105-204l67 12q45-124 69-199 25-81 25-96 0-16-7-25-4-7-15-7-14 0-31 27-19 29-43 101z"/></svg>