<svg height="1000px" width="696px" xmlns="http://www.w3.org/2000/svg">
  <g>
    <path d="M-10 714c0 -42 9.333 -74.667 28 -98c15.333 -20.667 40 -35.667 74 -45c-10.667 -26.667 -16 -46.333 -16 -59c0 -22 11.667 -45.333 35 -70c24.667 -23.333 47.667 -35 69 -35c11.333 0 24.667 3 40 9c-32 -91.333 -55 -160.667 -69 -208c-16 -54 -24 -92.333 -24 -115c0 -32 8 -57 24 -75c16.667 -18.667 39 -28 67 -28c48 0 105.667 98.333 173 295c0 0 17 49 17 49c4 -10 8 -21 12 -33c66.667 -194.667 126.667 -292 180 -292c26.667 0 47.667 9 63 27c16 18 24 41.333 24 70c0 18.667 -8 56.333 -24 113c-14 48.667 -36 115.333 -66 200c38 9.333 65.333 27.333 82 54c18 28.667 27 73 27 133c0 118.667 -35.333 215.667 -106 291c-72 75.333 -163.333 113 -274 113c-44 0 -86.333 -8 -127 -24c-39.333 -14 -75 -36 -107 -66c-34 -32 -59.333 -65 -76 -99c-17.333 -36 -26 -71.667 -26 -107c0 0 0 0 0 0m65 -5c0 16.667 4.667 36.333 14 59c8.667 21.333 21.667 43.667 39 67c27.333 35.333 59.667 62.333 97 81c38 18.667 81 28 129 28c86 0 158.333 -32.333 217 -97c58 -64 87 -145 87 -243c0 -30.667 -2 -54.333 -6 -71c-3.333 -14.667 -9.667 -26 -19 -34c-18 -15.333 -53.333 -28.667 -106 -40c-52.667 -12 -108.667 -18 -168 -18c-14.667 0 -24 2 -28 6c-4.667 2 -7 8.667 -7 20c0 27.333 15.333 46.667 46 58c33.333 14 88.333 21 165 21c0 0 28 0 28 0c10.667 0 18.333 3.667 23 11c5.333 5.333 9 15.667 11 31c-11.333 11.333 -29.667 21.667 -55 31c-24 8.667 -41.667 17.333 -53 26c-26.667 19.333 -48 42.333 -64 69c-15.333 26 -23 50.667 -23 74c0 14 3.333 31 10 51c7.333 22 11 36.333 11 43c0 0 0 6 0 6c0 0 -4 15 -4 15c-29.333 -2 -50.667 -15.667 -64 -41c-11.333 -21.333 -17.667 -48.667 -19 -82c-2 0.667 -6 1 -12 1c0 0 -11 0 -11 0c0.667 3.333 1 7.333 1 12c0 20 -7.667 37 -23 51c-15.333 14 -33.333 21 -54 21c-31.333 0 -63 -15 -95 -45c-32 -30.667 -48 -60.667 -48 -90c0 -5.333 1 -10.667 3 -16c0.667 -4.667 6 -12 16 -22c16.667 20.667 28 35 34 43c28 39.333 53.333 59 76 59c6 0 11.667 -2 17 -6c4 -4 6 -7.333 6 -10c0 -5.333 -4 -15 -12 -29c-5.333 -10 -17.667 -27.667 -37 -53c-18.667 -24 -33.667 -40.667 -45 -50c-10 -9.333 -17.333 -14 -22 -14c-12.667 0 -25 7.333 -37 22c-12 14.667 -18 33 -18 55c0 0 0 0 0 0m90 -191c0 8.667 5.333 23.667 16 45c9.333 18 24.333 40.667 45 68c20.667 26.667 39.333 47.333 56 62c16 13.333 28 20 36 20c4.667 0 9.333 -2.333 14 -7c4.667 -5.333 7 -10.667 7 -16c0 -8 -6 -27.333 -18 -58c-14 -34 -29.333 -64.667 -46 -92c-14.667 -23.333 -27.667 -39.667 -39 -49c-10.667 -10 -21 -15 -31 -15c-7.333 0 -15.667 5 -25 15c-10 10 -15 19 -15 27c0 0 0 0 0 0m45 -432c0 22.667 8 58.333 24 107c14.667 47.333 36.667 110.667 66 190c6.667 -4 16 -6 28 -6c0.667 0 2.833 0.167 6.5 0.5c3.667 0.333 7.167 0.5 10.5 0.5c2.667 0 11.333 0.667 26 2c0 0 -69 -200 -69 -200c-18.667 -53.333 -33.333 -88 -44 -104c-8.667 -14 -17.333 -21 -26 -21c-6 0 -11 2.667 -15 8c-4.667 6 -7 13.667 -7 23c0 0 0 0 0 0m166 510c6 15.333 12.333 32 19 50c13.333 -15.333 26.667 -28 40 -38c-3.333 -0.667 -8.333 -1.5 -15 -2.5c-6.667 -1 -11.667 -1.833 -15 -2.5c-13.333 -2.667 -23 -5 -29 -7c0 0 0 0 0 0m105 -204c0 0 67 12 67 12c30 -82.667 53 -149 69 -199c16.667 -54 25 -86 25 -96c0 -10.667 -2.333 -19 -7 -25c-2.667 -4.667 -7.667 -7 -15 -7c-9.333 0 -19.667 9 -31 27c-12.667 19.333 -27 53 -43 101c0 0 -65 187 -65 187" />
  </g>
</svg>