<svg height="1000" width="1126" xmlns="http://www.w3.org/2000/svg"><path d="M1.626 436.5q9.5-158.5 74.5-265.5 49-80 95.5-113.5t138.5-49.5q30-5 57-5.5t50.5 4 44 11.5 39 20 33.5 25.5 30 31.5 26.5 34.5 24 38.5 21 39.5 20.5 40.5q7 14 14 30t15 35.5 13 30.5q8-48 56.5-188t67.5-145q91-21 145 0 4 2 9 8t7 8q-1 18-6 38.5t-8.5 32.5-13 36.5-11.5 30.5l-160 439q-7 34 18.5 90t67.5 93 74 22q10-5 18-21t14-21q18-15 71-15.5t67 18.5q16 29 11 62.5t-31 66-59.5 57-74 36.5-73.5 5q-29-6-54-18.5t-41-25.5-34-36.5-27.5-38.5-27-45-25.5-44q-4 2-6 4-24 58-81 106.5t-127 75-150 19.5-145-54q-85-62-131-203.5t-36.5-300zm152.5-12.5q-13 108 9 211t73 141q28 21 56 30.5t51.5 11.5 49-9.5 43-21 41-35 35.5-39.5 33-46 27.5-43 24.5-42q5-9 8-14-38-161-64-223-73-173-202-155-56 8-81 22t-50 49q-41 55-54 163z"/></svg>