<svg height="1000px" width="1124.6904754638672px" xmlns="http://www.w3.org/2000/svg">
  <g>
    <path d="M0 436.4605407714844c6.333 -105.667 31.167 -194.167 74.5 -265.5c32.667 -53.333 64.5 -91.167 95.5 -113.5c31 -22.333 77.167 -38.833 138.5 -49.5c20 -3.333 39 -5.167 57 -5.5c18 -0.333 34.833 1 50.5 4c15.667 3 30.333 6.833 44 11.5c13.667 4.667 26.667 11.333 39 20c12.333 8.667 23.5 17.167 33.5 25.5c10 8.333 20 18.833 30 31.5c10 12.667 18.833 24.167 26.5 34.5c7.667 10.333 15.667 23.167 24 38.5c8.333 15.333 15.333 28.5 21 39.5c5.667 11 12.5 24.5 20.5 40.5c4.667 9.333 9.333 19.333 14 30c4.667 10.667 9.667 22.5 15 35.5c5.333 13 9.667 23.167 13 30.5c5.333 -32 24.167 -94.667 56.5 -188c32.333 -93.333 54.833 -141.667 67.5 -145c60.667 -14 109 -14 145 0c2.667 1.333 5.667 4 9 8c3.333 4 5.667 6.667 7 8c-0.667 12 -2.667 24.833 -6 38.5c-3.333 13.667 -6.167 24.5 -8.5 32.5c-2.333 8 -6.667 20.167 -13 36.5c-6.333 16.333 -10.167 26.5 -11.5 30.5c0 0 -160 439 -160 439c-4.667 22.667 1.5 52.667 18.5 90c17 37.333 39.5 68.333 67.5 93c28 24.667 52.667 32 74 22c6.667 -3.333 12.667 -10.333 18 -21c5.333 -10.667 10 -17.667 14 -21c12 -10 35.667 -15.167 71 -15.5c35.333 -0.333 57.667 5.833 67 18.5c10.667 19.333 14.333 40.167 11 62.5c-3.333 22.333 -13.667 44.333 -31 66c-17.333 21.667 -37.167 40.667 -59.5 57c-22.333 16.333 -47 28.5 -74 36.5c-27 8 -51.5 9.667 -73.5 5c-19.333 -4 -37.333 -10.167 -54 -18.5c-16.667 -8.333 -30.333 -16.833 -41 -25.5c-10.667 -8.667 -22 -20.833 -34 -36.5c-12 -15.667 -21.167 -28.5 -27.5 -38.5c-6.333 -10 -15.333 -25 -27 -45c-11.667 -20 -20.167 -34.667 -25.5 -44c-2.667 1.333 -4.667 2.667 -6 4c-16 38.667 -43 74.167 -81 106.5c-38 32.333 -80.333 57.333 -127 75c-46.667 17.667 -96.667 24.167 -150 19.5c-53.333 -4.667 -101.667 -22.667 -145 -54c-56.667 -41.333 -100.333 -109.167 -131 -203.5c-30.667 -94.333 -42.833 -194.333 -36.5 -300c0 0 0 0 0 0m152.5 -12.5c-8.667 72 -5.667 142.333 9 211c14.667 68.667 39 115.667 73 141c18.667 14 37.333 24.167 56 30.5c18.667 6.333 35.833 10.167 51.5 11.5c15.667 1.333 32 -1.833 49 -9.5c17 -7.667 31.333 -14.667 43 -21c11.667 -6.333 25.333 -18 41 -35c15.667 -17 27.5 -30.167 35.5 -39.5c8 -9.333 19 -24.667 33 -46c14 -21.333 23.167 -35.667 27.5 -43c4.333 -7.333 12.5 -21.333 24.5 -42c3.333 -6 6 -10.667 8 -14c-25.333 -107.333 -46.667 -181.667 -64 -223c-48.667 -115.333 -116 -167 -202 -155c-37.333 5.333 -64.333 12.667 -81 22c-16.667 9.333 -33.333 25.667 -50 49c-27.333 36.667 -45.333 91 -54 163c0 0 0 0 0 0" />
  </g>
</svg>