<svg height="1000" width="860" xmlns="http://www.w3.org/2000/svg"><path d="M1 499q-1 18-1 36 0 68 20 144 26 97 83 184 89 136 172 137 30 0 78-21t95-21l4 0q46 0 91 20 47 22 76 22 49-1 91-41t85-104q31-48 65-121-50-19-85-57t-48-85q-10-35-9-70l0-24q4-48 33.5-91.5t78.5-70.5q-38-48-89-75t-103-27q-48 0-105.5 21.5t-85.5 21.5q-30 0-90.5-21.5t-101.5-21.5q-58 0-114.5 33.5t-95.5 92.5q-37 56-44 139zm415-258q-3-15-3-30 0-65 53-129 27-33 69.5-56t82.5-26q2 15 2 30 0 69-50 132-28 36-70 58-41 22-80 21l-4 0z"/></svg>