<svg height="1000px" width="860px" xmlns="http://www.w3.org/2000/svg">
  <g>
    <path d="M1 499c-0.667 12 -1 24 -1 36c0 45.333 6.667 93.333 20 144c17.333 64.667 45 126 83 184c59.333 90.667 116.667 136.333 172 137c20 0 46 -7 78 -21c32 -14 63.667 -21 95 -21c0 0 4 0 4 0c30.667 0 61 6.667 91 20c31.333 14.667 56.667 22 76 22c32.667 -0.667 63 -14.333 91 -41c28 -26.667 56.333 -61.333 85 -104c20.667 -32 42.333 -72.333 65 -121c-33.333 -12.667 -61.667 -31.667 -85 -57c-23.333 -25.333 -39.333 -53.667 -48 -85c-6.667 -23.333 -9.667 -46.667 -9 -70c0 0 0 -24 0 -24c2.667 -32 13.833 -62.5 33.5 -91.5c19.667 -29 45.833 -52.5 78.5 -70.5c-25.333 -32 -55 -57 -89 -75c-34 -18 -68.333 -27 -103 -27c-32 0 -67.167 7.167 -105.5 21.5c-38.333 14.333 -66.833 21.5 -85.5 21.5c-20 0 -50.167 -7.167 -90.5 -21.5c-40.333 -14.333 -74.167 -21.5 -101.5 -21.5c-38.667 0 -76.833 11.167 -114.5 33.5c-37.667 22.333 -69.5 53.167 -95.5 92.5c-24.667 37.333 -39.333 83.667 -44 139c0 0 0 0 0 0m415 -258c-2 -10 -3 -20 -3 -30c0 -43.333 17.667 -86.333 53 -129c18 -22 41.167 -40.667 69.5 -56c28.333 -15.333 55.833 -24 82.5 -26c1.333 10 2 20 2 30c0 46 -16.667 90 -50 132c-18.667 24 -42 43.333 -70 58c-27.333 14.667 -54 21.667 -80 21c0 0 -4 0 -4 0c0 0 0 0 0 0" />
  </g>
</svg>