<svg height="1000" width="866" xmlns="http://www.w3.org/2000/svg"><path d="M0 144q0-60 127-102t306-42q180 0 306.5 42t126.5 102q0 12-72 440-9 46-111 89t-250 43-250-43-110-89q-73-414-73-440zm107 581l0-4q0-17 15-17 6 0 12 5 47 37 122 58t126 23l51 3q8 0 21.5-.5t52.5-5 74.5-12.5 78.5-25 73-41l11-5q16 0 16 17 0 2-1 4-22 121-30 161-11 49-96 81.5t-200 32.5-200-32.5-95-81.5q-19-95-31-161zm49-596q0 24 81.5 41.5t195.5 17.5q115 0 196.5-17t81.5-41q0-25-81.5-42.5t-196.5-17.5-196 17-81 42zm139 353q0 57 40.5 97.5t97.5 40.5 97.5-40.5 40.5-97.5-40.5-97.5-97.5-40.5-97.5 40.5-40.5 97.5zm69 0q0 28 20 48.5t49 20.5 49-20.5 20-48.5-20-48.5-49-20.5-49 20.5-20 48.5z"/></svg>