<svg height="1000px" width="866px" xmlns="http://www.w3.org/2000/svg">
  <g>
    <path d="M0 144c0 -40 42.333 -74 127 -102c84.667 -28 186.667 -42 306 -42c120 0 222.167 14 306.5 42c84.333 28 126.5 62 126.5 102c0 8 -24 154.667 -72 440c-6 30.667 -43 60.333 -111 89c-68 28.667 -151.333 43 -250 43c-98.667 0 -182 -14.333 -250 -43c-68 -28.667 -104.667 -58.333 -110 -89c-48.667 -276 -73 -422.667 -73 -440c0 0 0 0 0 0m107 581c0 0 0 -4 0 -4c0 -11.333 5 -17 15 -17c4 0 8 1.667 12 5c31.333 24.667 72 44 122 58c50 14 92 21.667 126 23c0 0 51 3 51 3c5.333 0 12.5 -0.167 21.5 -0.5c9 -0.333 26.5 -2 52.5 -5c26 -3 50.833 -7.167 74.5 -12.5c23.667 -5.333 49.833 -13.667 78.5 -25c28.667 -11.333 53 -25 73 -41c0 0 11 -5 11 -5c10.667 0 16 5.667 16 17c0 1.333 -0.333 2.667 -1 4c-14.667 80.667 -24.667 134.333 -30 161c-7.333 32.667 -39.333 59.833 -96 81.5c-56.667 21.667 -123.333 32.5 -200 32.5c-76.667 0 -143.333 -10.833 -200 -32.5c-56.667 -21.667 -88.333 -48.833 -95 -81.5c-12.667 -63.333 -23 -117 -31 -161c0 0 0 0 0 0m49 -596c0 16 27.167 29.833 81.5 41.5c54.333 11.667 119.5 17.5 195.5 17.5c76.667 0 142.167 -5.667 196.5 -17c54.333 -11.333 81.5 -25 81.5 -41c0 -16.667 -27.167 -30.833 -81.5 -42.5c-54.333 -11.667 -119.833 -17.5 -196.5 -17.5c-76.667 0 -142 5.667 -196 17c-54 11.333 -81 25.333 -81 42c0 0 0 0 0 0m139 353c0 38 13.5 70.5 40.5 97.5c27 27 59.5 40.5 97.5 40.5c38 0 70.5 -13.5 97.5 -40.5c27 -27 40.5 -59.5 40.5 -97.5c0 -38 -13.5 -70.5 -40.5 -97.5c-27 -27 -59.5 -40.5 -97.5 -40.5c-38 0 -70.5 13.5 -97.5 40.5c-27 27 -40.5 59.5 -40.5 97.5c0 0 0 0 0 0m69 0c0 18.667 6.667 34.833 20 48.5c13.333 13.667 29.667 20.5 49 20.5c19.333 0 35.667 -6.833 49 -20.5c13.333 -13.667 20 -29.833 20 -48.5c0 -18.667 -6.667 -34.833 -20 -48.5c-13.333 -13.667 -29.667 -20.5 -49 -20.5c-19.333 0 -35.667 6.833 -49 20.5c-13.333 13.667 -20 29.833 -20 48.5c0 0 0 0 0 0" />
  </g>
</svg>