<svg height="1000px" width="1000px" xmlns="http://www.w3.org/2000/svg">
  <g>
    <path d="M15 379c22 -88 63.833 -163.833 125.5 -227.5c61.667 -63.667 135.167 -107.833 220.5 -132.5c85.333 -24.667 172 -26 260 -4c88 22 163.833 63.833 227.5 125.5c63.667 61.667 107.833 135.167 132.5 220.5c24.667 85.333 26 172 4 260c-22 88 -63.833 163.833 -125.5 227.5c-61.667 63.667 -135.167 107.833 -220.5 132.5c-85.333 24.667 -172 26 -260 4c-88 -22 -163.833 -63.833 -227.5 -125.5c-63.667 -61.667 -107.833 -135.167 -132.5 -220.5c-24.667 -85.333 -26 -172 -4 -260c0 0 0 0 0 0m228 271c0 0 72 18 72 18c4.667 0.667 11.333 2.333 20 5c8.667 2.667 15 4.333 19 5c0 0 -23 91 -23 91c0 0 55 14 55 14c0 0 22 -90 22 -90c4 1.333 11 3.167 21 5.5c10 2.333 17.667 4.167 23 5.5c0 0 -22 90 -22 90c0 0 55 13 55 13c0 0 22 -91 22 -91c32 5.333 60.5 7.833 85.5 7.5c25 -0.333 47 -7.167 66 -20.5c19 -13.333 33.167 -33.667 42.5 -61c21.333 -60 4.333 -104.333 -51 -133c40 -8.667 63.333 -35.333 70 -80c8.667 -57.333 -28 -99.333 -110 -126c0 0 23 -91 23 -91c0 0 -55 -13 -55 -13c0 0 -22 88 -22 88c-5.333 -1.333 -13 -3.167 -23 -5.5c-10 -2.333 -17 -4.167 -21 -5.5c0 0 22 -88 22 -88c0 0 -55 -14 -55 -14c0 0 -22 90 -22 90c-10 -1.333 -21.667 -4 -35 -8c0 0 -76 -19 -76 -19c0 0 -14 59 -14 59c0 0 39 9 39 9c18.667 4.667 27.333 15.333 26 32c0 0 -26 103 -26 103c1.333 0 3.333 0.667 6 2c-0.667 -0.667 -1.667 -1 -3 -1c-1.333 0 -2.333 -0.333 -3 -1c0 0 -36 144 -36 144c-3.333 12 -11.667 16.333 -25 13c0 0 -40 -10 -40 -10c0 0 -27 63 -27 63m183 -23c0 0 30 -121 30 -121c0.667 0 7.167 1.333 19.5 4c12.333 2.667 21.667 5 28 7c6.333 2 15.667 5 28 9c12.333 4 21.833 8.333 28.5 13c6.667 4.667 13.667 10.167 21 16.5c7.333 6.333 12.167 13.667 14.5 22c2.333 8.333 2.167 17.5 -0.5 27.5c-2 7.333 -5 13.667 -9 19c-4 5.333 -9 9.333 -15 12c-6 2.667 -12.167 5 -18.5 7c-6.333 2 -14 2.833 -23 2.5c-9 -0.333 -16.833 -0.833 -23.5 -1.5c-6.667 -0.667 -14.667 -2 -24 -4c-9.333 -2 -16.5 -3.5 -21.5 -4.5c-5 -1 -11.5 -2.5 -19.5 -4.5c-8 -2 -13 -3.333 -15 -4c0 0 0 0 0 0m44 -176c0 0 27 -110 27 -110c2 0.667 6.167 1.667 12.5 3c6.333 1.333 11.833 2.5 16.5 3.5c4.667 1 10.667 2.667 18 5c7.333 2.333 13.667 4.5 19 6.5c5.333 2 11.333 4.833 18 8.5c6.667 3.667 11.667 7.333 15 11c3.333 3.667 7.167 8.167 11.5 13.5c4.333 5.333 6.333 10.833 6 16.5c-0.333 5.667 -0.833 12.167 -1.5 19.5c-2 8.667 -5.5 15.833 -10.5 21.5c-5 5.667 -11.333 9.5 -19 11.5c-7.667 2 -15.167 3.5 -22.5 4.5c-7.333 1 -16.167 0.667 -26.5 -1c-10.333 -1.667 -18.333 -3 -24 -4c-5.667 -1 -13.333 -2.833 -23 -5.5c-9.667 -2.667 -15.167 -4 -16.5 -4c0 0 0 0 0 0" />
  </g>
</svg>