<svg height="1000" width="1001" xmlns="http://www.w3.org/2000/svg"><path d="M15.557 379.057q33-132 125.5-227.5t220.5-132.5 260-4 227.5 125.5 132.5 220.5 4 260-125.5 227.5-220.5 132.5-260 4-227.5-125.5-132.5-220.5-4-260zm228 271l72 18q7 1 20 5t19 5l-23 91 55 14 22-90q6 2 21 5.5t23 5.5l-22 90 55 13 22-91q48 8 85.5 7.5t66-20.5 42.5-61q32-90-51-133 60-13 70-80 13-86-110-126l23-91-55-13-22 88q-8-2-23-5.5t-21-5.5l22-88-55-14-22 90q-15-2-35-8l-76-19-14 59 39 9q28 7 26 32l-26 103q2 0 6 2-1-1-3-1t-3-1l-36 144q-5 18-25 13l-40-10zm183-23l30-121q1 0 19.5 4t28 7 28 9 28.5 13 21 16.5 14.5 22-.5 27.5q-3 11-9 19t-15 12-18.5 7-23 2.5-23.5-1.5-24-4-21.5-4.5-19.5-4.5-15-4zm44-176l27-110q3 1 12.5 3t16.5 3.5 18 5 19 6.5 18 8.5 15 11 11.5 13.5 6 16.5-1.5 19.5q-3 13-10.5 21.5t-19 11.5-22.5 4.5-26.5-1-24-4-23-5.5-16.5-4z"/></svg>