<svg height="1000px" width="996px" xmlns="http://www.w3.org/2000/svg">
  <g>
    <path d="M0 685c0 0 0 -369 0 -369c0 -86.667 31 -161 93 -223c62 -62 136.333 -93 223 -93c0 0 221 0 221 0c43.333 5.333 89.5 24.333 138.5 57c49 32.667 83.833 71 104.5 115c0.667 1.333 2.333 4.5 5 9.5c2.667 5 4.333 8.333 5 10c0.667 1.667 1.833 4.833 3.5 9.5c1.667 4.667 3 8.833 4 12.5c1 3.667 2.167 8.833 3.5 15.5c1.333 6.667 2.667 14 4 22c1.333 8 2.667 17.667 4 29c6 46.667 14.667 75 26 85c9.333 8.667 33 13.5 71 14.5c38 1 59.667 3.5 65 7.5c0 0 14 11 14 11c0 0 8 17 8 17c0 0 3 14 3 14c0 0 -2 256 -2 256c-0.667 86.667 -31.667 160.833 -93 222.5c-61.333 61.667 -135.333 92.5 -222 92.5c0 0 -363 0 -363 0c-86.667 0 -161 -30.833 -223 -92.5c-62 -61.667 -93 -135.833 -93 -222.5c0 0 0 0 0 0m259 -5c0 16.667 6 30.833 18 42.5c12 11.667 26.333 17.5 43 17.5c0 0 356 0 356 0c16.667 0 30.833 -5.833 42.5 -17.5c11.667 -11.667 17.5 -25.833 17.5 -42.5c0 -16.667 -5.833 -30.833 -17.5 -42.5c-11.667 -11.667 -25.833 -17.5 -42.5 -17.5c0 0 -356 0 -356 0c-16.667 0 -31 5.833 -43 17.5c-12 11.667 -18 25.833 -18 42.5c0 0 0 0 0 0m0 -362c0 16.667 6 31 18 43c12 12 26.333 18 43 18c0 0 175 0 175 0c16.667 0 30.833 -6 42.5 -18c11.667 -12 17.5 -26.333 17.5 -43c0 -16.667 -5.833 -30.833 -17.5 -42.5c-11.667 -11.667 -25.833 -17.5 -42.5 -17.5c0 0 -175 0 -175 0c-16.667 0 -31 5.833 -43 17.5c-12 11.667 -18 25.833 -18 42.5c0 0 0 0 0 0" />
  </g>
</svg>