<svg height="1000" width="996" xmlns="http://www.w3.org/2000/svg"><path d="M0 685l0-369q0-130 93-223t223-93l221 0q65 8 138.5 57t104.5 115q1 2 5 9.5t5 10 3.5 9.5 4 12.5 3.5 15.5 4 22 4 29q9 70 26 85 14 13 71 14.5t65 7.5l14 11 8 17 3 14-2 256q-1 130-93 222.5t-222 92.5l-363 0q-130 0-223-92.5t-93-222.5zm259-5q0 25 18 42.5t43 17.5l356 0q25 0 42.5-17.5t17.5-42.5-17.5-42.5-42.5-17.5l-356 0q-25 0-43 17.5t-18 42.5zm0-362q0 25 18 43t43 18l175 0q25 0 42.5-18t17.5-43-17.5-42.5-42.5-17.5l-175 0q-25 0-43 17.5t-18 42.5z"/></svg>