<svg height="1000px" width="979px" xmlns="http://www.w3.org/2000/svg">
  <g>
    <path d="M0 762.25c7.333 -10 17.833 -18.5 31.5 -25.5c13.667 -7 30 -13.667 49 -20c19 -6.333 32.5 -11.5 40.5 -15.5c12.667 0 23.833 1.5 33.5 4.5c9.667 3 20.833 8 33.5 15c12.667 7 21 11.167 25 12.5c31.333 14 118 53.667 260 119c12.667 2.667 24.5 2.667 35.5 0c11 -2.667 24.167 -8.5 39.5 -17.5c15.333 -9 23.333 -13.833 24 -14.5c13.333 -6 38.833 -17.5 76.5 -34.5c37.667 -17 66.833 -30.167 87.5 -39.5c2.667 -1.333 16.5 -8.333 41.5 -21c25 -12.667 45.167 -20.667 60.5 -24c8.667 -1.333 17.833 -1 27.5 1c9.667 2 17.5 4.5 23.5 7.5c6 3 13.667 7.333 23 13c9.333 5.667 15.333 9.167 18 10.5c2.667 1.333 7.833 3.333 15.5 6c7.667 2.667 13.833 5.333 18.5 8c4.667 2.667 8.333 6.333 11 11c2 2.667 3.333 7.333 4 14c-6.667 8.667 -17 16.667 -31 24c-14 7.333 -31 14.667 -51 22c-20 7.333 -33.333 12.667 -40 16c-28.667 13.333 -71.5 33.833 -128.5 61.5c-57 27.667 -99.833 48.167 -128.5 61.5c-4.667 2 -11.667 5.833 -21 11.5c-9.333 5.667 -17.167 10 -23.5 13c-6.333 3 -14.833 6.667 -25.5 11c-10.667 4.333 -19.833 6.667 -27.5 7c-7.667 0.333 -17.5 -0.167 -29.5 -1.5c0 0 -264 -123 -264 -123c-4 -2 -14.667 -6.667 -32 -14c-17.333 -7.333 -34.5 -14.667 -51.5 -22c-17 -7.333 -34.833 -15.333 -53.5 -24c-18.667 -8.667 -34.167 -16.5 -46.5 -23.5c-12.333 -7 -19.5 -12.5 -21.5 -16.5c-2.667 -2.667 -4 -7 -4 -13c0 0 0 0 0 0m0 -268c7.333 -10 17.833 -18.333 31.5 -25c13.667 -6.667 30.333 -13.333 50 -20c19.667 -6.667 33.5 -11.667 41.5 -15c12.667 0 24 1.5 34 4.5c10 3 21.5 8 34.5 15c13 7 21.5 11.5 25.5 13.5c28 12.667 70.167 32 126.5 58c56.333 26 98.833 45.667 127.5 59c12.667 3.333 25 3.5 37 0.5c12 -3 25 -8.667 39 -17c14 -8.333 22.333 -13.167 25 -14.5c45.333 -21.333 98.667 -45.333 160 -72c7.333 -3.333 17.833 -8.833 31.5 -16.5c13.667 -7.667 26.5 -14.167 38.5 -19.5c12 -5.333 24 -9 36 -11c10.667 -2 21.167 -1.667 31.5 1c10.333 2.667 22.833 8.333 37.5 17c14.667 8.667 22.333 13 23 13c3.333 2 8.5 4.167 15.5 6.5c7 2.333 13 5 18 8c5 3 8.833 6.5 11.5 10.5c2 3.333 3.333 8 4 14c-6.667 9.333 -17.167 17.833 -31.5 25.5c-14.333 7.667 -31.833 15.167 -52.5 22.5c-20.667 7.333 -34.333 12.667 -41 16c-32 15.333 -77.167 37 -135.5 65c-58.333 28 -99.167 47.667 -122.5 59c-4.667 2 -13.333 6.667 -26 14c-12.667 7.333 -22.333 12.333 -29 15c-6.667 2.667 -17.5 6 -32.5 10c-15 4 -26.833 4 -35.5 0c-142.667 -67.333 -229.333 -108 -260 -122c-4 -2 -18.667 -8.333 -44 -19c-25.333 -10.667 -48.5 -20.667 -69.5 -30c-21 -9.333 -41.5 -19.167 -61.5 -29.5c-20 -10.333 -31.333 -17.833 -34 -22.5c-2.667 -2.667 -4 -7.333 -4 -14c0 0 0 0 0 0m0 -267c6.667 -10 17.167 -18.833 31.5 -26.5c14.333 -7.667 31.833 -15.167 52.5 -22.5c20.667 -7.333 34.333 -12.667 41 -16c0 0 348 -162 348 -162c20 0 37.833 2.333 53.5 7c15.667 4.667 34.5 13.333 56.5 26c22 12.667 35.333 20 40 22c26 12 65 30.167 117 54.5c52 24.333 91 42.5 117 54.5c2.667 1.333 14.833 6.333 36.5 15c21.667 8.667 39.833 16.667 54.5 24c14.667 7.333 23.667 14 27 20c2 2.667 3.333 7 4 13c-6 8.667 -14.667 16.167 -26 22.5c-11.333 6.333 -25.833 12.667 -43.5 19c-17.667 6.333 -29.167 10.833 -34.5 13.5c-31.333 14.667 -78 36.833 -140 66.5c-62 29.667 -108.333 51.833 -139 66.5c-4 2 -10.667 5.667 -20 11c-9.333 5.333 -17 9.5 -23 12.5c-6 3 -14.333 6.5 -25 10.5c-10.667 4 -19.667 6 -27 6c-7.333 0 -16.667 -0.333 -28 -1c-163.333 -76 -248.667 -115.667 -256 -119c-2.667 -1.333 -23.667 -10.5 -63 -27.5c-39.333 -17 -73.333 -32.5 -102 -46.5c-28.667 -14 -44.667 -24 -48 -30c-2.667 -2.667 -4 -7 -4 -13c0 0 0 0 0 0" />
  </g>
</svg>