<svg height="1000" width="979" xmlns="http://www.w3.org/2000/svg"><path d="M0 762q11-15 31.5-25.5t49-20 40.5-15.5q19 0 33.5 4.5t33.5 15 25 12.5q47 21 260 119 19 4 35.5 0t39.5-17.5 24-14.5q20-9 76.5-34.5t87.5-39.5q4-2 41.5-21t60.5-24q13-2 27.5 1t23.5 7.5 23 13 18 10.5 15.5 6 18.5 8 11 11q3 4 4 14-10 13-31 24t-51 22-40 16q-43 20-128.5 61.5t-128.5 61.5q-7 3-21 11.5t-23.5 13-25.5 11-27.5 7-29.5-1.5l-264-123q-6-3-32-14t-51.5-22-53.5-24-46.5-23.5-21.5-16.5q-4-4-4-13zm0-268q11-15 31.5-25t50-20 41.5-15q19 0 34 4.5t34.5 15 25.5 13.5q42 19 126.5 58t127.5 59q19 5 37 .5t39-17 25-14.5q68-32 160-72 11-5 31.5-16.5t38.5-19.5 36-11q16-3 31.5 1t37.5 17 23 13q5 3 15.5 6.5t18 8 11.5 10.5q3 5 4 14-10 14-31.5 25.5t-52.5 22.5-41 16q-48 23-135.5 65t-122.5 59q-7 3-26 14t-29 15-32.5 10-35.5 0q-214-101-260-122-6-3-44-19t-69.5-30-61.5-29.5-34-22.5q-4-4-4-14zm0-267q10-15 31.5-26.5t52.5-22.5 41-16l348-162q30 0 53.5 7t56.5 26 40 22q39 18 117 54.5t117 54.5q4 2 36.5 15t54.5 24 27 20q3 4 4 13-9 13-26 22.5t-43.5 19-34.5 13.5q-47 22-140 66.5t-139 66.5q-6 3-20 11t-23 12.5-25 10.5-27 6-28-1q-245-114-256-119-4-2-63-27.5t-102-46.5-48-30q-4-4-4-13z"/></svg>