<svg height="1000px" width="776px" xmlns="http://www.w3.org/2000/svg">
  <g>
    <path d="M0 951.5576171875c0 0 0 -775 0 -775c0 0 92 0 92 0c0 -19.333 0.167 -32.333 0.5 -39c0.333 -6.667 1.667 -17.167 4 -31.5c2.333 -14.333 6.167 -24.333 11.5 -30c5.333 -5.667 13.5 -11.167 24.5 -16.5c11 -5.333 24.5 -8 40.5 -8c16 0 29.5 2.667 40.5 8c11 5.333 19 10.667 24 16c5 5.333 8.833 15.5 11.5 30.5c2.667 15 4 25.5 4 31.5c0 0 0 39 0 39c0 0 55 0 55 0c0 0 0 -39 0 -39c0 0 1.333 -10.5 4 -31.5c2.667 -21 6.5 -31.167 11.5 -30.5c5 0.667 13 -4.667 24 -16c11 -11.333 24.5 -14 40.5 -8c12 0 22.333 1.333 31 4c8.667 2.667 15.833 5.5 21.5 8.5c5.667 3 10.5 8.667 14.5 17c4 8.333 6.833 14.5 8.5 18.5c1.667 4 3 12.167 4 24.5c1 12.333 1.5 20.5 1.5 24.5c0 0 0 28 0 28c0 0 54 0 54 0c0 0 0 -28 0 -28c0 0 0.5 -8.167 1.5 -24.5c1 -16.333 2.333 -24.5 4 -24.5c1.667 0 4.5 -6.167 8.5 -18.5c4 -12.333 8.833 -18 14.5 -17c5.667 1 12.833 -1.833 21.5 -8.5c8.667 -6.667 19 -8 31 -4c16 0 29.5 2.667 40.5 8c11 5.333 19 10.667 24 16c5 5.333 8.833 15.5 11.5 30.5c2.667 15 4 25.5 4 31.5c0 0 0 39 0 39c0 0 92 0 92 0c0 0 0 775 0 775c0 0 -776 0 -776 0c0 0 0 0 0 0m65 -177c0 0 0 112 0 112c0 0 139 0 139 0c0 0 0 -112 0 -112c0 0 -139 0 -139 0c0 0 0 0 0 0m0 -22c0 0 139 0 139 0c0 0 0 -119 0 -119c0 0 -139 0 -139 0c0 0 0 119 0 119c0 0 0 0 0 0m0 -141c0 0 139 0 139 0c0 0 0 -130 0 -130c0 0 -139 0 -139 0c0 0 0 130 0 130c0 0 0 0 0 0m0 -151c0 0 139 0 139 0c0 0 0 -112 0 -112c0 0 -139 0 -139 0c0 0 0 112 0 112c0 0 0 0 0 0m71 -203c0 22 12.333 33 37 33c24.667 0 37 -11 37 -33c0 0 0 -130 0 -130c0 -22 -12.333 -33 -37 -33c-24.667 0 -37 11 -37 33c0 0 0 130 0 130c0 0 0 0 0 0m89 517c0 0 0 112 0 112c0 0 152 0 152 0c0 0 0 -112 0 -112c0 0 -152 0 -152 0c0 0 0 0 0 0m0 -22c0 0 152 0 152 0c0 0 0 -119 0 -119c0 0 -152 0 -152 0c0 0 0 119 0 119c0 0 0 0 0 0m0 -141c0 0 152 0 152 0c0 0 0 -130 0 -130c0 0 -152 0 -152 0c0 0 0 130 0 130c0 0 0 0 0 0m0 -151c0 0 152 0 152 0c0 0 0 -112 0 -112c0 0 -152 0 -152 0c0 0 0 112 0 112c0 0 0 0 0 0m126 -203c0 22 12.333 33 37 33c25.333 0 38 -11 38 -33c0 0 0 -130 0 -130c0 -22 -12.667 -33 -38 -33c-24.667 0 -37 11 -37 33c0 0 0 130 0 130c0 0 0 0 0 0m47 517c0 0 0 112 0 112c0 0 152 0 152 0c0 0 0 -112 0 -112c0 0 -152 0 -152 0c0 0 0 0 0 0m0 -22c0 0 152 0 152 0c0 0 0 -119 0 -119c0 0 -152 0 -152 0c0 0 0 119 0 119c0 0 0 0 0 0m0 -141c0 0 152 0 152 0c0 0 0 -130 0 -130c0 0 -152 0 -152 0c0 0 0 130 0 130c0 0 0 0 0 0m0 -151c0 0 152 0 152 0c0 0 0 -112 0 -112c0 0 -152 0 -152 0c0 0 0 112 0 112c0 0 0 0 0 0m168 -203c0 22 12.667 33 38 33c24.667 0 37 -11 37 -33c0 0 0 -130 0 -130c0 -22 -12.333 -33 -37 -33c-25.333 0 -38 11 -38 33c0 0 0 130 0 130c0 0 0 0 0 0m5 517c0 0 0 112 0 112c0 0 140 0 140 0c0 0 0 -112 0 -112c0 0 -140 0 -140 0c0 0 0 0 0 0m0 -22c0 0 140 0 140 0c0 0 0 -119 0 -119c0 0 -140 0 -140 0c0 0 0 119 0 119c0 0 0 0 0 0m0 -141c0 0 140 0 140 0c0 0 0 -130 0 -130c0 0 -140 0 -140 0c0 0 0 130 0 130c0 0 0 0 0 0m0 -151c0 0 140 0 140 0c0 0 0 -112 0 -112c0 0 -140 0 -140 0c0 0 0 112 0 112c0 0 0 0 0 0" />
  </g>
</svg>