<svg height="1000" width="776" xmlns="http://www.w3.org/2000/svg"><path d="M0 951.615l0-775l92 0q0-29 .5-39t4-31.5 11.5-30 24.5-16.5 40.5-8 40.5 8 24 16 11.5 30.5 4 31.5l0 39l55 0l0-39t4-31.5 11.5-30.5 24-16 40.5-8q18 0 31 4t21.5 8.5 14.5 17 8.5 18.5 4 24.5 1.5 24.5l0 28l54 0l0-28t1.5-24.5 4-24.5 8.5-18.5 14.5-17 21.5-8.5 31-4q24 0 40.5 8t24 16 11.5 30.5 4 31.5l0 39l92 0l0 775l-776 0zm65-177l0 112l139 0l0-112l-139 0zm0-22l139 0l0-119l-139 0l0 119zm0-141l139 0l0-130l-139 0l0 130zm0-151l139 0l0-112l-139 0l0 112zm71-203q0 33 37 33t37-33l0-130q0-33-37-33t-37 33l0 130zm89 517l0 112l152 0l0-112l-152 0zm0-22l152 0l0-119l-152 0l0 119zm0-141l152 0l0-130l-152 0l0 130zm0-151l152 0l0-112l-152 0l0 112zm126-203q0 33 37 33 38 0 38-33l0-130q0-33-38-33-37 0-37 33l0 130zm47 517l0 112l152 0l0-112l-152 0zm0-22l152 0l0-119l-152 0l0 119zm0-141l152 0l0-130l-152 0l0 130zm0-151l152 0l0-112l-152 0l0 112zm168-203q0 33 38 33 37 0 37-33l0-130q0-33-37-33-38 0-38 33l0 130zm5 517l0 112l140 0l0-112l-140 0zm0-22l140 0l0-119l-140 0l0 119zm0-141l140 0l0-130l-140 0l0 130zm0-151l140 0l0-112l-140 0l0 112z"/></svg>