<svg height="1000px" width="798.1666564941406px" xmlns="http://www.w3.org/2000/svg">
  <g>
    <path d="M0 257.50830078125c1.333 -11.333 6.333 -22 15 -32c0 0 120 -120 120 -120c9.333 -8 16.333 -6.667 21 4c0 0 97 182 97 182c5.333 10.667 3.667 21 -5 31c0 0 -44 44 -44 44c-8 8 -12.667 18.333 -14 31c0 20 10.333 45.667 31 77c20.667 31.333 41 58 61 80c0 0 31 32 31 32c9.333 9.333 21.333 20.833 36 34.5c14.667 13.667 38.833 31.667 72.5 54c33.667 22.333 60.167 33.5 79.5 33.5c12.667 0 23.333 -4.333 32 -13c0 0 52 -52 52 -52c9.333 -9.333 19.333 -10.667 30 -4c0 0 175 103 175 103c4.667 2.667 7.333 6.167 8 10.5c0.667 4.333 -0.667 8.167 -4 11.5c0 0 -120 120 -120 120c-10 8.667 -20.667 13.667 -32 15c-32.667 4.667 -69.5 0.167 -110.5 -13.5c-41 -13.667 -79 -31.833 -114 -54.5c-35 -22.667 -67.5 -45.667 -97.5 -69c-30 -23.333 -54 -43.333 -72 -60c0 0 -26 -25 -26 -25c-6.667 -6.667 -15.5 -15.833 -26.5 -27.5c-11 -11.667 -30.167 -34.667 -57.5 -69c-27.333 -34.333 -51 -67.833 -71 -100.5c-20 -32.667 -37.333 -69.833 -52 -111.5c-14.667 -41.667 -19.667 -78.833 -15 -111.5c0 0 0 0 0 0" />
  </g>
</svg>