<svg height="1000px" width="1120px" xmlns="http://www.w3.org/2000/svg">
  <g>
    <path d="M0 146c0 -13.333 4.333 -24.333 13 -33c8.667 -8.667 19.667 -13 33 -13c0 0 235 0 235 0c10.667 0 20.167 3.167 28.5 9.5c8.333 6.333 13.833 14.833 16.5 25.5c0 0 24 98 24 98c0 0 674 0 674 0c0 0 7 -21 7 -21c6.667 -21.333 21 -32 43 -32c6 0 10.333 0.667 13 2c10 2.667 18 8 24 16c6 8 9 17 9 27c0 3.333 -0.667 7.667 -2 13c0 0 -118 393 -118 393c-2.667 10 -8 18 -16 24c-8 6 -17 9 -27 9c0 0 -559 0 -559 0c-10.667 0 -20.167 -3.333 -28.5 -10c-8.333 -6.667 -13.833 -15 -16.5 -25c0 0 -108 -438 -108 -438c0 0 -199 0 -199 0c-12.667 0 -23.5 -4.333 -32.5 -13c-9 -8.667 -13.5 -19.333 -13.5 -32c0 0 0 0 0 0m372 178c0 0 62 248 62 248c0 0 489 0 489 0c0 0 2 -9 2 -9c0 0 72 -239 72 -239c0 0 -625 0 -625 0c0 0 0 0 0 0m42 484c0 -25.333 9.167 -47 27.5 -65c18.333 -18 40.167 -27 65.5 -27c25.333 0 47 9 65 27c18 18 27 39.667 27 65c0 25.333 -9 47 -27 65c-18 18 -39.667 27 -65 27c-25.333 0 -47.167 -9 -65.5 -27c-18.333 -18 -27.5 -39.667 -27.5 -65c0 0 0 0 0 0m65 -406c0 0 166 0 166 0c0 0 0 92 0 92c0 0 -146 0 -146 0c0 0 -20 -92 -20 -92m245 92c0 0 1 -92 1 -92c0 0 162 0 162 0c0 0 -24 92 -24 92c0 0 -139 0 -139 0c0 0 0 0 0 0m37 314c0 -25.333 9.167 -47 27.5 -65c18.333 -18 40.167 -27 65.5 -27c25.333 0 47 9 65 27c18 18 27 39.667 27 65c0 25.333 -9 47 -27 65c-18 18 -39.667 27 -65 27c-25.333 0 -47.167 -9 -65.5 -27c-18.333 -18 -27.5 -39.667 -27.5 -65c0 0 0 0 0 0" />
  </g>
</svg>