<svg height="1000" width="1120" xmlns="http://www.w3.org/2000/svg"><path d="M0 146q0-20 13-33t33-13l235 0q16 0 28.5 9.5t16.5 25.5l24 98l674 0l7-21q10-32 43-32 9 0 13 2 15 4 24 16t9 27q0 5-2 13l-118 393q-4 15-16 24t-27 9l-559 0q-16 0-28.5-10t-16.5-25l-108-438l-199 0q-19 0-32.5-13t-13.5-32zm372 178l62 248l489 0l2-9 72-239l-625 0zm42 484q0-38 27.5-65t65.5-27 65 27 27 65-27 65-65 27-65.5-27-27.5-65zm65-406l166 0l0 92l-146 0zm245 92l1-92l162 0l-24 92l-139 0zm37 314q0-38 27.5-65t65.5-27 65 27 27 65-27 65-65 27-65.5-27-27.5-65z"/></svg>