<svg height="1000px" width="1000px" xmlns="http://www.w3.org/2000/svg">
  <g>
    <path d="M0 500c0 -65.333 12.667 -129 38 -191c24.667 -60 61.333 -114.333 110 -163c96 -97.333 213 -146 351 -146c139.333 0 258.333 48.667 357 146c47.333 47.333 83 101.333 107 162c24.667 59.333 37 123.333 37 192c0 69.333 -12 133.333 -36 192c-24 59.333 -59.667 112.333 -107 159c-49.333 48 -104.667 85 -166 111c-62.667 25.333 -126.667 38 -192 38c-64.667 0 -128 -12.667 -190 -38c-59.333 -24.667 -113.333 -61.333 -162 -110c-48.667 -48.667 -85.333 -102.667 -110 -162c-24.667 -59.333 -37 -122.667 -37 -190c0 0 0 0 0 0m90 0c0 52.667 10.667 104.333 32 155c20.667 50 51 94.333 91 133c40 40 84.333 69.667 133 89c48 20.667 99.667 31 155 31c54 0 106 -10.333 156 -31c49.333 -20.667 94.667 -50.667 136 -90c78 -76 117 -171.667 117 -287c0 -56.667 -10.333 -109 -31 -157c-20 -50.667 -49.333 -94.667 -88 -132c-80 -80.667 -176.667 -121 -290 -121c-114 0 -210 40 -288 120c-39.333 39.333 -69.667 84 -91 134c-21.333 50.667 -32 102.667 -32 156c0 0 0 0 0 0m125 0c0 -47.333 14 -85 42 -113c27.333 -28 62.333 -42 105 -42c61.333 0 105.667 24 133 72c0 0 -67 35 -67 35c-7.333 -16 -16.333 -26.333 -27 -31c-10 -6 -19.667 -9 -29 -9c-44.667 0 -67 29.333 -67 88c0 26 5.667 47.333 17 64c12 16 28.667 24 50 24c29.333 0 50 -14 62 -42c0 0 62 31 62 31c-14 24 -32.333 43 -55 57c-23.333 14 -49 21 -77 21c-44.667 0 -80.667 -13.667 -108 -41c-27.333 -27.333 -41 -65.333 -41 -114c0 0 0 0 0 0m289 0c0 -47.333 14 -85 42 -113c28 -28 63 -42 105 -42c62 0 106 24 132 72c0 0 -66 35 -66 35c-7.333 -15.333 -16 -25.667 -26 -31c-11.333 -6 -21.333 -9 -30 -9c-44.667 0 -67 29.333 -67 88c0 27.333 5.667 48.667 17 64c11.333 16 28 24 50 24c28.667 0 49 -14 61 -42c0 0 63 31 63 31c-14.667 24.667 -33.333 43.667 -56 57c-23.333 14 -48.333 21 -75 21c-46 0 -82.333 -13.667 -109 -41c-27.333 -27.333 -41 -65.333 -41 -114c0 0 0 0 0 0" />
  </g>
</svg>