<svg height="1000" width="1000" xmlns="http://www.w3.org/2000/svg"><path d="M0 500q0-98 38-191 37-90 110-163 144-146 351-146 209 0 357 146 71 71 107 162 37 89 37 192 0 104-36 192-36 89-107 159-74 72-166 111-94 38-192 38-97 0-190-38-89-37-162-110t-110-162-37-190zm90 0q0 79 32 155 31 75 91 133 60 60 133 89 72 31 155 31 81 0 156-31 74-31 136-90 117-114 117-287 0-85-31-157-30-76-88-132-120-121-290-121-171 0-288 120-59 59-91 134-32 76-32 156zm125 0q0-71 42-113 41-42 105-42 92 0 133 72l-67 35q-11-24-27-31-15-9-29-9-67 0-67 88 0 39 17 64 18 24 50 24 44 0 62-42l62 31q-21 36-55 57-35 21-77 21-67 0-108-41t-41-114zm289 0q0-71 42-113t105-42q93 0 132 72l-66 35q-11-23-26-31-17-9-30-9-67 0-67 88 0 41 17 64 17 24 50 24 43 0 61-42l63 31q-22 37-56 57-35 21-75 21-69 0-109-41-41-41-41-114z"/></svg>