<svg height="1000" width="998" xmlns="http://www.w3.org/2000/svg"><path d="M0 523q0-75 23-155.5t62-144.5q62-104 182.5-163.5t248.5-59.5q130 0 249.5 81.5t182.5 201.5q50 86 50 214 0 150-71 266t-192 177-270 60q20-36 61-109.5t73.5-130.5 64.5-108l1-2q3-5 12-18.5t12.5-19.5 9.5-17 9.5-21 5.5-21q6-24 6-48 0-80-48-142l275-81q-285 0-428 1-7-1-22-1-99 0-165.5 74t-55.5 173q-2-9-2-28 0-44 15-77l-204-201 198 341q19 72 79.5 117.5t134.5 45.5q17 0 33-3l-66 276q-115 0-223-71t-175-176q-66-102-66-230zm312-19q0 77 54.5 131.5t130.5 54.5 130.5-54.5 54.5-131.5q0-76-54-130.5t-131-54.5-131 54.5-54 130.5z"/></svg>