<svg height="1000px" width="998px" xmlns="http://www.w3.org/2000/svg">
  <g>
    <path d="M0 523c0 -50 7.667 -101.833 23 -155.5c15.333 -53.667 36 -101.833 62 -144.5c41.333 -69.333 102.167 -123.833 182.5 -163.5c80.333 -39.667 163.167 -59.5 248.5 -59.5c86.667 0 169.833 27.167 249.5 81.5c79.667 54.333 140.5 121.5 182.5 201.5c33.333 57.333 50 128.667 50 214c0 100 -23.667 188.667 -71 266c-47.333 77.333 -111.333 136.333 -192 177c-80.667 40.667 -170.667 60.667 -270 60c13.333 -24 33.667 -60.5 61 -109.5c27.333 -49 51.833 -92.5 73.5 -130.5c21.667 -38 43.167 -74 64.5 -108c0 0 1 -2 1 -2c2 -3.333 6 -9.5 12 -18.5c6 -9 10.167 -15.5 12.5 -19.5c2.333 -4 5.5 -9.667 9.5 -17c4 -7.333 7.167 -14.333 9.5 -21c2.333 -6.667 4.167 -13.667 5.5 -21c4 -16 6 -32 6 -48c0 -53.333 -16 -100.667 -48 -142c0 0 275 -81 275 -81c-190 0 -332.667 0.333 -428 1c-4.667 -0.667 -12 -1 -22 -1c-66 0 -121.167 24.667 -165.5 74c-44.333 49.333 -62.833 107 -55.5 173c-1.333 -6 -2 -15.333 -2 -28c0 -29.333 5 -55 15 -77c0 0 -204 -201 -204 -201c0 0 198 341 198 341c12.667 48 39.167 87.167 79.5 117.5c40.333 30.333 85.167 45.5 134.5 45.5c11.333 0 22.333 -1 33 -3c0 0 -66 276 -66 276c-76.667 0 -151 -23.667 -223 -71c-72 -47.333 -130.333 -106 -175 -176c-44 -68 -66 -144.667 -66 -230c0 0 0 0 0 0m312 -19c0 51.333 18.167 95.167 54.5 131.5c36.333 36.333 79.833 54.5 130.5 54.5c50.667 0 94.167 -18.167 130.5 -54.5c36.333 -36.333 54.5 -80.167 54.5 -131.5c0 -50.667 -18 -94.167 -54 -130.5c-36 -36.333 -79.667 -54.5 -131 -54.5c-51.333 0 -95 18.167 -131 54.5c-36 36.333 -54 79.833 -54 130.5c0 0 0 0 0 0" />
  </g>
</svg>