<svg height="1000px" width="1107px" xmlns="http://www.w3.org/2000/svg">
  <g>
    <path d="M-2 648c0 -69.333 24.5 -128.667 73.5 -178c49 -49.333 107.833 -74 176.5 -74c0 0 1 1 1 1c0 -2 -0.167 -4.333 -0.5 -7c-0.333 -2.667 -0.5 -4.667 -0.5 -6c0 -78.667 27.5 -145.667 82.5 -201c55 -55.333 121.5 -83 199.5 -83c68.667 0 129 22 181 66c52 44 84 99.333 96 166c0 0 17 0 17 0c78 0 144.5 27.667 199.5 83c55 55.333 82.5 122.333 82.5 201c0 78.667 -27.5 145.667 -82.5 201c-55 55.333 -121.5 83 -199.5 83c-5.333 0 -9.333 -0.333 -12 -1c0 0 0 1 0 1c0 0 -555 0 -555 0c0 0 -9 0 -9 0c0 0 -9 0 -9 0c0 0 -5 0 -5 0c0 0 0 -1 0 -1c-66 -3.333 -121.833 -29.333 -167.5 -78c-45.667 -48.667 -68.5 -106.333 -68.5 -173c0 0 0 0 0 0" />
  </g>
</svg>