<svg height="1000" width="1122" xmlns="http://www.w3.org/2000/svg"><path d="M0 698l0-372q0-13 13-13l176 0l0-129q0-14 13-14l98 0l0 514q0 14-12 14l-288 0zm109-83l67 0q13 0 13-14l0-206l-67 0q-13 0-13 14l0 206zm225 83l0-372q0-13 13-13l98 0l0 371q0 14-12 14l-99 0zm0-445l0-69q0-14 12-14l99 0l0 69q0 14-12 14l-99 0zm149 445l0-372q0-13 13-13l288 0l0 504q0 13-13 13l-288 0l1-69q0-14 12-14l176 0l0-49l-189 0zm110-83l67 0q12 0 12-14l0-206l-67 0q-12 0-12 14l0 206zm229 146q0-14 13-14l176 0l0-49l-189 0l0-372q0-13 13-13l287 0l0 504q0 13-12 13l-288 0l0-69zm109-146l67 0q13 0 13-14l0-206l-67 0q-13 0-13 14l0 206z"/></svg>