<svg height="1000px" width="1122px" xmlns="http://www.w3.org/2000/svg">
  <g>
    <path d="M0 698c0 0 0 -372 0 -372c0 -8.667 4.333 -13 13 -13c0 0 176 0 176 0c0 0 0 -129 0 -129c0 -9.333 4.333 -14 13 -14c0 0 98 0 98 0c0 0 0 514 0 514c0 9.333 -4 14 -12 14c0 0 -288 0 -288 0c0 0 0 0 0 0m109 -83c0 0 67 0 67 0c8.667 0 13 -4.667 13 -14c0 0 0 -206 0 -206c0 0 -67 0 -67 0c-8.667 0 -13 4.667 -13 14c0 0 0 206 0 206c0 0 0 0 0 0m225 83c0 0 0 -372 0 -372c0 -8.667 4.333 -13 13 -13c0 0 98 0 98 0c0 0 0 371 0 371c0 9.333 -4 14 -12 14c0 0 -99 0 -99 0c0 0 0 0 0 0m0 -445c0 0 0 -69 0 -69c0 -9.333 4 -14 12 -14c0 0 99 0 99 0c0 0 0 69 0 69c0 9.333 -4 14 -12 14c0 0 -99 0 -99 0c0 0 0 0 0 0m149 445c0 0 0 -372 0 -372c0 -8.667 4.333 -13 13 -13c0 0 288 0 288 0c0 0 0 504 0 504c0 8.667 -4.333 13 -13 13c0 0 -288 0 -288 0c0 0 1 -69 1 -69c0 -9.333 4 -14 12 -14c0 0 176 0 176 0c0 0 0 -49 0 -49c0 0 -189 0 -189 0c0 0 0 0 0 0m110 -83c0 0 67 0 67 0c8 0 12 -4.667 12 -14c0 0 0 -206 0 -206c0 0 -67 0 -67 0c-8 0 -12 4.667 -12 14c0 0 0 206 0 206c0 0 0 0 0 0m229 146c0 -9.333 4.333 -14 13 -14c0 0 176 0 176 0c0 0 0 -49 0 -49c0 0 -189 0 -189 0c0 0 0 -372 0 -372c0 -8.667 4.333 -13 13 -13c0 0 287 0 287 0c0 0 0 504 0 504c0 8.667 -4 13 -12 13c0 0 -288 0 -288 0c0 0 0 -69 0 -69c0 0 0 0 0 0m109 -146c0 0 67 0 67 0c8.667 0 13 -4.667 13 -14c0 0 0 -206 0 -206c0 0 -67 0 -67 0c-8.667 0 -13 4.667 -13 14c0 0 0 206 0 206c0 0 0 0 0 0" />
  </g>
</svg>