<svg height="1000px" width="863px" xmlns="http://www.w3.org/2000/svg">
  <g>
    <path d="M0 982c0 0 0 -957 0 -957c80.667 -14 179.667 -21 297 -21c93.333 0 171.833 8 235.5 24c63.667 16 118.833 41.667 165.5 77c110 83.333 165 206.667 165 370c0 173.333 -53.667 305 -161 395c-98.667 84 -249 126 -451 126c-95.333 0 -179 -4.667 -251 -14c0 0 0 0 0 0m220 -162c12.667 2.667 38.333 4 77 4c0 0 4 0 4 0c102 0 182 -28.333 240 -85c59.333 -57.333 89 -142.667 89 -256c0 -102.667 -27.167 -180 -81.5 -232c-54.333 -52 -130.5 -78 -228.5 -78c-44 0 -77.333 3 -100 9c0 0 0 638 0 638c0 0 0 0 0 0" />
  </g>
</svg>