<svg height="1000" width="1000" xmlns="http://www.w3.org/2000/svg"><path d="M0 500q0-136 67-251t182-182 251-67 251 67 182 182 67 251-67 251-182 182-251 67-251-67-182-182-67-251zm83 0q0 156 105 275 48-94 152-179t203-107q-15-35-29-63-172 55-372 55-39 0-58-1 0 4-.5 10t-.5 10zm13-103q22 2 65 2 167 0 317-45-76-135-167-225-79 40-135.5 111t-79.5 157zm149 432q113 88 255 88 74 0 147-28-20-171-78-331-92 20-185.5 101t-138.5 170zm153-732q88 91 163 227 136-57 205-145-116-96-266-96-51 0-102 14zm199 298q15 32 34 81 74-7 161-7 62 0 123 3-8-136-98-242-65 97-220 165zm59 151q51 148 69 304 79-51 129-131t60-173q-73-5-133-5-55 0-125 5z"/></svg>