<svg height="1000px" width="1000px" xmlns="http://www.w3.org/2000/svg">
  <g>
    <path d="M0 500c0 -90.667 22.333 -174.333 67 -251c44.667 -76.667 105.333 -137.333 182 -182c76.667 -44.667 160.333 -67 251 -67c90.667 0 174.333 22.333 251 67c76.667 44.667 137.333 105.333 182 182c44.667 76.667 67 160.333 67 251c0 90.667 -22.333 174.333 -67 251c-44.667 76.667 -105.333 137.333 -182 182c-76.667 44.667 -160.333 67 -251 67c-90.667 0 -174.333 -22.333 -251 -67c-76.667 -44.667 -137.333 -105.333 -182 -182c-44.667 -76.667 -67 -160.333 -67 -251c0 0 0 0 0 0m83 0c0 104 35 195.667 105 275c32 -62.667 82.667 -122.333 152 -179c69.333 -56.667 137 -92.333 203 -107c-10 -23.333 -19.667 -44.333 -29 -63c-114.667 36.667 -238.667 55 -372 55c-26 0 -45.333 -0.333 -58 -1c0 2.667 -0.167 6 -0.5 10c-0.333 4 -0.5 7.333 -0.5 10c0 0 0 0 0 0m13 -103c14.667 1.333 36.333 2 65 2c111.333 0 217 -15 317 -45c-50.667 -90 -106.333 -165 -167 -225c-52.667 26.667 -97.833 63.667 -135.5 111c-37.667 47.333 -64.167 99.667 -79.5 157c0 0 0 0 0 0m149 432c75.333 58.667 160.333 88 255 88c49.333 0 98.333 -9.333 147 -28c-13.333 -114 -39.333 -224.333 -78 -331c-61.333 13.333 -123.167 47 -185.5 101c-62.333 54 -108.5 110.667 -138.5 170c0 0 0 0 0 0m153 -732c58.667 60.667 113 136.333 163 227c90.667 -38 159 -86.333 205 -145c-77.333 -64 -166 -96 -266 -96c-34 0 -68 4.667 -102 14c0 0 0 0 0 0m199 298c10 21.333 21.333 48.333 34 81c49.333 -4.667 103 -7 161 -7c41.333 0 82.333 1 123 3c-5.333 -90.667 -38 -171.333 -98 -242c-43.333 64.667 -116.667 119.667 -220 165c0 0 0 0 0 0m59 151c34 98.667 57 200 69 304c52.667 -34 95.667 -77.667 129 -131c33.333 -53.333 53.333 -111 60 -173c-48.667 -3.333 -93 -5 -133 -5c-36.667 0 -78.333 1.667 -125 5c0 0 0 0 0 0" />
  </g>
</svg>