<svg height="1000px" width="1013px" xmlns="http://www.w3.org/2000/svg">
  <g>
    <path d="M-12 539c0 0 214 -163 214 -163c0 0 -214 -162 -214 -162c0 0 311 -203 311 -203c0 0 203 174 203 174c0 0 208 -174 208 -174c0 0 302 193 302 193c0 0 -198 165 -198 165c0 0 198 170 198 170c0 0 -307 185 -307 185c0 0 -203 -156 -203 -156c0 0 -203 156 -203 156c0 0 -311 -185 -311 -185m213 251c0 0 0 -57 0 -57c0 0 94 55 94 55c0 0 203 -155 203 -155c0 0 1 1 1 1c0 0 0 355 0 355c0 0 -298 -199 -298 -199m5 -416c0 0 294 185 294 185c0 0 296 -196 296 -196c0 0 -294 -169 -294 -169c0 0 -296 180 -296 180m293 615c0 0 1 -355 1 -355c0 0 2 -1 2 -1c0 0 202 155 202 155c0 0 100 -60 100 -60c0 0 0 63 0 63c0 0 -305 198 -305 198" />
  </g>
</svg>