<svg height="1000px" width="875px" xmlns="http://www.w3.org/2000/svg">
  <g>
    <path d="M0 568c0 -46.667 7 -91 21 -133c14 -42 30.167 -76.333 48.5 -103c18.333 -26.667 39.833 -51.5 64.5 -74.5c24.667 -23 43.667 -39 57 -48c13.333 -9 26 -16.833 38 -23.5c6.667 -3.333 16.5 -8.333 29.5 -15c13 -6.667 23.167 -12 30.5 -16c7.333 -4 16.833 -9.667 28.5 -17c11.667 -7.333 23.167 -15.667 34.5 -25c28 -22.667 44.667 -60.333 50 -113c48.667 58.667 84 95.333 106 110c16.667 11.333 41.167 24.333 73.5 39c32.333 14.667 56.833 27 73.5 37c12.667 7.333 24.667 15.167 36 23.5c11.333 8.333 29.333 24.5 54 48.5c24.667 24 45.5 49.333 62.5 76c17 26.667 32.5 61.667 46.5 105c14 43.333 21 89 21 137c0 124 -42.5 225.667 -127.5 305c-85 79.333 -187.167 119 -306.5 119c-77.333 0 -149.5 -18.5 -216.5 -55.5c-67 -37 -121.167 -88.833 -162.5 -155.5c-41.333 -66.667 -62 -140.333 -62 -221c0 0 0 0 0 0m190 151c-1.333 42 12.667 73 42 93c20.667 14 52 21 94 21c27.333 0 59.833 -9.833 97.5 -29.5c37.667 -19.667 72.667 -39.167 105 -58.5c32.333 -19.333 55.833 -28.667 70.5 -28c15.333 0.667 41.167 19.333 77.5 56c36.333 36.667 59.833 55.333 70.5 56c13.333 0.667 24.5 -2.167 33.5 -8.5c9 -6.333 19.5 -18.167 31.5 -35.5c22 -32.667 33 -71.667 33 -117c0 -19.333 -5 -37.5 -15 -54.5c-10 -17 -25.667 -25.5 -47 -25.5c-14.667 0 -45.333 15.667 -92 47c-46.667 31.333 -78 47.333 -94 48c-14.667 0 -35 -9.167 -61 -27.5c-26 -18.333 -55.5 -36.833 -88.5 -55.5c-33 -18.667 -65.833 -28 -98.5 -28c-43.333 0.667 -80.5 15.667 -111.5 45c-31 29.333 -46.833 63.333 -47.5 102c0 0 0 0 0 0m205 180c-8 6.667 -8 13.333 0 20c30.667 28 85.667 38.333 165 31c15.333 -1.333 31.167 -5.167 47.5 -11.5c16.333 -6.333 28.667 -12.167 37 -17.5c8.333 -5.333 13.833 -9.333 16.5 -12c2.667 -2.667 4 -8 4 -16c-2 -8 -6.667 -9 -14 -3c-27.333 21.333 -68.667 32 -124 32c-50 0 -86.667 -9.333 -110 -28c-2 -1.333 -4.667 -2 -8 -2c-3.333 0 -8 2.333 -14 7c0 0 0 0 0 0m90 -52c4.667 5.333 14 1.667 28 -11c1.333 -0.667 4 -2.667 8 -6c4 -3.333 6.667 -5.5 8 -6.5c1.333 -1 4 -2.667 8 -5c4 -2.333 7.333 -3.833 10 -4.5c2.667 -0.667 6.5 -1.333 11.5 -2c5 -0.667 10.167 -1 15.5 -1c10.667 0 19.333 1.5 26 4.5c6.667 3 10.833 5.667 12.5 8c1.667 2.333 4.167 6.5 7.5 12.5c3.333 6.667 5.833 10.5 7.5 11.5c1.667 1 4.167 0.833 7.5 -0.5c8 -4.667 10.333 -11.333 7 -20c-6 -17.333 -13.333 -28.667 -22 -34c-8 -6 -22.333 -9 -43 -9c-17.333 0 -31 2 -41 6c-11.333 4.667 -26 15.333 -44 32c-10 8 -12.333 16.333 -7 25c0 0 0 0 0 0" />
  </g>
</svg>