<svg height="1000" width="875" xmlns="http://www.w3.org/2000/svg"><path d="M0 568q0-70 21-133t48.5-103 64.5-74.5 57-48 38-23.5q10-5 29.5-15t30.5-16 28.5-17 34.5-25q42-34 50-113 73 88 106 110 25 17 73.5 39t73.5 37q19 11 36 23.5t54 48.5 62.5 76 46.5 105 21 137q0 186-127.5 305t-306.5 119q-116 0-216.5-55.5t-162.5-155.5-62-221zm190 151q-2 63 42 93 31 21 94 21 41 0 97.5-29.5t105-58.5 70.5-28q23 1 77.5 56t70.5 56q20 1 33.5-8.5t31.5-35.5q33-49 33-117 0-29-15-54.5t-47-25.5q-22 0-92 47t-94 48q-22 0-61-27.5t-88.5-55.5-98.5-28q-65 1-111.5 45t-47.5 102zm205 180q-12 10 0 20 46 42 165 31 23-2 47.5-11.5t37-17.5 16.5-12 4-16q-3-12-14-3-41 32-124 32-75 0-110-28-3-2-8-2t-14 7zm90-52q7 8 28-11 2-1 8-6t8-6.5 8-5 10-4.5 11.5-2 15.5-1q16 0 26 4.5t12.5 8 7.5 12.5q5 10 7.5 11.5t7.5-.5q12-7 7-20-9-26-22-34-12-9-43-9-26 0-41 6-17 7-44 32-15 12-7 25z"/></svg>