<svg height="1000px" width="992px" xmlns="http://www.w3.org/2000/svg">
  <g>
    <path d="M0 501.5c0 -143.333 46.833 -261.833 140.5 -355.5c93.667 -93.667 212.167 -140.5 355.5 -140.5c143.333 0 261.833 46.833 355.5 140.5c93.667 93.667 140.5 212.167 140.5 355.5c0 121.333 -34.333 225.667 -103 313c-68.667 87.333 -162 144.333 -280 171c-6 -11.333 -17.167 -28.667 -33.5 -52c-16.333 -23.333 -27.833 -42 -34.5 -56c42.667 17.333 71.333 26 86 26c10.667 0 16 -16.667 16 -50c0 -62 -5.667 -93 -17 -93c-16.667 0 -49 18.333 -97 55c0 -9.333 -5 -13.333 -15 -12c0 0 -5 0 -5 0c-17.333 -46 -26 -87 -26 -123c0 -10 1 -20 3 -30c61.333 30 110.667 45 148 45c20.667 0 51.833 -6 93.5 -18c41.667 -12 62.5 -25 62.5 -39c0 -8.667 -5.667 -13 -17 -13c-17.333 0 -42.333 2.333 -75 7c-32.667 4.667 -57.667 7 -75 7c-18 0 -37.833 -4.667 -59.5 -14c-21.667 -9.333 -32.5 -22 -32.5 -38c0 -3.333 0.5 -5.833 1.5 -7.5c1 -1.667 2.5 -2.667 4.5 -3c2 -0.333 4 -0.333 6 0c2 0.333 4.667 0.667 8 1c3.333 0.333 6.333 0.5 9 0.5c6 0 14.667 0.833 26 2.5c11.333 1.667 19.667 2.5 25 2.5c20.667 0 63 -12.167 127 -36.5c64 -24.333 96 -43.167 96 -56.5c0 -8 -6.167 -13.667 -18.5 -17c-12.333 -3.333 -23.833 -5 -34.5 -5c-9.333 0 -23.333 2.5 -42 7.5c-18.667 5 -39 11 -61 18c-22 7 -36.667 11.5 -44 13.5c2.667 -13.333 4 -24 4 -32c0 -31.333 -8.333 -67.833 -25 -109.5c-16.667 -41.667 -36 -72.5 -58 -92.5c-18 -16 -42 -27 -72 -33c-18.667 -24 -47.833 -45.833 -87.5 -65.5c-39.667 -19.667 -74.833 -29.5 -105.5 -29.5c-6 0 -15.167 1.167 -27.5 3.5c-12.333 2.333 -20.167 3.833 -23.5 4.5c0 0 -22 31 -22 31c0 0 6 1 6 1c4.667 0 11.833 -0.667 21.5 -2c9.667 -1.333 16.833 -2 21.5 -2c22.667 0 48.667 4.667 78 14c-18.667 9.333 -35 15.667 -49 19c-1.333 0.667 -5.667 1.5 -13 2.5c-7.333 1 -13.5 2 -18.5 3c-5 1 -9.667 3 -14 6c-4.333 3 -6.5 6.833 -6.5 11.5c37.333 -4 65.333 -6 84 -6c25.333 0 45.333 2.333 60 7c-51.333 6 -90.833 23.667 -118.5 53c-27.667 29.333 -41.5 69.667 -41.5 121c0 18 1.333 34.667 4 50c12.667 80 37 199.333 73 358c22 102.667 34.333 159.333 37 170c0 0 1 4 1 4c-106.667 -33.333 -190.333 -95.167 -251 -185.5c-60.667 -90.333 -91 -192.833 -91 -307.5c0 0 0 0 0 0m283 -124c0 4 1 8 3 12c-0.667 -10.667 5.333 -20 18 -28c12.667 -8 24.667 -12 36 -12c5.333 0 12 1.667 20 5c-6.667 -8.667 -16.333 -13 -29 -13c-11.333 0 -22.167 3.167 -32.5 9.5c-10.333 6.333 -15.5 15.167 -15.5 26.5c0 0 0 0 0 0m33 75c0 -8.667 3.5 -16.5 10.5 -23.5c7 -7 14.833 -10.5 23.5 -10.5c8.667 0 16.5 3.5 23.5 10.5c7 7 10.5 14.833 10.5 23.5c0 8.667 -3.5 16.5 -10.5 23.5c-7 7 -14.833 10.5 -23.5 10.5c-8.667 0 -16.5 -3.5 -23.5 -10.5c-7 -7 -10.5 -14.833 -10.5 -23.5c0 0 0 0 0 0m40 -11c0 5.333 3 8 9 8c6 0 9 -2.667 9 -8c0 -6 -3 -9 -9 -9c-6 0 -9 3 -9 9c0 0 0 0 0 0m168 -87c5.333 -8.667 17.667 -13 37 -13c8.667 0 19.667 3.333 33 10c-6.667 -14.667 -18.333 -22 -35 -22c-20.667 0 -32.333 8.333 -35 25c0 0 0 0 0 0m23 78c0 -8 3 -14.833 9 -20.5c6 -5.667 12.667 -8.5 20 -8.5c8 0 14.833 2.833 20.5 8.5c5.667 5.667 8.5 12.5 8.5 20.5c0 7.333 -2.833 14 -8.5 20c-5.667 6 -12.5 9 -20.5 9c-7.333 0 -14 -3 -20 -9c-6 -6 -9 -12.667 -9 -20c0 0 0 0 0 0m35 -10c0 5.333 2.333 8 7 8c5.333 0 8 -2.667 8 -8c0 -4.667 -2.667 -7 -8 -7c-4.667 0 -7 2.333 -7 7c0 0 0 0 0 0" />
  </g>
</svg>