<svg height="1000px" width="617px" xmlns="http://www.w3.org/2000/svg">
  <g>
    <path d="M0 847.25c0 -50.667 19 -88 57 -112c19.333 -12.667 37.333 -22.333 54 -29c76 -32.667 116.667 -50.667 122 -54c-14 -20.667 -32 -43.333 -54 -68c-34 -40 -54 -63.667 -60 -71c-72.667 -88 -104 -170.333 -94 -247c4.667 -36.667 18.667 -67 42 -91c8.667 -9.333 22.667 -20 42 -32c24.667 -14 39.667 -22.333 45 -25c3.333 -1.333 10.833 -4.5 22.5 -9.5c11.667 -5 21.5 -9.167 29.5 -12.5c0 0 47 -21 47 -21c0 0 69 -30 69 -30c38.667 -16.667 67.333 -30 86 -40c13.333 -7.333 21.667 -5.333 25 6c0 7.333 -9 15.667 -27 25c-40.667 26.667 -62 64.667 -64 114c-0.667 19.333 1 38.5 5 57.5c4 19 8.167 34.667 12.5 47c4.333 12.333 12.833 27.667 25.5 46c12.667 18.333 21.667 30.833 27 37.5c5.333 6.667 16.833 20 34.5 40c17.667 20 28.167 32 31.5 36c4 4.667 13.667 15.5 29 32.5c15.333 17 26.333 29.5 33 37.5c6.667 8 16 20.667 28 38c12 17.333 20.667 32.667 26 46c5.333 13.333 10.5 29.5 15.5 48.5c5 19 7.5 38.5 7.5 58.5c0 25.333 -4.333 48 -13 68c-8 21.333 -17.5 38.5 -28.5 51.5c-11 13 -26.833 26.167 -47.5 39.5c-23.333 14 -41 24 -53 30c-15.333 8 -35.667 17 -61 27c-10.667 4 -22.5 9 -35.5 15c-13 6 -20.5 9.333 -22.5 10c0 0 -89 39 -89 39c0 0 -36 18 -36 18c-21.333 10.667 -38 17.667 -50 21c-56.667 14 -101 6 -133 -24c-32 -30 -48 -71 -48 -123c0 0 0 0 0 0" />
  </g>
</svg>