<svg height="1000" width="617" xmlns="http://www.w3.org/2000/svg"><path d="M0 846.321q0-76 57-112 29-19 54-29 114-49 122-54-21-31-54-68-51-60-60-71-109-132-94-247 7-55 42-91 13-14 42-32 37-21 45-25 5-2 22.5-9.5t29.5-12.5l47-21 69-30q58-25 86-40 20-11 25 6 0 11-27 25-61 40-64 114-1 29 5 57.5t12.5 47 25.5 46 27 37.5 34.5 40 31.5 36q6 7 29 32.5t33 37.5 28 38 26 46 15.5 48.5 7.5 58.5q0 38-13 68-12 32-28.5 51.5t-47.5 39.5q-35 21-53 30-23 12-61 27-16 6-35.5 15t-22.5 10l-89 39-36 18q-32 16-50 21-85 21-133-24t-48-123z"/></svg>