<svg height="1000px" width="1395px" xmlns="http://www.w3.org/2000/svg">
  <g>
    <path d="M0 565c0 -20.667 1.667 -38.5 5 -53.5c3.333 -15 10.5 -30.5 21.5 -46.5c11 -16 26.5 -28.833 46.5 -38.5c20 -9.667 47.833 -17.667 83.5 -24c35.667 -6.333 78.5 -9.5 128.5 -9.5c58.667 0 108 4.333 148 13c26 5.333 45.333 11.333 58 18c0 0 0 161 0 161c0 0 -293 0 -293 0c0 14 0.667 25.167 2 33.5c1.333 8.333 4.333 18.5 9 30.5c4.667 12 13.5 21 26.5 27c13 6 29.5 9 49.5 9c56.667 0 85 -20.333 85 -61c0 0 63 0 63 0c0 0 2 0 2 0c0 0 56 0 56 0c0 0 0 89 0 89c-18 8.667 -36.667 15 -56 19c-45.333 10 -95.333 15 -150 15c-61.333 0 -111.667 -4.167 -151 -12.5c-39.333 -8.333 -68.333 -21.333 -87 -39c-18.667 -17.667 -31.167 -36.333 -37.5 -56c-6.333 -19.667 -9.5 -44.5 -9.5 -74.5c0 0 0 0 0 0m198 -34c0 0 178 0 178 0c0 -12 -0.5 -20.833 -1.5 -26.5c-1 -5.667 -3.833 -13.5 -8.5 -23.5c-4.667 -10 -13.833 -17.333 -27.5 -22c-13.667 -4.667 -31.5 -7 -53.5 -7c-20.667 0 -37.5 2.5 -50.5 7.5c-13 5 -21.833 12.667 -26.5 23c-4.667 10.333 -7.5 18.333 -8.5 24c-1 5.667 -1.5 13.833 -1.5 24.5c0 0 0 0 0 0m293 182c0 0 0 -89 0 -89c0 0 78 0 78 0c-0.667 34 -25.333 63 -74 87c-1.333 1.333 -2.667 2 -4 2c0 0 0 0 0 0m0 0c1.333 0 2.667 -0.667 4 -2c48.667 -24 73.333 -53 74 -87c0 0 -78 0 -78 0c0 0 0 -39 0 -39c0 0 81 0 81 0c0.667 -8 1 -15.667 1 -23c0 -30 -4.333 -55.333 -13 -76c-10.667 -26 -33.667 -46.667 -69 -62c0 0 0 -183 0 -183c0 0 107 0 107 0c0 0 0 203 0 203c0 0 2 0 2 0c20.667 -29.333 50 -44 88 -44c28.667 0 51.667 8.667 69 26c-26.667 19.333 -40 53.333 -40 102c0 69.333 25.333 110 76 122c-0.667 20.667 -2.5 38.667 -5.5 54c-3 15.333 -8.167 31 -15.5 47c-7.333 16 -18.167 28.167 -32.5 36.5c-14.333 8.333 -32.167 12.5 -53.5 12.5c-42.667 0 -73 -16.667 -91 -50c0 0 -1 0 -1 0c0 0 0 42 0 42c0 0 -103 0 -103 0c0 0 0 -79 0 -79c0 0 0 0 0 0m0 -128c0 0 0 -161 0 -161c35.333 15.333 58.333 36 69 62c8.667 20.667 13 46 13 76c0 7.333 -0.333 15 -1 23c0 0 -81 0 -81 0c0 0 0 0 0 0m107 11c0 51.333 2.833 87.167 8.5 107.5c5.667 20.333 17.5 30.5 35.5 30.5c18.667 0 31 -10.167 37 -30.5c6 -20.333 9 -56.167 9 -107.5c0 0 0 -5 0 -5c0 -23.333 -0.333 -40.5 -1 -51.5c-0.667 -11 -2.333 -23.333 -5 -37c-2.667 -13.667 -7.167 -23.167 -13.5 -28.5c-6.333 -5.333 -15.167 -8 -26.5 -8c-10.667 0 -19.167 2.833 -25.5 8.5c-6.333 5.667 -10.667 15.5 -13 29.5c-2.333 14 -3.833 26.667 -4.5 38c-0.667 11.333 -1 29.333 -1 54c0 0 0 0 0 0m119 -68c0 -48.667 13.333 -82.667 40 -102c11.333 12 20 29.667 26 53c6 23.333 9.333 41.833 10 55.5c0.667 13.667 0.667 34.833 0 63.5c0 0 0 52 0 52c-50.667 -12 -76 -52.667 -76 -122c0 0 0 0 0 0m8 -159c0 -46 13.333 -77.333 40 -94c22.667 -17.333 56.333 -26 101 -26c2.667 0 19 1 49 3c0 0 107 218 107 218c0 0 0 102 0 102c0 9.333 0.667 22.333 2 39c1.333 16.667 2 28 2 34c0 0 -100 0 -100 0c0 0 -5 -52 -5 -52c0 0 -2 0 -2 0c-22 38.667 -55.333 58 -100 58c-12 0 -20.667 -0.333 -26 -1c0 0 0 -52 0 -52c0 -28.667 -0.167 -49.833 -0.5 -63.5c-0.333 -13.667 -3.5 -32.167 -9.5 -55.5c-6 -23.333 -14.667 -41 -26 -53c25.333 -19.333 70.333 -29 135 -29c0 0 24 0 24 0c0 0 0 -31 0 -31c0 -19.333 -2.833 -33.667 -8.5 -43c-5.667 -9.333 -17.5 -14 -35.5 -14c-17.333 0 -28.333 5.167 -33 15.5c-4.667 10.333 -7 25.167 -7 44.5c0 0 -107 0 -107 0c0 0 0 0 0 0m97 154c0 41.333 13.667 62 41 62c8.667 0 16.167 -1.5 22.5 -4.5c6.333 -3 11.5 -7.667 15.5 -14c4 -6.333 7.167 -12.333 9.5 -18c2.333 -5.667 3.833 -13.667 4.5 -24c0.667 -10.333 1.167 -18.167 1.5 -23.5c0.333 -5.333 0.333 -13.333 0 -24c-0.333 -10.667 -0.5 -17.333 -0.5 -20c-2.667 0 -8.333 0.167 -17 0.5c-8.667 0.333 -14.167 0.667 -16.5 1c0 0 -14 2 -14 2c0 0 -4.667 1 -14 3c-9.333 2 -12.833 3.667 -10.5 5c2.333 1.333 -0.833 4 -9.5 8c-8.667 4 -10.833 7.667 -6.5 11c4.333 3.333 2.667 8.5 -5 15.5c-7.667 7 -8 13.667 -1 20c0 0 0 0 0 0m67 -323c0 0 154 0 154 0c0 0 100 232 100 232c0 0 109 -232 109 -232c0 0 143 0 143 0c0 0 -189 359 -189 359c0 0 0 190 0 190c0 0 -141 0 -141 0c0 0 0 -190 0 -190c0 0 -43 -89 -43 -89c0 0 0 -91 0 -91c0 -36.667 -7.167 -65.5 -21.5 -86.5c-14.333 -21 -42.833 -34.5 -85.5 -40.5c0 0 -26 -52 -26 -52m26 52c42.667 6 71.167 19.5 85.5 40.5c14.333 21 21.5 49.833 21.5 86.5c0 0 0 91 0 91c0 0 -107 -218 -107 -218" />
  </g>
</svg>