<svg height="1000" width="1395" xmlns="http://www.w3.org/2000/svg"><path d="M0 565q0-31 5-53.5t21.5-46.5 46.5-38.5 83.5-24 128.5-9.5q88 0 148 13 39 8 58 18l0 161l-293 0q0 21 2 33.5t9 30.5 26.5 27 49.5 9q85 0 85-61l121 0l0 89q-27 13-56 19-68 15-150 15-92 0-151-12.5t-87-39-37.5-56-9.5-74.5zm198-34l178 0q0-18-1.5-26.5t-8.5-23.5-27.5-22-53.5-7q-31 0-50.5 7.5t-26.5 23-8.5 24-1.5 24.5zm293 182l0-89l78 0q-1 51-74 87-2 2-4 2zm0 0q2 0 4-2 73-36 74-87l-78 0l0-39l81 0q1-12 1-23 0-45-13-76-16-39-69-62l0-183l107 0l0 203l2 0q31-44 88-44 43 0 69 26-40 29-40 102 0 104 76 122-1 31-5.5 54t-15.5 47-32.5 36.5-53.5 12.5q-64 0-91-50l-1 0l0 42l-103 0l0-79zm0-128l0-161q53 23 69 62 13 31 13 76 0 11-1 23l-81 0zm107 11q0 77 8.5 107.5t35.5 30.5q28 0 37-30.5t9-107.5l0-5q0-35-1-51.5t-5-37-13.5-28.5-26.5-8q-16 0-25.5 8.5t-13 29.5-4.5 38-1 54zm119-68q0-73 40-102 17 18 26 53t10 55.5 0 63.5l0 52q-76-18-76-122zm8-159q0-69 40-94 34-26 101-26 4 0 49 3l107 218l0 102q0 14 2 39t2 34l-100 0l-5-52l-2 0q-33 58-100 58-18 0-26-1l0-52q0-43-.5-63.5t-9.5-55.5-26-53q38-29 135-29l24 0l0-31q0-29-8.5-43t-35.5-14q-26 0-33 15.5t-7 44.5l-107 0zm97 154q0 62 41 62 13 0 22.5-4.5t15.5-14 9.5-18 4.5-24 1.5-23.5 0-24-.5-20q-4 0-17 .5t-16.5 1l-14 2t-14 3-10.5 5-9.5 8-6.5 11-5 15.5-1 20zm67-323l154 0l100 232 109-232l143 0l-189 359l0 190l-141 0l0-190l-43-89l0-91q0-55-21.5-86.5t-85.5-40.5zm26 52q64 9 85.5 40.5t21.5 86.5l0 91z"/></svg>