<svg height="1000px" width="1037px" xmlns="http://www.w3.org/2000/svg">
  <g>
    <path d="M0 788c0 0 0 -576 0 -576c0 -0.667 1 -7 3 -19c0 0 339 290 339 290c0 0 -338 325 -338 325c-2.667 -9.333 -4 -16 -4 -20c0 0 0 0 0 0m45 -635c4.667 -2 10.333 -3 17 -3c0 0 913 0 913 0c6 0 12 1 18 3c0 0 -340 291 -340 291c0 0 -45 36 -45 36c0 0 -89 73 -89 73c0 0 -89 -73 -89 -73c0 0 -45 -36 -45 -36c0 0 -340 -291 -340 -291m1 694c0 0 341 -327 341 -327c0 0 132 107 132 107c0 0 132 -107 132 -107c0 0 341 327 341 327c-5.333 2 -11 3 -17 3c0 0 -913 0 -913 0c-5.333 0 -10.667 -1 -16 -3c0 0 0 0 0 0m650 -364c0 0 338 -290 338 -290c2 6 3 12.333 3 19c0 0 0 576 0 576c0 6 -1 12.667 -3 20c0 0 -338 -325 -338 -325" />
  </g>
</svg>