<svg height="1000px" width="1011px" xmlns="http://www.w3.org/2000/svg">
  <g>
    <path d="M0 841c0 0 0 -678 0 -678c0 -44 14.333 -82.167 43 -114.5c28.667 -32.333 64.667 -48.5 108 -48.5c0 0 697 0 697 0c46.667 0 85.5 12.5 116.5 37.5c31 25 46.5 60.5 46.5 106.5c0 0 0 59 0 59c-49.333 -9.333 -86.333 -16 -111 -20c-35.333 -4.667 -53.333 -7 -54 -7c-6.667 -2 -16.5 -5.333 -29.5 -10c-13 -4.667 -24.333 -8.167 -34 -10.5c-9.667 -2.333 -20.5 -3.5 -32.5 -3.5c-41.333 0 -85.333 15.667 -132 47c-22.667 2 -54.5 4.333 -95.5 7c-41 2.667 -78.333 5.667 -112 9c-33.667 3.333 -65.5 8 -95.5 14c0 0 -1 0 -1 0c0 0 -1 0 -1 0c0 0 -1 1 -1 1c0 0 -1 0 -1 0c0 0 -1 0 -1 0c0 0 -1 0 -1 0c0 0 -1 0 -1 0c0 0 -1 1 -1 1c0 0 -1 0 -1 0c-48 9.333 -77 18 -87 26c-12 10 -18.667 33.667 -20 71c0 0 0 39 0 39c0 0 0 126 0 126c0 0 -3 18 -3 18c0 0 526 13 526 13c0 0 80 -27 80 -27c-29.333 52.667 -52.667 96.667 -70 132c0 0 -106 47 -106 47c0 0 -406 7 -406 7c-2 2 -5.333 3.167 -10 3.5c-4.667 0.333 -8.333 1.833 -11 4.5c2.667 17.333 5 30.333 7 39c8 34.667 45.333 54.333 112 59c137.333 8.667 249 13 335 13c25.333 0 65.333 -6.667 120 -20c54.667 -13.333 97 -20 127 -20c43.333 0 80.333 9.667 111 29c0 0 0 54 0 54c0 103.333 -51.333 155 -154 155c0 0 -723 0 -723 0c-40.667 0 -73.167 -16 -97.5 -48c-24.333 -32 -36.5 -69 -36.5 -111c0 0 0 0 0 0m690 -546c0 -9.333 3.333 -17.5 10 -24.5c6.667 -7 14.667 -10.5 24 -10.5c9.333 0 17.5 3.5 24.5 10.5c7 7 10.5 15.167 10.5 24.5c0 9.333 -3.5 17.333 -10.5 24c-7 6.667 -15.167 10 -24.5 10c-9.333 0 -17.333 -3.333 -24 -10c-6.667 -6.667 -10 -14.667 -10 -24c0 0 0 0 0 0" />
  </g>
</svg>