<svg height="1000" width="1011" xmlns="http://www.w3.org/2000/svg"><path d="M0 841l0-678q0-66 43-114.5t108-48.5l697 0q70 0 116.5 37.5t46.5 106.5l0 59q-74-14-111-20-53-7-54-7-10-3-29.5-10t-34-10.5-32.5-3.5q-62 0-132 47-34 3-95.5 7t-112 9-95.5 14l-2 0l-1 1l-4 0l-1 1l-1 0q-72 14-87 26-18 15-20 71l0 165l-3 18 526 13 80-27q-44 79-70 132l-106 47-406 7q-3 3-10 3.5t-11 4.5q4 26 7 39 12 52 112 59 206 13 335 13 38 0 120-20t127-20q65 0 111 29l0 54q0 155-154 155l-723 0q-61 0-97.5-48t-36.5-111zm690-546q0-14 10-24.5t24-10.5 24.5 10.5 10.5 24.5-10.5 24-24.5 10-24-10-10-24z"/></svg>