<svg height="1000px" width="850.575439453125px" xmlns="http://www.w3.org/2000/svg">
  <g>
    <path d="M1.25 877c2 -20.667 6 -42.667 12 -66c7.333 -30 31.333 -146.833 72 -350.5c40.667 -203.667 64.333 -320.167 71 -349.5c8 -34.667 16 -58.833 24 -72.5c8 -13.667 21 -23.5 39 -29.5c18 -6 47 -9 87 -9c0 0 241 0 241 0c39.333 0 84.333 0.333 135 1c50.667 0.667 89.333 1 116 1c27.333 0 44 15 50 45c6.667 32 -1 62.667 -23 92c-20 26.667 -47 40 -81 40c0 0 -401 0 -401 0c0 0 -50 233 -50 233c0 0 352 3 352 3c29.333 0 47.333 15 54 45c6.667 30 -0.333 58 -21 84c-18 22 -41.333 33 -70 33c0 0 -360 0 -360 0c0 0 -48 248 -48 248c0 0 432 0 432 0c42.667 0 68.167 14.5 76.5 43.5c8.333 29 2.667 58.167 -17 87.5c-19.667 29.333 -42.167 44 -67.5 44c0 0 -553 0 -553 0c-20 0 -35.833 -5.667 -47.5 -17c-11.667 -11.333 -18.833 -26.667 -21.5 -46c-2.667 -19.333 -3 -39.333 -1 -60c0 0 0 0 0 0" />
  </g>
</svg>