<svg height="1000px" width="824px" xmlns="http://www.w3.org/2000/svg">
  <g>
    <path d="M0 499c0 -71.333 9.667 -138.667 29 -202c18.667 -61.333 46.333 -114.333 83 -159c37.333 -44.667 82.333 -78.667 135 -102c54 -24 113.333 -36 178 -36c85.333 0 157.667 20.333 217 61c60 39.333 105.333 91.667 136 157c30.667 63.333 46 128.667 46 196c0 62 -15.667 102 -47 120c-31.333 18 -75.333 27 -132 27c0 0 -423 0 -423 0c0 56.667 10 106 30 148c19.333 43.333 44.667 75.333 76 96c33.333 22 68.667 33 106 33c27.333 0 51 -3.333 71 -10c20.667 -6.667 41.333 -17.667 62 -33c20.667 -14.667 39.333 -30.333 56 -47c16.667 -16.667 38.667 -39.667 66 -69c10 -10.667 25.667 -16 47 -16c22.667 0 40.667 7 54 21c14 14 21 33.333 21 58c0 21.333 -7.667 47.333 -23 78c-14 28.667 -37.333 57 -70 85c-30.667 27.333 -69.333 50 -116 68c-47.333 18 -101 27 -161 27c-139.333 0 -247.667 -45 -325 -135c-77.333 -90.667 -116 -212.667 -116 -366c0 0 0 0 0 0m222 -78c0 0 392 0 392 0c-4.667 -83.333 -24.667 -146 -60 -188c-34 -41.333 -79.333 -62 -136 -62c-54.667 0 -99 21 -133 63c-34.667 42 -55.667 104.333 -63 187c0 0 0 0 0 0" />
  </g>
</svg>