<svg height="1000" width="837" xmlns="http://www.w3.org/2000/svg"><path d="M0 309q0-40 15-58 9-14 26-21 18-9 47-9l94 0q15 0 26-11t11-26q0-21-1-44l0-59q0-25 12-44 15-21 50-31 11-6 53-6l19 0q59 2 98 17 38 16 45 62 26-1 48-1 53 0 89 5 97 12 129 24 42 13 53 67 10 55 18 210 5 89 5 147 0 44-3 71-16 172-43 254-14 42-28 68.5t-27.5 42.5-36.5 23-42.5 8.5-58.5 1.5q-108 0-145.5-25.5t-37.5-106.5q0-45 9.5-71.5t33-37.5 46.5-13q15-1 40-1l28 0q4 0 5.5 1.5t.5 5-2.5 7.5-3 11-1.5 13q0 9 2 18.5t1 12-7 2.5l-20 0t-10 .5-10 1.5-8.5 2.5-8 4-5.5 6-4 9-1 11.5q0 14 4 23t7.5 14 18 7 22 2l32.5 0q57 0 73-13.5t16-63.5q0-76-18.5-102.5t-56.5-31.5q-88-9-119-20-53-20-53-119 0-2-2.5-2t-2.5 2q0 67-18 120l-8 24q-11 25-37 26l-6 0q-24 0-54-8-127-16-198-47-24-11-37-40-17-35-35.5-128.5t-23.5-133.5q-4-33-4-51zm6-119l0-2l183-180q0-1 1-1l-3 6q-11 20-11 48 0 22 1 103 0 10-10 10l-93 0q-34 0-59 11-5 3-9 5zm568 290q21-3 46-3 45 1 81 18 0-85-61-87l-3 0q-30 0-44 20-15 21-19 52z"/></svg>