<svg height="1000px" width="837px" xmlns="http://www.w3.org/2000/svg">
  <g>
    <path d="M0 309c0 -26.667 5 -46 15 -58c6 -9.333 14.667 -16.333 26 -21c12 -6 27.667 -9 47 -9c0 0 94 0 94 0c10 0 18.667 -3.667 26 -11c7.333 -7.333 11 -16 11 -26c0 -14 -0.333 -28.667 -1 -44c0 0 0 -59 0 -59c0 -16.667 4 -31.333 12 -44c10 -14 26.667 -24.333 50 -31c7.333 -4 25 -6 53 -6c0 0 19 0 19 0c39.333 1.333 72 7 98 17c25.333 10.667 40.333 31.333 45 62c17.333 -0.667 33.333 -1 48 -1c35.333 0 65 1.667 89 5c64.667 8 107.667 16 129 24c28 8.667 45.667 31 53 67c6.667 36.667 12.667 106.667 18 210c3.333 59.333 5 108.333 5 147c0 29.333 -1 53 -3 71c-10.667 114.667 -25 199.333 -43 254c-9.333 28 -18.667 50.833 -28 68.5c-9.333 17.667 -18.5 31.833 -27.5 42.5c-9 10.667 -21.167 18.333 -36.5 23c-15.333 4.667 -29.5 7.5 -42.5 8.5c-13 1 -32.5 1.5 -58.5 1.5c-72 0 -120.5 -8.5 -145.5 -25.5c-25 -17 -37.5 -52.5 -37.5 -106.5c0 -30 3.167 -53.833 9.5 -71.5c6.333 -17.667 17.333 -30.167 33 -37.5c15.667 -7.333 31.167 -11.667 46.5 -13c10 -0.667 23.333 -1 40 -1c0 0 28 0 28 0c2.667 0 4.5 0.5 5.5 1.5c1 1 1.167 2.667 0.5 5c-0.667 2.333 -1.5 4.833 -2.5 7.5c-1 2.667 -2 6.333 -3 11c-1 4.667 -1.5 9 -1.5 13c0 6 0.667 12.167 2 18.5c1.333 6.333 1.667 10.333 1 12c-0.667 1.667 -3 2.5 -7 2.5c0 0 -9.5 0 -9.5 0c0 0 -10.5 0 -10.5 0c0 0 -3.333 0.167 -10 0.5c-6.667 0.333 -10 0.833 -10 1.5c0 0.667 -2.833 1.5 -8.5 2.5c-5.667 1 -8.333 2.333 -8 4c0.333 1.667 -1.5 3.667 -5.5 6c-4 2.333 -5.333 5.333 -4 9c1.333 3.667 1 7.5 -1 11.5c0 9.333 1.333 17 4 23c2.667 6 5.167 10.667 7.5 14c2.333 3.333 8.333 5.667 18 7c9.667 1.333 17 2 22 2c0 0 32.5 0 32.5 0c38 0 62.333 -4.5 73 -13.5c10.667 -9 16 -30.167 16 -63.5c0 -50.667 -6.167 -84.833 -18.5 -102.5c-12.333 -17.667 -31.167 -28.167 -56.5 -31.5c-58.667 -6 -98.333 -12.667 -119 -20c-35.333 -13.333 -53 -53 -53 -119c0 -1.333 -0.833 -2 -2.5 -2c-1.667 0 -2.5 0.667 -2.5 2c0 44.667 -6 84.667 -18 120c0 0 -8 24 -8 24c-7.333 16.667 -19.667 25.333 -37 26c0 0 -6 0 -6 0c-16 0 -34 -2.667 -54 -8c-84.667 -10.667 -150.667 -26.333 -198 -47c-16 -7.333 -28.333 -20.667 -37 -40c-11.333 -23.333 -23.167 -66.167 -35.5 -128.5c-12.333 -62.333 -20.167 -106.833 -23.5 -133.5c-2.667 -22 -4 -39 -4 -51c0 0 0 0 0 0m6 -119c0 0 0 -2 0 -2c0 0 183 -180 183 -180c0 -0.667 0.333 -1 1 -1c0 0 -3 6 -3 6c-7.333 13.333 -11 29.333 -11 48c0 14.667 0.333 49 1 103c0 6.667 -3.333 10 -10 10c0 0 -93 0 -93 0c-22.667 0 -42.333 3.667 -59 11c-3.333 2 -6.333 3.667 -9 5c0 0 0 0 0 0m568 290c14 -2 29.333 -3 46 -3c30 0.667 57 6.667 81 18c0 -56.667 -20.333 -85.667 -61 -87c0 0 -3 0 -3 0c-20 0 -34.667 6.667 -44 20c-10 14 -16.333 31.333 -19 52c0 0 0 0 0 0" />
  </g>
</svg>