<svg height="1000" width="1262" xmlns="http://www.w3.org/2000/svg"><path d="M0 614l119 0q5 40 29.5 64t64.5 24q48 0 76.5-32.5t28.5-81.5q0-48-28-79t-75-31q-38 0-65 24.5t-51 24.5q-53 0-80-2 9-52 28.5-160.5t28.5-164.5l330 0l0 98l-243 0q-14 71-24 134l3 0q17-21 50.5-32t65.5-11q113 0 160 103 24-60 72-94t111-34q49 0 91 19.5t66 41.5 63 66q3 3 4.5 5t4 4.5l4.5 4.5q35-40 50-55.5t46-40.5 62-34.5 70-9.5q90 0 145 60.5t55 151.5q0 93-55 156t-147 63q-116 0-226-131-7 7-39 38.5t-42.5 39.5-37 25.5-52 23-57.5 5.5q-63 0-111-33t-74-92q-62 128-203 128-95 0-156.5-47.5t-61.5-138.5zm515-30q0 42 25.5 68t67.5 26q75 0 155-95-34-35-48-48.5t-47.5-33-63.5-19.5q-39 0-64 31t-25 71zm389 0q27 29 45.5 45.5t49 32.5 61.5 16q43 0 67.5-27.5t24.5-70.5q0-42-25.5-70t-67.5-28q-25 0-49 11.5t-36.5 21.5-37.5 36-32 33z"/></svg>