<svg height="1000px" width="1258px" xmlns="http://www.w3.org/2000/svg">
  <g>
    <path d="M-5 614c0 0 119 0 119 0c3.333 26.667 13.167 48 29.5 64c16.333 16 37.833 24 64.5 24c32 0 57.5 -10.833 76.5 -32.5c19 -21.667 28.5 -48.833 28.5 -81.5c0 -32 -9.333 -58.333 -28 -79c-18.667 -20.667 -43.667 -31 -75 -31c-25.333 0 -47 8.167 -65 24.5c-18 16.333 -35 24.5 -51 24.5c-35.333 0 -62 -0.667 -80 -2c6 -34.667 15.5 -88.167 28.5 -160.5c13 -72.333 22.5 -127.167 28.5 -164.5c0 0 330 0 330 0c0 0 0 98 0 98c0 0 -243 0 -243 0c-9.333 47.333 -17.333 92 -24 134c0 0 3 0 3 0c11.333 -14 28.167 -24.667 50.5 -32c22.333 -7.333 44.167 -11 65.5 -11c75.333 0 128.667 34.333 160 103c16 -40 40 -71.333 72 -94c32 -22.667 69 -34 111 -34c32.667 0 63 6.5 91 19.5c28 13 50 26.833 66 41.5c16 14.667 37 36.667 63 66c2 2 3.5 3.667 4.5 5c1 1.333 2.333 2.833 4 4.5c0 0 4.5 4.5 4.5 4.5c23.333 -26.667 40 -45.167 50 -55.5c10 -10.333 25.333 -23.833 46 -40.5c20.667 -16.667 41.333 -28.167 62 -34.5c20.667 -6.333 44 -9.5 70 -9.5c60 0 108.333 20.167 145 60.5c36.667 40.333 55 90.833 55 151.5c0 62 -18.333 114 -55 156c-36.667 42 -85.667 63 -147 63c-77.333 0 -152.667 -43.667 -226 -131c-4.667 4.667 -17.667 17.5 -39 38.5c-21.333 21 -35.5 34.167 -42.5 39.5c-7 5.333 -19.333 13.833 -37 25.5c-17.667 11.667 -35 19.333 -52 23c-17 3.667 -36.167 5.5 -57.5 5.5c-42 0 -79 -11 -111 -33c-32 -22 -56.667 -52.667 -74 -92c-41.333 85.333 -109 128 -203 128c-63.333 0 -115.5 -15.833 -156.5 -47.5c-41 -31.667 -61.5 -77.833 -61.5 -138.5c0 0 0 0 0 0m515 -30c0 28 8.5 50.667 25.5 68c17 17.333 39.5 26 67.5 26c50 0 101.667 -31.667 155 -95c-22.667 -23.333 -38.667 -39.5 -48 -48.5c-9.333 -9 -25.167 -20 -47.5 -33c-22.333 -13 -43.5 -19.5 -63.5 -19.5c-26 0 -47.333 10.333 -64 31c-16.667 20.667 -25 44.333 -25 71c0 0 0 0 0 0m389 0c18 19.333 33.167 34.5 45.5 45.5c12.333 11 28.667 21.833 49 32.5c20.333 10.667 40.833 16 61.5 16c28.667 0 51.167 -9.167 67.5 -27.5c16.333 -18.333 24.5 -41.833 24.5 -70.5c0 -28 -8.5 -51.333 -25.5 -70c-17 -18.667 -39.5 -28 -67.5 -28c-16.667 0 -33 3.833 -49 11.5c-16 7.667 -28.167 14.833 -36.5 21.5c-8.333 6.667 -20.833 18.667 -37.5 36c-16.667 17.333 -27.333 28.333 -32 33c0 0 0 0 0 0" />
  </g>
</svg>