<svg height="1000px" width="957px" xmlns="http://www.w3.org/2000/svg">
  <g>
    <path d="M0 887c0 0 0 -514 0 -514c0 -119.333 28.167 -212 84.5 -278c56.333 -66 142.833 -99 259.5 -99c0 0 288 0 288 0c0 0 260 0 260 0c-3.333 3.333 -20.833 21 -52.5 53c-31.667 32 -65 65.667 -100 101c-35 35.333 -71.333 71.833 -109 109.5c-37.667 37.667 -69.333 68.667 -95 93c-25.667 24.333 -39.5 36.5 -41.5 36.5c-10 0 -15 -5.333 -15 -16c0 0 0 -156 0 -156c0 0 -48 0 -48 0c-39.333 0 -70.833 2.167 -94.5 6.5c-23.667 4.333 -44.667 13 -63 26c-18.333 13 -31.333 31.833 -39 56.5c-7.667 24.667 -11.5 56.667 -11.5 96c0 0 0 262 0 262c0 0 -223 223 -223 223m67 117c3.333 -3.333 20.833 -21 52.5 -53c31.667 -32 65 -65.667 100 -101c35 -35.333 71.333 -71.833 109 -109.5c37.667 -37.667 69.333 -68.667 95 -93c25.667 -24.333 39.5 -36.5 41.5 -36.5c10 0 15 5.333 15 16c0 0 0 156 0 156c0 0 48 0 48 0c77.333 0 131.167 -11.833 161.5 -35.5c30.333 -23.667 45.5 -73.5 45.5 -149.5c0 0 0 -262 0 -262c0 0 224 -223 224 -223c0 0 0 514 0 514c0 119.333 -28.167 212 -84.5 278c-56.333 66 -142.833 99 -259.5 99c0 0 -288 0 -288 0c0 0 -260 0 -260 0c0 0 0 0 0 0" />
  </g>
</svg>