<svg height="1000px" width="1052px" xmlns="http://www.w3.org/2000/svg">
  <g>
    <path d="M0 500c0 -69.333 24.333 -128.333 73 -177c48.667 -48.667 107.667 -73 177 -73c69.333 0 128.333 24.333 177 73c48.667 48.667 73 107.667 73 177c0 69.333 -24.333 128.333 -73 177c-48.667 48.667 -107.667 73 -177 73c-69.333 0 -128.333 -24.333 -177 -73c-48.667 -48.667 -73 -107.667 -73 -177c0 0 0 0 0 0m552 0c0 -69.333 24.333 -128.333 73 -177c48.667 -48.667 107.667 -73 177 -73c69.333 0 128.333 24.333 177 73c48.667 48.667 73 107.667 73 177c0 69.333 -24.333 128.333 -73 177c-48.667 48.667 -107.667 73 -177 73c-69.333 0 -128.333 -24.333 -177 -73c-48.667 -48.667 -73 -107.667 -73 -177c0 0 0 0 0 0" />
  </g>
</svg>