<svg height="1000px" width="1169px" xmlns="http://www.w3.org/2000/svg">
  <g>
    <path d="M0 440c0 -70 25.5 -129.833 76.5 -179.5c51 -49.667 112.5 -74.5 184.5 -74.5c56.667 0 107.5 16 152.5 48c45 32 76.5 73.333 94.5 124c0 0 66 -64 66 -64c0 0 158 152 158 152c0 0 437 -446 437 -446c0 0 0 405 0 405c0 0 -267 206 -267 206c0 0 34 36 34 36c0 0 -363 353 -363 353c0 0 -316 -307 -316 -307c-71.333 -1.333 -132 -26.667 -182 -76c-50 -49.333 -75 -108.333 -75 -177c0 0 0 0 0 0m37 0c0 60 21.667 111 65 153c43.333 42 95.667 63 157 63c22 0 43.667 -3 65 -9c0 0 220 195 220 195c0 0 585 -460 585 -460c0 0 1 -302 1 -302c0 0 -578 596 -578 596c0 0 -90 -146 -90 -146c13.333 -28.667 20 -58.667 20 -90c0 -59.333 -21.833 -110.167 -65.5 -152.5c-43.667 -42.333 -96.167 -63.5 -157.5 -63.5c-61.333 0 -113.667 21.167 -157 63.5c-43.333 42.333 -65 93.167 -65 152.5c0 0 0 0 0 0m48 2c0 -46.667 16.5 -86.5 49.5 -119.5c33 -33 72.833 -49.5 119.5 -49.5c46.667 0 86.5 16.333 119.5 49c33 32.667 49.5 72.667 49.5 120c0 46.667 -16.5 86.5 -49.5 119.5c-33 33 -72.833 49.5 -119.5 49.5c-46.667 0 -86.5 -16.5 -119.5 -49.5c-33 -33 -49.5 -72.833 -49.5 -119.5c0 0 0 0 0 0" />
  </g>
</svg>