<svg height="1000px" width="939px" xmlns="http://www.w3.org/2000/svg">
  <g>
    <path d="M0 847c0 42 20.667 78 62 108c41.333 30 91.333 45 150 45c58.667 0 108.833 -15 150.5 -45c41.667 -30 62.5 -66 62.5 -108c0 -42.667 -20.833 -79 -62.5 -109c-41.667 -30 -91.833 -45 -150.5 -45c-0.667 0 -1.667 0.167 -3 0.5c-1.333 0.333 -2.333 0.5 -3 0.5c-16 -14.667 -24 -30.5 -24 -47.5c0 -17 8 -34.833 24 -53.5c47.333 -2.667 87.333 -21 120 -55c32.667 -34 49 -74.333 49 -121c0 -18.667 -2.333 -35.333 -7 -50c18.667 -3.333 33.333 -8 44 -14c0 0 0 -115 0 -115c-32 21.333 -68.333 32 -109 32c0 0 -7 0 -7 0c-30.667 -20.667 -64.333 -31 -101 -31c-50 0 -92.667 17.333 -128 52c-35.333 34.667 -53 76.667 -53 126c0 31.333 8 60.333 24 87c16 26.667 37.333 48 64 64c-18.667 24 -28 48.667 -28 74c0 24 8.667 49 26 75c-30.667 14 -55 32.333 -73 55c-18 22.667 -27 47.667 -27 75c0 0 0 0 0 0m121 -432c0 -22 7.167 -40.833 21.5 -56.5c14.333 -15.667 31.167 -23.5 50.5 -23.5c20 0 37 7.833 51 23.5c14 15.667 21 34.5 21 56.5c0 22 -7 40.833 -21 56.5c-14 15.667 -31 23.5 -51 23.5c-19.333 0 -36.167 -7.833 -50.5 -23.5c-14.333 -15.667 -21.5 -34.5 -21.5 -56.5c0 0 0 0 0 0m3 432c0 -18 8.5 -33.167 25.5 -45.5c17 -12.333 37.833 -18.5 62.5 -18.5c24.667 0 45.667 6.167 63 18.5c17.333 12.333 26 27.5 26 45.5c0 17.333 -8.667 32.333 -26 45c-17.333 12.667 -38.333 19 -63 19c-24.667 0 -45.5 -6.333 -62.5 -19c-17 -12.667 -25.5 -27.667 -25.5 -45c0 0 0 0 0 0m331 -766c0 -22.667 7.833 -41.833 23.5 -57.5c15.667 -15.667 34.833 -23.5 57.5 -23.5c22.667 0 42 7.833 58 23.5c16 15.667 24 34.833 24 57.5c0 22.667 -8 42 -24 58c-16 16 -35.333 24 -58 24c-22.667 0 -41.833 -8 -57.5 -24c-15.667 -16 -23.5 -35.333 -23.5 -58c0 0 0 0 0 0m19 647c0 0 0 -479 0 -479c0 0 134 0 134 0c0 0 0 479 0 479c0 0 -134 0 -134 0c0 0 0 0 0 0m181 -377c0 0 55 0 55 0c0 0 0 284 0 284c0 0 0 1 0 1c2.667 20 9.167 37.167 19.5 51.5c10.333 14.333 21.833 24.833 34.5 31.5c12.667 6.667 25.167 12 37.5 16c12.333 4 22.5 6.333 30.5 7c0 0 13 0 13 0c0 0 7 0 7 0c18 0 34 -2.667 48 -8c15.333 -5.333 25.333 -10.667 30 -16c0 0 7 -9 7 -9c0 0 2 -99 2 -99c-28 8.667 -49.667 13 -65 13c-3.333 0 -6.333 -0.333 -9 -1c-15.333 -2 -24.333 -7.333 -27 -16c0 0 -4 -13 -4 -13c0 -2 -0.333 -3.333 -1 -4c0 0 0 -238 0 -238c0 0 91 0 91 0c0 0 0 -102 0 -102c0 0 -91 0 -91 0c0 0 0 -93 0 -93c0 0 -123 0 -123 0c0 0 0 93 0 93c0 0 -55 0 -55 0c0 0 0 102 0 102c0 0 0 0 0 0" />
  </g>
</svg>