<svg height="1000" width="939" xmlns="http://www.w3.org/2000/svg"><path d="M0 847q0 63 62 108t150 45 150.5-45 62.5-108q0-64-62.5-109t-150.5-45q-1 0-3 .5t-3 .5q-24-22-24-47.5t24-53.5q71-4 120-55t49-121q0-28-7-50 28-5 44-14l0-115q-48 32-109 32l-7 0q-46-31-101-31-75 0-128 52t-53 126q0 47 24 87t64 64q-28 36-28 74 0 36 26 75-46 21-73 55t-27 75zm121-432q0-33 21.5-56.5t50.5-23.5q30 0 51 23.5t21 56.5-21 56.5-51 23.5q-29 0-50.5-23.5t-21.5-56.5zm3 432q0-27 25.5-45.5t62.5-18.5 63 18.5 26 45.5q0 26-26 45t-63 19-62.5-19-25.5-45zm331-766q0-34 23.5-57.5t57.5-23.5 58 23.5 24 57.5-24 58-58 24-57.5-24-23.5-58zm19 647l0-479l134 0l0 479l-134 0zm181-377l55 0l0 285q4 30 19.5 51.5t34.5 31.5 37.5 16 30.5 7l20 0q27 0 48-8 23-8 30-16l7-9 2-99q-42 13-65 13-5 0-9-1-23-3-27-16l-4-13q0-3-1-4l0-238l91 0l0-102l-91 0l0-93l-123 0l0 93l-55 0l0 102z"/></svg>