<svg height="1000px" width="1202px" xmlns="http://www.w3.org/2000/svg">
  <g>
    <path d="M0 947c0 0 0 -897 0 -897c0 0 185 0 185 0c0 0 9 8 9 8c0 0 825 0 825 0c0 0 9 -8 9 -8c0 0 174 0 174 0c0 0 0 900 0 900c0 0 -171 0 -171 0c0 0 0 -7 0 -7c0 0 -855 0 -855 0c0 0 0 4 0 4c0 0 -176 0 -176 0c0 0 0 0 0 0m176 -132c0 0 0 80 0 80c0 0 855 0 855 0c0 0 0 -74 0 -74c0 0 -345 -259 -345 -259c0 0 -79 65 -79 65c0 0 -86 -70 -86 -70c0 0 -345 258 -345 258m0 -60c0 0 307 -229 307 -229c0 0 -307 -252 -307 -252c0 0 0 481 0 481c0 0 0 0 0 0m83 -641c0 0 348 298 348 298c0 0 347 -298 347 -298c0 0 -695 0 -695 0c0 0 0 0 0 0m465 417c0 0 307 230 307 230c0 0 0 -484 0 -484c0 0 -307 254 -307 254" />
  </g>
</svg>