<svg height="1000px" width="866px" xmlns="http://www.w3.org/2000/svg">
  <g>
    <path d="M0 996c0 0 0 -496 0 -496c0 0 0 -496 0 -496c0 0 501 496 501 496c0 0 -501 496 -501 496m0 0c0 0 501 -496 501 -496c0 0 134 133 134 133c0 0 -202 117 -202 117c0 0 -433 250 -433 250c0 0 0 -4 0 -4c0 0 0 0 0 0m0 -992c0 0 0 -4 0 -4c0 0 433 250 433 250c0 0 202 117 202 117c0 0 -134 133 -134 133c0 0 -501 -496 -501 -496m501 496c0 0 134 -133 134 -133c0 0 231 133 231 133c0 0 -231 133 -231 133c0 0 -134 -133 -134 -133" />
  </g>
</svg>