<svg height="1000px" width="764px" xmlns="http://www.w3.org/2000/svg">
  <g>
    <path d="M0 512c0 0 0 -103 0 -103c0 -58 28.667 -124.667 86 -200c57.333 -75.333 114.333 -128.667 171 -160c52 -29.333 114.333 -44 187 -44c29.333 0 58.833 3.333 88.5 10c29.667 6.667 58.167 17 85.5 31c27.333 14 49.5 33.333 66.5 58c17 24.667 25.5 53 25.5 85c0 8.667 -0.667 16.833 -2 24.5c-1.333 7.667 -3.667 15.667 -7 24c-3.333 8.333 -6.333 15.333 -9 21c-2.667 5.667 -7.333 12.667 -14 21c-6.667 8.333 -11.333 14.5 -14 18.5c-2.667 4 -8.5 10.5 -17.5 19.5c-9 9 -14.5 14.667 -16.5 17c-2 2.333 -8.167 8.167 -18.5 17.5c-10.333 9.333 -16.167 14.667 -17.5 16c0 0 53 0 53 0c0 0 115 0 115 0c1.333 48 2 84 2 108c0 168.667 -14 277.333 -42 326c-23.333 40.667 -54.833 76.667 -94.5 108c-39.667 31.333 -82.167 54.667 -127.5 70c-26 10 -44.667 15 -56 15c0 0 -84 0 -84 0c-2 0 -18 -5.667 -48 -17c-80 -35.333 -120 -93.333 -120 -174c0 -2.667 0.167 -6.333 0.5 -11c0.333 -4.667 0.5 -8 0.5 -10c-89.333 -46 -149.333 -117.667 -180 -215c-8.667 -28 -13 -46.667 -13 -56c0 0 0 0 0 0m146 -130c0 26.667 3.167 53.667 9.5 81c6.333 27.333 15.833 53.667 28.5 79c12.667 25.333 30.167 46 52.5 62c22.333 16 47.833 24 76.5 24c8 0 21.167 -5 39.5 -15c18.333 -10 34.833 -15 49.5 -15c9.333 0 26.333 3.5 51 10.5c24.667 7 37 13.5 37 19.5c0 14 -8.667 21 -26 21c-86.667 0 -130 25.333 -130 76c0 38.667 14 67.833 42 87.5c28 19.667 62.333 29.5 103 29.5c31.333 0 62 -5.5 92 -16.5c30 -11 54.333 -27.5 73 -49.5c28 -33.333 42 -88 42 -164c0 -12.667 -0.333 -31.167 -1 -55.5c-0.667 -24.333 -1 -42.5 -1 -54.5c0 -32 1.667 -58.667 5 -80c0 0 -193 0 -193 0c-0.667 5.333 -1 13 -1 23c0 7.333 0.333 18.667 1 34c0.667 15.333 1 27 1 35c0 23.333 -2.667 42 -8 56c-3.333 0.667 -9 1 -17 1c-32 0 -58.667 -10.833 -80 -32.5c-21.333 -21.667 -36 -46.5 -44 -74.5c-8 -28 -12 -57.667 -12 -89c0 -30 3.833 -60.333 11.5 -91c7.667 -30.667 22 -58.667 43 -84c21 -25.333 46.833 -38 77.5 -38c6.667 0 13.667 1 21 3c-2.667 14.667 -4 26 -4 34c0 23.333 6.333 42.667 19 58c12.667 15.333 30.333 23 53 23c22.667 0 41.667 -7.667 57 -23c15.333 -15.333 23 -34.667 23 -58c0 -27.333 -10.333 -50.667 -31 -70c-20.667 -19.333 -44 -32.667 -70 -40c-26 -7.333 -52.333 -11 -79 -11c-90 0 -164.333 28.333 -223 85c-58.667 56.667 -88 129.667 -88 219c0 0 0 0 0 0" />
  </g>
</svg>