<svg height="1000" width="764" xmlns="http://www.w3.org/2000/svg"><path d="M0 512l0-103q0-87 86-200t171-160q78-44 187-44 44 0 88.5 10t85.5 31 66.5 58 25.5 85q0 13-2 24.5t-7 24-9 21-14 21-14 18.5-17.5 19.5-16.5 17-18.5 17.5-17.5 16l168 0q2 72 2 108 0 253-42 326-35 61-94.5 108t-127.5 70q-39 15-56 15l-84 0q-3 0-48-17-120-53-120-174 0-4 .5-11t.5-10q-134-69-180-215-13-42-13-56zm146-130q0 40 9.5 81t28.5 79 52.5 62 76.5 24q12 0 39.5-15t49.5-15q14 0 51 10.5t37 19.5q0 21-26 21-130 0-130 76 0 58 42 87.5t103 29.5q47 0 92-16.5t73-49.5q42-50 42-164 0-19-1-55.5t-1-54.5q0-48 5-80l-193 0q-1 8-1 23 0 11 1 34t1 35q0 35-8 56-5 1-17 1-48 0-80-32.5t-44-74.5-12-89q0-45 11.5-91t43-84 77.5-38q10 0 21 3-4 22-4 34 0 35 19 58t53 23 57-23 23-58q0-41-31-70t-70-40-79-11q-135 0-223 85t-88 219z"/></svg>