<svg height="1000px" width="1184px" xmlns="http://www.w3.org/2000/svg">
  <g>
    <path d="M0 818c0 -58 29.667 -109.667 89 -155c59.333 -45.333 131 -68 215 -68c0 0 54 0 54 0c-28 -26.667 -42 -55.333 -42 -86c0 -19.333 5.333 -38.667 16 -58c-6.667 0.667 -16.333 1 -29 1c-69.333 0 -126 -21.667 -170 -65c-44 -43.333 -66 -96.667 -66 -160c0 -60.667 27.333 -113.667 82 -159c54.667 -45.333 117 -68 187 -68c0 0 310 0 310 0c0 0 -69 50 -69 50c0 0 -98 0 -98 0c31.333 12 55.833 34.667 73.5 68c17.667 33.333 26.5 70.333 26.5 111c0 62 -29.333 116 -88 162c-24.667 19.333 -40.667 34.667 -48 46c-7.333 11.333 -11 25.333 -11 42c0 12.667 9 28.667 27 48c18 19.333 36 35.667 54 49c40.667 28.667 68.833 58 84.5 88c15.667 30 23.5 67.667 23.5 113c0 60 -27.333 112.167 -82 156.5c-54.667 44.333 -128.667 66.5 -222 66.5c-88.667 0 -163.667 -16.667 -225 -50c-61.333 -33.333 -92 -77.333 -92 -132c0 0 0 0 0 0m112 -33c0 46 19.5 85.167 58.5 117.5c39 32.333 87.5 48.5 145.5 48.5c79.333 0 136.833 -14.667 172.5 -44c35.667 -29.333 53.5 -68.333 53.5 -117c0 -12.667 -1.333 -23.333 -4 -32c-2 -7.333 -4.333 -14.167 -7 -20.5c-2.667 -6.333 -6.667 -12.667 -12 -19c-5.333 -6.333 -10 -11.667 -14 -16c-4 -4.333 -10.5 -9.833 -19.5 -16.5c-9 -6.667 -15.833 -11.667 -20.5 -15c-4.667 -3.333 -13 -9.167 -25 -17.5c-12 -8.333 -20.667 -14.167 -26 -17.5c-26 -8 -51.667 -12 -77 -12c-60 -0.667 -112.5 15 -157.5 47c-45 32 -67.5 70 -67.5 114c0 0 0 0 0 0m66 -559c7.333 52.667 27.5 98 60.5 136c33 38 69.5 57.333 109.5 58c39.333 1.333 70.667 -16 94 -52c23.333 -36 31.667 -80.333 25 -133c-6.667 -52.667 -26.5 -97.333 -59.5 -134c-33 -36.667 -69.5 -55.667 -109.5 -57c-40 -1.333 -71.667 15.667 -95 51c-23.333 35.333 -31.667 79 -25 131c0 0 0 0 0 0m555 24c0 0 0 -50 0 -50c0 0 200 0 200 0c0 0 0 -200 0 -200c0 0 50 0 50 0c0 0 0 200 0 200c0 0 201 0 201 0c0 0 0 50 0 50c0 0 -201 0 -201 0c0 0 0 201 0 201c0 0 -50 0 -50 0c0 0 0 -201 0 -201c0 0 -200 0 -200 0c0 0 0 0 0 0" />
  </g>
</svg>