<svg height="1000" width="1000" xmlns="http://www.w3.org/2000/svg"><path d="M0 500q0-136 67-251t182-182 251-67 251 67 182 182 67 251-67 251-182 182-251 67-251-67-182-182-67-251zm129 0q0 65 36 77 5 2 17 4 42 1 85-40 41-36 58-90 25-77 10-200-2-12-2-17-3-6 0-9 1-3 13 1 38 10 78 29 46 21 102 70 45 39 87 89 33 39 80 104 41 57 88 77 29 10 47.5 7t29-20 15-37 4.5-45q0-48-12-96-3-12-8-28-14-43-41-84-52-79-135.5-124t-177.5-45q-66 0-125 22-80 28-140.5 89t-88.5 142q-1 5-4 14.5t-5 13.5q-12 50-11 96z"/></svg>