<svg height="1000px" width="1000px" xmlns="http://www.w3.org/2000/svg">
  <g>
    <path d="M0 500c0 -90.667 22.333 -174.333 67 -251c44.667 -76.667 105.333 -137.333 182 -182c76.667 -44.667 160.333 -67 251 -67c90.667 0 174.333 22.333 251 67c76.667 44.667 137.333 105.333 182 182c44.667 76.667 67 160.333 67 251c0 90.667 -22.333 174.333 -67 251c-44.667 76.667 -105.333 137.333 -182 182c-76.667 44.667 -160.333 67 -251 67c-90.667 0 -174.333 -22.333 -251 -67c-76.667 -44.667 -137.333 -105.333 -182 -182c-44.667 -76.667 -67 -160.333 -67 -251c0 0 0 0 0 0m129 0c0 43.333 12 69 36 77c3.333 1.333 9 2.667 17 4c28 0.667 56.333 -12.667 85 -40c27.333 -24 46.667 -54 58 -90c16.667 -51.333 20 -118 10 -200c-1.333 -8 -2 -13.667 -2 -17c-2 -4 -2 -7 0 -9c0.667 -2 5 -1.667 13 1c25.333 6.667 51.333 16.333 78 29c30.667 14 64.667 37.333 102 70c30 26 59 55.667 87 89c22 26 48.667 60.667 80 104c27.333 38 56.667 63.667 88 77c19.333 6.667 35.167 9 47.5 7c12.333 -2 22 -8.667 29 -20c7 -11.333 12 -23.667 15 -37c3 -13.333 4.5 -28.333 4.5 -45c0 -32 -4 -64 -12 -96c-2 -8 -4.667 -17.333 -8 -28c-9.333 -28.667 -23 -56.667 -41 -84c-34.667 -52.667 -79.833 -94 -135.5 -124c-55.667 -30 -114.833 -45 -177.5 -45c-44 0 -85.667 7.333 -125 22c-53.333 18.667 -100.167 48.333 -140.5 89c-40.333 40.667 -69.833 88 -88.5 142c-0.667 3.333 -2 8.167 -4 14.5c-2 6.333 -3.667 10.833 -5 13.5c-8 33.333 -11.667 65.333 -11 96c0 0 0 0 0 0" />
  </g>
</svg>