<svg height="1000px" width="760px" xmlns="http://www.w3.org/2000/svg">
  <g>
    <path d="M0 742c0 -14.667 4 -36 12 -64c15.333 -58 44.167 -110.667 86.5 -158c42.333 -47.333 91.5 -81.667 147.5 -103c-52.667 -42 -79 -95.667 -79 -161c0 -57.333 20.833 -106 62.5 -146c41.667 -40 91.167 -60 148.5 -60c57.333 0 106.833 20 148.5 60c41.667 40 62.5 88.667 62.5 146c0 64.667 -25.667 118 -77 160c70.667 25.333 129.667 67.667 177 127c47.333 59.333 71 125.333 71 198c0 61.333 -24.333 96.667 -73 106c-2 6.667 -6.333 15.333 -13 26c-4 10.667 -11.833 20.167 -23.5 28.5c-11.667 8.333 -27.833 15.167 -48.5 20.5c-20.667 5.333 -37.167 9.333 -49.5 12c-12.333 2.667 -31.167 5.667 -56.5 9c-25.333 3.333 -38.333 5 -39 5c-1.333 0 -3.667 0.333 -7 1c-3.333 0.667 -5.667 1 -7 1c0 0 -120 0 -120 0c-34 0 -77 -5.5 -129 -16.5c-52 -11 -81.667 -25.833 -89 -44.5c-11.333 -11.333 -19.667 -25.333 -25 -42c-16.667 -3.333 -30.667 -10.333 -42 -21c-25.333 -10 -38 -38 -38 -84c0 0 0 0 0 0" />
  </g>
</svg>