<svg height="1000px" width="699px" xmlns="http://www.w3.org/2000/svg">
  <g>
    <path d="M0 201c0 0 699 0 699 0c0 0 -66 710 -66 710c0 0 -284 81 -284 81c0 0 -284 -81 -284 -81c0 0 -65 -710 -65 -710m65 -60c0 0 0 -133 0 -133c0 0 45 0 45 0c0 0 0 44 0 44c0 0 40 0 40 0c0 0 0 -44 0 -44c0 0 44 0 44 0c0 0 0 133 0 133c0 0 -44 0 -44 0c0 0 0 -44 0 -44c0 0 -40 0 -40 0c0 0 0 44 0 44c0 0 -45 0 -45 0c0 0 0 0 0 0m65 205c0 0 24 266 24 266c0 0 1 -2 1 -2c0 0 300 0 300 0c0 0 -10 113 -10 113c0 0 -96 27 -96 27c0 0 -97 -28 -97 -28c0 0 -6 -68 -6 -68c0 0 -88 0 -88 0c0 0 12 136 12 136c0 0 179 51 179 51c0 0 179 -51 179 -51c0 0 25 -267 25 -267c0 0 -319 0 -319 0c0 0 -8 -89 -8 -89c0 0 335 0 335 0c0 0 8 -88 8 -88c0 0 -439 0 -439 0c0 0 0 0 0 0m84 -293c0 0 0 -45 0 -45c0 0 122 0 122 0c0 0 0 45 0 45c0 0 -39 0 -39 0c0 0 0 88 0 88c0 0 -44 0 -44 0c0 0 0 -88 0 -88c0 0 -39 0 -39 0c0 0 0 0 0 0m141 88c0 0 0 -133 0 -133c0 0 47 0 47 0c0 0 27 46 27 46c0 0 28 -46 28 -46c0 0 47 0 47 0c0 0 0 133 0 133c0 0 -43 0 -43 0c0 0 0 -68 0 -68c0 0 -32 50 -32 50c0 0 0 -1 0 -1c0 0 -30 -47 -30 -47c0 0 0 66 0 66c0 0 -44 0 -44 0c0 0 0 0 0 0m172 0c0 0 0 -133 0 -133c0 0 44 0 44 0c0 0 0 88 0 88c0 0 62 0 62 0c0 0 0 45 0 45c0 0 -106 0 -106 0c0 0 0 0 0 0" />
  </g>
</svg>