<svg height="1000" width="943" xmlns="http://www.w3.org/2000/svg"><path d="M.692 852.443q-3-35.5 7-59.5 39-140 92-239 114-216 313-352l0-14q-59 25-118.5 65.5t-102 81-76 77.5-50.5 60l-17 23q-2-59 16-115t45-94 54.5-67 46.5-43l19-13q4-2 10.5-5.5t27.5-13.5 43.5-18.5 55-17 64-12 70-2 73.5 11.5q64-47 128.5-73t97.5-29l33-3q50-5 77.5 16.5t31 55-.5 68-12 59.5l-9 24-5-5q21-57 20.5-93.5t-17.5-56.5-36.5-29-36.5-10l-16-2q-4 0-11.5.5t-32 5-49 12.5-60.5 25-69 41q69 11 123 42t86 70.5 54.5 85 31 88.5 13 78 3.5 56l-1 22l-557 0q-3 42 10.5 73t34 45.5 41 22.5 35.5 9l15 1q4 0 11.5-.5t26.5-5.5 34.5-14 31-28.5 21.5-46.5l292 0q-16 59-47 107t-68 77.5-78 51-78.5 31.5-68 16-48.5 7l-19 0q-78 0-107-6-60 47-126.5 73.5t-103.5 29.5l-36 3q-46 0-77.5-23.5t-41.5-56-13-68zm75.5-5.5q-.5 24 2.5 42.5t8 28.5l4 9q4 3 11 8t33.5 13.5 57 8 82-16.5 107.5-50q-8-2-21.5-5.5t-50.5-18-69-31.5-66.5-47.5-53.5-64.5q-22 34-33 67t-11.5 57zm282.5-424l265 0q1-36-11.5-63t-32-39-38.5-19-33-8l-14-1q-6 0-15 1t-33 8-42 19-32.5 39-13.5 63z"/></svg>