<svg height="1000px" width="942.1333332061768px" xmlns="http://www.w3.org/2000/svg">
  <g>
    <path d="M0 852c-2 -23.667 0.333 -43.5 7 -59.5c26 -93.333 56.667 -173 92 -239c76 -144 180.333 -261.333 313 -352c0 0 0 -14 0 -14c-39.333 16.667 -78.833 38.5 -118.5 65.5c-39.667 27 -73.667 54 -102 81c-28.333 27 -53.667 52.833 -76 77.5c-22.333 24.667 -39.167 44.667 -50.5 60c0 0 -17 23 -17 23c-1.333 -39.333 4 -77.667 16 -115c12 -37.333 27 -68.667 45 -94c18 -25.333 36.167 -47.667 54.5 -67c18.333 -19.333 33.833 -33.667 46.5 -43c0 0 19 -13 19 -13c2.667 -1.333 6.167 -3.167 10.5 -5.5c4.333 -2.333 13.5 -6.833 27.5 -13.5c14 -6.667 28.5 -12.833 43.5 -18.5c15 -5.667 33.333 -11.333 55 -17c21.667 -5.667 43 -9.667 64 -12c21 -2.333 44.333 -3 70 -2c25.667 1 50.167 4.833 73.5 11.5c42.667 -31.333 85.5 -55.667 128.5 -73c43 -17.333 75.5 -27 97.5 -29c0 0 33 -3 33 -3c33.333 -3.333 59.167 2.167 77.5 16.5c18.333 14.333 28.667 32.667 31 55c2.333 22.333 2.167 45 -0.5 68c-2.667 23 -6.667 42.833 -12 59.5c0 0 -9 24 -9 24c0 0 -5 -5 -5 -5c14 -38 20.833 -69.167 20.5 -93.5c-0.333 -24.333 -6.167 -43.167 -17.5 -56.5c-11.333 -13.333 -23.5 -23 -36.5 -29c-13 -6 -25.167 -9.333 -36.5 -10c0 0 -16 -2 -16 -2c-2.667 0 -6.5 0.167 -11.5 0.5c-5 0.333 -15.667 2 -32 5c-16.333 3 -32.667 7.167 -49 12.5c-16.333 5.333 -36.5 13.667 -60.5 25c-24 11.333 -47 25 -69 41c46 7.333 87 21.333 123 42c36 20.667 64.667 44.167 86 70.5c21.333 26.333 39.5 54.667 54.5 85c15 30.333 25.333 59.833 31 88.5c5.667 28.667 10 54.667 13 78c3 23.333 4.167 42 3.5 56c0 0 -1 22 -1 22c0 0 -557 0 -557 0c-2 28 1.5 52.333 10.5 73c9 20.667 20.333 35.833 34 45.5c13.667 9.667 27.333 17.167 41 22.5c13.667 5.333 25.5 8.333 35.5 9c0 0 15 1 15 1c2.667 0 6.5 -0.167 11.5 -0.5c5 -0.333 13.833 -2.167 26.5 -5.5c12.667 -3.333 24.167 -8 34.5 -14c10.333 -6 20.667 -15.5 31 -28.5c10.333 -13 17.5 -28.5 21.5 -46.5c0 0 292 0 292 0c-10.667 39.333 -26.333 75 -47 107c-20.667 32 -43.333 57.833 -68 77.5c-24.667 19.667 -50.667 36.667 -78 51c-27.333 14.333 -53.5 24.833 -78.5 31.5c-25 6.667 -47.667 12 -68 16c-20.333 4 -36.5 6.333 -48.5 7c0 0 -19 0 -19 0c-52 0 -87.667 -2 -107 -6c-40 31.333 -82.167 55.833 -126.5 73.5c-44.333 17.667 -78.833 27.5 -103.5 29.5c0 0 -36 3 -36 3c-30.667 0 -56.5 -7.833 -77.5 -23.5c-21 -15.667 -34.833 -34.333 -41.5 -56c-6.667 -21.667 -11 -44.333 -13 -68c0 0 0 0 0 0m75.5 -5.5c-0.333 16 0.5 30.167 2.5 42.5c2 12.333 4.667 21.833 8 28.5c0 0 4 9 4 9c2.667 2 6.333 4.667 11 8c4.667 3.333 15.833 7.833 33.5 13.5c17.667 5.667 36.667 8.333 57 8c20.333 -0.333 47.667 -5.833 82 -16.5c34.333 -10.667 70.167 -27.333 107.5 -50c-5.333 -1.333 -12.5 -3.167 -21.5 -5.5c-9 -2.333 -25.833 -8.333 -50.5 -18c-24.667 -9.667 -47.667 -20.167 -69 -31.5c-21.333 -11.333 -43.5 -27.167 -66.5 -47.5c-23 -20.333 -40.833 -41.833 -53.5 -64.5c-14.667 22.667 -25.667 45 -33 67c-7.333 22 -11.167 41 -11.5 57c0 0 0 0 0 0m282.5 -424c0 0 265 0 265 0c0.667 -24 -3.167 -45 -11.5 -63c-8.333 -18 -19 -31 -32 -39c-13 -8 -25.833 -14.333 -38.5 -19c-12.667 -4.667 -23.667 -7.333 -33 -8c0 0 -14 -1 -14 -1c-4 0 -9 0.333 -15 1c-6 0.667 -17 3.333 -33 8c-16 4.667 -30 11 -42 19c-12 8 -22.833 21 -32.5 39c-9.667 18 -14.167 39 -13.5 63c0 0 0 0 0 0" />
  </g>
</svg>