<svg height="1000px" width="1000px" xmlns="http://www.w3.org/2000/svg">
  <g>
    <path d="M0 900c0 0 0 -800 0 -800c0 -27.333 9.833 -50.833 29.5 -70.5c19.667 -19.667 43.167 -29.5 70.5 -29.5c0 0 800 0 800 0c27.333 0 50.833 9.833 70.5 29.5c19.667 19.667 29.5 43.167 29.5 70.5c0 0 0 800 0 800c0 27.333 -9.833 50.833 -29.5 70.5c-19.667 19.667 -43.167 29.5 -70.5 29.5c0 0 -800 0 -800 0c-27.333 0 -50.833 -9.833 -70.5 -29.5c-19.667 -19.667 -29.5 -43.167 -29.5 -70.5c0 0 0 0 0 0m200 -400c0 82.667 29.333 153.333 88 212c58.667 58.667 129.333 88 212 88c82.667 0 153.333 -29.333 212 -88c58.667 -58.667 88 -129.333 88 -212c0 -82.667 -29.333 -153.333 -88 -212c-58.667 -58.667 -129.333 -88 -212 -88c-82.667 0 -153.333 29.333 -212 88c-58.667 58.667 -88 129.333 -88 212c0 0 0 0 0 0m100 0c0 -54.667 19.667 -101.667 59 -141c39.333 -39.333 86.333 -59 141 -59c54.667 0 101.667 19.667 141 59c39.333 39.333 59 86.333 59 141c0 54.667 -19.667 101.667 -59 141c-39.333 39.333 -86.333 59 -141 59c-54.667 0 -101.667 -19.667 -141 -59c-39.333 -39.333 -59 -86.333 -59 -141c0 0 0 0 0 0" />
  </g>
</svg>