<svg height="1000px" width="1233px" xmlns="http://www.w3.org/2000/svg">
  <g>
    <path d="M-63 341c116 -22 185.333 -45.667 208 -71c18 -20 33 -50.333 45 -91c12 15.333 19.667 31.5 23 48.5c3.333 17 3.667 30.167 1 39.5c0 0 -5 13 -5 13c-4 8.667 -7.5 15.667 -10.5 21c-3 5.333 -5.5 9.833 -7.5 13.5c-2 3.667 -5.167 7.333 -9.5 11c-4.333 3.667 -7.667 6.5 -10 8.5c-2.333 2 -7.667 5.667 -16 11c-8.333 5.333 -15.167 10 -20.5 14c-23.333 18 -34.5 38.833 -33.5 62.5c1 23.667 11.167 41.833 30.5 54.5c17.333 10.667 34.167 8.667 50.5 -6c16.333 -14.667 33.833 -40.667 52.5 -78c8 -16.667 14.167 -38.667 18.5 -66c4.333 -27.333 10.833 -51.667 19.5 -73c8.667 -21.333 24.333 -41 47 -59c13.333 -10.667 28.5 -17 45.5 -19c17 -2 33.667 -2.333 50 -1c16.333 1.333 33.5 1.333 51.5 0c18 -1.333 38 -9.167 60 -23.5c22 -14.333 44.333 -35.833 67 -64.5c3.333 -4 8 -9.167 14 -15.5c6 -6.333 18.667 -16 38 -29c19.333 -13 39 -22.333 59 -28c20 -5.667 44.667 -5.333 74 1c29.333 6.333 58 21.167 86 44.5c-32 -14 -62 -21 -90 -21c-28 0 -50.5 5 -67.5 15c-17 10 -31.5 21 -43.5 33c-12 12 -20.667 23 -26 33c0 0 -7 15 -7 15c-10 24.667 -19.5 45.167 -28.5 61.5c-9 16.333 -16.833 29.167 -23.5 38.5c-6.667 9.333 -15 16.833 -25 22.5c-10 5.667 -18 9.5 -24 11.5c-6 2 -16.667 4.833 -32 8.5c-15.333 3.667 -28 6.833 -38 9.5c-28.667 8.667 -45.333 26.667 -50 54c-4 24 3.333 41.667 22 53c21.333 12 48.667 7.333 82 -14c24.667 -16 44.5 -32.5 59.5 -49.5c15 -17 25.167 -31.667 30.5 -44c5.333 -12.333 14.5 -25.5 27.5 -39.5c13 -14 30.167 -26.333 51.5 -37c28.667 -14 56 -23.5 82 -28.5c26 -5 53.667 -7.667 83 -8c29.333 -0.333 51.667 -1.5 67 -3.5c131.333 -21.333 213.333 -59.333 246 -114c32 -52.667 48.333 -96 49 -130c11.333 38.667 15.167 73.333 11.5 104c-3.667 30.667 -12.5 57.5 -26.5 80.5c-14 23 -28.667 42 -44 57c-15.333 15 -29 26.167 -41 33.5c0 0 -18 11 -18 11c-51.333 26.667 -94.167 45.167 -128.5 55.5c-34.333 10.333 -62.167 17.333 -83.5 21c-21.333 3.667 -42 10.833 -62 21.5c-68.667 36.667 -86 88.333 -52 155c14 27.333 34.5 42.167 61.5 44.5c27 2.333 52.833 -7.5 77.5 -29.5c4 -3.333 8.667 -8 14 -14c5.333 -6 12.833 -19 22.5 -39c9.667 -20 14.833 -40.333 15.5 -61c13.333 37.333 18.5 69.5 15.5 96.5c-3 27 -9.833 48.167 -20.5 63.5c0 0 -15 22 -15 22c-24 25.333 -44.167 43.167 -60.5 53.5c-16.333 10.333 -37.333 16.5 -63 18.5c-25.667 2 -55.5 -3 -89.5 -15c-57.333 -14 -97.167 -20.833 -119.5 -20.5c-22.333 0.333 -42.833 6.167 -61.5 17.5c-18.667 10.667 -33 24.833 -43 42.5c-10 17.667 -10.667 33.833 -2 48.5c9.333 16.667 20.667 25.833 34 27.5c13.333 1.667 34.667 -5.5 64 -21.5c26 -15.333 48 -25.167 66 -29.5c18 -4.333 40.667 -7.167 68 -8.5c58 -1.333 104.333 11.333 139 38c24.667 16 49.333 35 74 57c-26.667 -16 -53 -26.167 -79 -30.5c-26 -4.333 -48 -4 -66 1c-18 5 -34.167 11 -48.5 18c-14.333 7 -24.833 14.167 -31.5 21.5c0 0 -10 10 -10 10c-30 34 -55.167 58 -75.5 72c-20.333 14 -38 20.833 -53 20.5c-15 -0.333 -34.5 -5.167 -58.5 -14.5c-6.667 -2.667 -19.833 -8.333 -39.5 -17c-19.667 -8.667 -33.5 -14 -41.5 -16c0 0 0 -110 0 -110c0 -80.667 -30.667 -142.667 -92 -186c-39.333 -26.667 -84 -40 -134 -40c-50.667 0 -95.333 13 -134 39c-13.333 -19.333 -30.333 -30.333 -51 -33c0 0 0 -75 0 -75c0 -20.667 -7.167 -38.167 -21.5 -52.5c-14.333 -14.333 -31.833 -21.5 -52.5 -21.5c0 0 -18 0 -18 0c0 0 0 0 0 0m127 564c0 0 0 -162 0 -162c0 -43.333 6.333 -76.333 19 -99c26.667 -47.333 71.333 -71 134 -71c46 0 82.833 14.5 110.5 43.5c27.667 29 41.5 65.5 41.5 109.5c0 0 0 135 0 135c0 0 -202 0 -202 0c0 0 0 67 0 67c0 32 16.667 48 50 48c30 0 46.667 -16.333 50 -49c0 0 102 0 102 0c0 41.333 -13.667 76.333 -41 105c-28.667 28.667 -65.667 43 -111 43c-62.667 0 -107.333 -23.667 -134 -71c-12.667 -22.667 -19 -55.667 -19 -99c0 0 0 0 0 0m103 -121c0 0 100 0 100 0c0 0 0 -56 0 -56c0 -37.333 -16.667 -56 -50 -56c-33.333 0 -50 18.667 -50 56c0 0 0 56 0 56c0 0 0 0 0 0m262 199c7.333 -24 11 -47.667 11 -71c0 -7.333 -1 -14 -3 -20c16 2.667 27.333 4.333 34 5c41.333 4 69.667 19.333 85 46c1.333 2 2.833 5 4.5 9c1.667 4 4 11.667 7 23c3 11.333 2.833 21.667 -0.5 31c-20.667 -16 -42.5 -26 -65.5 -30c-23 -4 -40.833 -3.667 -53.5 1c0 0 -19 6 -19 6" />
  </g>
</svg>