<svg height="1000" width="1286" xmlns="http://www.w3.org/2000/svg"><path d="M0 341q174-33 208-71 27-30 45-91 18 23 23 48.5t1 39.5l-5 13q-6 13-10.5 21t-7.5 13.5-9.5 11-10 8.5-16 11-20.5 14q-35 27-33.5 62.5t30.5 54.5q26 16 50.5-6t52.5-78q12-25 18.5-66t19.5-73 47-59q20-16 45.5-19t50-1 51.5 0 60-23.5 67-64.5q5-6 14-15.5t38-29 59-28 74 1 86 44.5q-48-21-90-21t-67.5 15-43.5 33-26 33l-7 15q-15 37-28.5 61.5t-23.5 38.5-25 22.5-24 11.5-32 8.5-38 9.5q-43 13-50 54-6 36 22 53 32 18 82-14 37-24 59.5-49.5t30.5-44 27.5-39.5 51.5-37q43-21 82-28.5t83-8 67-3.5q197-32 246-114 48-79 49-130 17 58 11.5 104t-26.5 80.5-44 57-41 33.5l-18 11q-77 40-128.5 55.5t-83.5 21-62 21.5q-103 55-52 155 21 41 61.5 44.5t77.5-29.5q6-5 14-14t22.5-39 15.5-61q20 56 15.5 96.5t-20.5 63.5l-15 22q-36 38-60.5 53.5t-63 18.5-89.5-15q-86-21-119.5-20.5t-61.5 17.5q-28 16-43 42.5t-2 48.5q14 25 34 27.5t64-21.5q39-23 66-29.5t68-8.5q87-2 139 38 37 24 74 57-40-24-79-30.5t-66 1-48.5 18-31.5 21.5l-10 10q-45 51-75.5 72t-53 20.5-58.5-14.5q-10-4-39.5-17t-41.5-16l0-110q0-121-92-186-59-40-134-40-76 0-134 39-20-29-51-33l0-75q0-31-21.5-52.5t-52.5-21.5l-18 0zm127 564l0-162q0-65 19-99 40-71 134-71 69 0 110.5 43.5t41.5 109.5l0 135l-202 0l0 67q0 48 50 48 45 0 50-49l102 0q0 62-41 105-43 43-111 43-94 0-134-71-19-34-19-99zm103-121l100 0l0-56q0-56-50-56t-50 56l0 56zm262 199q11-36 11-71 0-11-3-20 24 4 34 5 62 6 85 46 2 3 4.5 9t7 23-.5 31q-31-24-65.5-30t-53.5 1z"/></svg>