<svg height="1000px" width="1000px" xmlns="http://www.w3.org/2000/svg">
  <g>
    <path d="M0 500c0 -90.667 22.333 -174.333 67 -251c44.667 -76.667 105.333 -137.333 182 -182c76.667 -44.667 160.333 -67 251 -67c90.667 0 174.333 22.333 251 67c76.667 44.667 137.333 105.333 182 182c44.667 76.667 67 160.333 67 251c0 90.667 -22.333 174.333 -67 251c-44.667 76.667 -105.333 137.333 -182 182c-76.667 44.667 -160.333 67 -251 67c-90.667 0 -174.333 -22.333 -251 -67c-76.667 -44.667 -137.333 -105.333 -182 -182c-44.667 -76.667 -67 -160.333 -67 -251c0 0 0 0 0 0m100 0c0 110.667 39 205 117 283c78 78 172.333 117 283 117c110.667 0 205 -39 283 -117c78 -78 117 -172.333 117 -283c0 -110.667 -39 -205 -117 -283c-78 -78 -172.333 -117 -283 -117c-110.667 0 -205 39 -283 117c-78 78 -117 172.333 -117 283c0 0 0 0 0 0m183 176c0 20.667 7.167 38.167 21.5 52.5c14.333 14.333 31.833 21.5 52.5 21.5c22 0 41 -8 57 -24c16 -16 24 -35 24 -57c0 0 0 -8 0 -8c0 0 0 -261 0 -261c0 0 200 -37 200 -37c0 0 0 208 0 208c-10 -3.333 -19.333 -5 -28 -5c-22 0 -41 8 -57 24c-16 16 -24 35 -24 57c0 20.667 7 38.167 21 52.5c14 14.333 31.333 21.5 52 21.5c20.667 0 39.167 -7.667 55.5 -23c16.333 -15.333 24.833 -33.333 25.5 -54c0 0 0 -4 0 -4c0 0 0 -8 0 -8c0 0 0 -382 0 -382c0 0 -290 50 -290 50c0 0 0 300 0 300c-10 -3.333 -19.333 -5 -28 -5c-22.667 0 -42 8 -58 24c-16 16 -24 35 -24 57c0 0 0 0 0 0" />
  </g>
</svg>