<svg height="1000px" width="939px" xmlns="http://www.w3.org/2000/svg">
  <g>
    <path d="M-0.5 111.05166912078857c-0.333 -7.333 1.667 -14.167 6 -20.5c4.333 -6.333 8.833 -11.833 13.5 -16.5c4.667 -4.667 12.5 -9.833 23.5 -15.5c11 -5.667 20 -10 27 -13c7 -3 18 -7.667 33 -14c15 -6.333 26.5 -11.167 34.5 -14.5c36 -14.667 68.333 -20 97 -16c28.667 4 46.667 15.667 54 35c16.667 44.667 50.833 151.167 102.5 319.5c51.667 168.333 90.167 288.833 115.5 361.5c178.667 -58.667 287.333 -93.667 326 -105c10.667 -4 23.167 -5.333 37.5 -4c14.333 1.333 25.167 9 32.5 23c15.333 31.333 26.167 64.167 32.5 98.5c6.333 34.333 6.5 59.167 0.5 74.5c-12.667 10 -32.5 20.667 -59.5 32c-27 11.333 -52.167 21 -75.5 29c-23.333 8 -53.167 17.667 -89.5 29c-36.333 11.333 -60.833 19 -73.5 23c-6.667 2 -19.333 6.333 -38 13c-18.667 6.667 -36.333 12.833 -53 18.5c-16.667 5.667 -36 12 -58 19c-22 7 -42.333 12.833 -61 17.5c-18.667 4.667 -36.667 8.5 -54 11.5c-17.333 3 -32.167 4.167 -44.5 3.5c-12.333 -0.667 -20.833 -3.667 -25.5 -9c-12 -12 -22.667 -29.333 -32 -52c-9.333 -22.667 -19 -51.667 -29 -87c-10 -35.333 -16.333 -57.333 -19 -66c-28 -83.333 -65.667 -196.167 -113 -338.5c-47.333 -142.333 -82 -246.5 -104 -312.5c-4 -8.667 -6.167 -16.667 -6.5 -24c0 0 0 0 0 0" />
  </g>
</svg>