<svg height="1000px" width="1329px" xmlns="http://www.w3.org/2000/svg">
  <g>
    <path d="M0 500c0 -109.333 38.667 -202.667 116 -280c77.333 -77.333 170.667 -116 280 -116c82.667 0 155.833 21.167 219.5 63.5c63.667 42.333 112.5 102.5 146.5 180.5c10 24 53 124 129 300c14 32 26.5 56.5 37.5 73.5c11 17 27.333 32 49 45c21.667 13 48.167 20.167 79.5 21.5c0 0 7 0 7 0c44.667 0 81.667 -12 111 -36c30.667 -25.333 46.333 -57.333 47 -96c0 -18 -2.667 -33 -8 -45c-5.333 -12 -15.167 -22.667 -29.5 -32c-14.333 -9.333 -27.833 -16.5 -40.5 -21.5c-12.667 -5 -32.333 -11.833 -59 -20.5c-83.333 -27.333 -143.333 -57.167 -180 -89.5c-36.667 -32.333 -55 -77.5 -55 -135.5c0 -60.667 19.167 -109.167 57.5 -145.5c38.333 -36.333 90.5 -54.5 156.5 -54.5c84.667 0 148.333 38.333 191 115c0 0 -84 43 -84 43c-30 -41.333 -67.333 -62 -112 -62c-30.667 0 -56.167 9.5 -76.5 28.5c-20.333 19 -30.5 43.167 -30.5 72.5c0 8.667 0.667 16.833 2 24.5c1.333 7.667 4.167 14.5 8.5 20.5c4.333 6 8.333 11.333 12 16c3.667 4.667 9.5 9.5 17.5 14.5c8 5 14.667 8.833 20 11.5c5.333 2.667 13.667 6.167 25 10.5c11.333 4.333 20.167 7.5 26.5 9.5c6.333 2 16.833 5.333 31.5 10c14.667 4.667 25.667 8 33 10c72 24 123.5 52 154.5 84c31 32 46.5 78.667 46.5 140c0 66.667 -25.333 122 -76 166c-50 43.333 -112 65 -186 65c0 0 -3 0 -3 0c-66.667 0 -120.333 -15.5 -161 -46.5c-40.667 -31 -75 -77.833 -103 -140.5c0 0 -14 -33 -14 -33c0 0 -127 -288 -127 -288c-22 -51.333 -56.833 -92.667 -104.5 -124c-47.667 -31.333 -100.5 -47 -158.5 -47c-79.333 0 -147.167 28.167 -203.5 84.5c-56.333 56.333 -84.5 124.167 -84.5 203.5c0 79.333 28.167 147.167 84.5 203.5c56.333 56.333 124.167 84.5 203.5 84.5c54.667 0 104.667 -14.167 150 -42.5c45.333 -28.333 80.333 -65.833 105 -112.5c0 0 51 118 51 118c-36.667 45.333 -81.667 80.833 -135 106.5c-53.333 25.667 -110.333 38.5 -171 38.5c-109.333 0 -202.667 -38.667 -280 -116c-77.333 -77.333 -116 -170.667 -116 -280c0 0 0 0 0 0" />
  </g>
</svg>