<svg height="1000" width="1329" xmlns="http://www.w3.org/2000/svg"><path d="M0 500q0-164 116-280t280-116q124 0 219.5 63.5t146.5 180.5q15 36 129 300 21 48 37.5 73.5t49 45 79.5 21.5l7 0q67 0 111-36 46-38 47-96 0-27-8-45t-29.5-32-40.5-21.5-59-20.5q-125-41-180-89.5t-55-135.5q0-91 57.5-145.5t156.5-54.5q127 0 191 115l-84 43q-45-62-112-62-46 0-76.5 28.5t-30.5 72.5q0 13 2 24.5t8.5 20.5 12 16 17.5 14.5 20 11.5 25 10.5 26.5 9.5 31.5 10 33 10q108 36 154.5 84t46.5 140q0 100-76 166-75 65-186 65l-3 0q-100 0-161-46.5t-103-140.5l-14-33-127-288q-33-77-104.5-124t-158.5-47q-119 0-203.5 84.5t-84.5 203.5 84.5 203.5 203.5 84.5q82 0 150-42.5t105-112.5l51 118q-55 68-135 106.5t-171 38.5q-164 0-280-116t-116-280z"/></svg>