<svg height="1000" width="1265" xmlns="http://www.w3.org/2000/svg"><path d="M0 709l24 0q-7-14-7-34 0-65 45.5-185.5t87.5-183.5q32-49 84-49 45 0 45 34 0 52-72 199l82 0q20-62 53-126 34-68 73-91t116-23q29 0 56.5 14t27.5 40-13 42-37.5 22.5-43.5 8.5-46 2l-9 0q-15 22-28 58 18-3 37-3 64 0 64 38 0 9-3 18l0 0q-16 59-88 59-23 0-50-5-16 48-21 73 52-10 77-10t43 11.5 18 35.5q0 34-23.5 57t-53.5 31-64 8q-65 0-96-41l0 0q-20-24-20-62 0-23 3-45 8-50 28-112l-82 0q-9 19-26 55.5t-25 54.5l-1 0l-7 14q22-2 34-2 59 0 59 40 0 51-39 73.5t-93 22.5q-65 0-85-39l-24 0zm538-78q0-38 15.5-95t33.5-99q19-45 36-74t43-56.5 60.5-41 80.5-13.5q50 0 87 19.5t37 64.5q0 38-21 68.5t-57 30.5q-52 0-52-33 0-6 3.5-17.5t3.5-18.5q0-13-22-13-17 0-32.5 14t-29 43.5-18 40.5-14.5 39l0 0q-32 84-32 119 0 29 28 29 25 0 44-24.5t26-52.5q-42-2-42-35 0-37 28-54t66-17q52 0 65 35l0 0q4 11 4 26 0 50-28.5 106t-68.5 87l0 0q-53 41-120 41-68 0-100-41l0 0q-24-29-24-78zm329 78l42 0q-18-26-18-66 0-79 49-204 19-47 32.5-74t37-55.5 57-41.5 78.5-13q120 0 120 115 0 50-22 120l0 0q-15 51-41 110l0 0q-37 77-73 109l0 0q-46 41-119 41-72 0-101-41l-42 0zm144-109l3 0q-6 35 22 35 23 0 43-38l-2 0q17-36 45-115.5t28-102.5q0-24-21-24-20 0-33 16-18 26-52 119l0 0q-25 67-33 110z"/></svg>