<svg height="1000px" width="1036px" xmlns="http://www.w3.org/2000/svg">
  <g>
    <path d="M0 120c0 -33.333 11.667 -60.833 35 -82.5c23.333 -21.667 53.667 -32.5 91 -32.5c36.667 0 66.333 10.667 89 32c23.333 22 35 50.667 35 86c0 32 -11.333 58.667 -34 80c-23.333 22 -54 33 -92 33c0 0 -1 0 -1 0c-36.667 0 -66.333 -11 -89 -33c-22.667 -22 -34 -49.667 -34 -83c0 0 0 0 0 0m13 875c0 0 0 -668 0 -668c0 0 222 0 222 0c0 0 0 668 0 668c0 0 -222 0 -222 0c0 0 0 0 0 0m345 0c0 0 222 0 222 0c0 0 0 -373 0 -373c0 -23.333 2.667 -41.333 8 -54c9.333 -22.667 23.5 -41.833 42.5 -57.5c19 -15.667 42.833 -23.5 71.5 -23.5c74.667 0 112 50.333 112 151c0 0 0 357 0 357c0 0 222 0 222 0c0 0 0 -383 0 -383c0 -98.667 -23.333 -173.5 -70 -224.5c-46.667 -51 -108.333 -76.5 -185 -76.5c-86 0 -153 37 -201 111c0 0 0 2 0 2c0 0 -1 0 -1 0c0 0 1 -2 1 -2c0 0 0 -95 0 -95c0 0 -222 0 -222 0c1.333 21.333 2 87.667 2 199c0 111.333 -0.667 267.667 -2 469c0 0 0 0 0 0" />
  </g>
</svg>