<svg height="1000" width="1199" xmlns="http://www.w3.org/2000/svg"><path d="M0 515l0-34q0-113 84-197t215-84q136 0 247 112 21 20 54 62l96 126q39 52 52 65 74 74 147 74 59 0 96-40 33-33 38-85 1-5 1-14 0-22-6-41-9-31-33-57 0-1-1-1-38-40-95-40-78 0-147 74l-85-111l0 0q-6-8-10-13 55-60 113-85.5t134-25.5q124 0 214 84l1 0l1 1q83 83 83 215 0 30-5 63-16 89-79 153-61 62-150 79-33 5-62 5-140 0-248-109-23-23-56-67l-96-124q-39-52-52-65-74-74-149-74-22 0-40 6-29 8-55 34-29 32-36 71-3 14-3 28 0 57 37 97l2 2q39 40 97 40 79 0 147-75l84 110 9 12q-57 61-115 87t-130 26q-131 0-216-83l0-1q-63-63-78-153-5-25-5-47z"/></svg>