<svg height="1000" width="1000" xmlns="http://www.w3.org/2000/svg"><path d="M0 500q0-136 67-251t182-182 251-67 251 67 182 182 67 251-67 251-182 182-251 67-251-67-182-182-67-251zm208 319q0 26 26 26l176 0q28 0 28-26l0-48q0-26-28-26l-29 0l0-460l29 0q28 0 28-26l0-48q0-26-28-26l-176 0q-26 0-26 26l0 48q0 26 26 26l31 0l0 460l-31 0q-26 0-26 26l0 48zm277 4q0 24 24 24l59 0q22 0 22-24l0-257q0-103 79-103 42 0 42 51l0 309q0 24 22 24l61 0q21 0 21-24l0-333q0-122-110-122-67 0-122 64l-7-36q-4-22-24-22l-43 0q-24 0-24 25l0 424z"/></svg>