<svg height="1000px" width="1106px" xmlns="http://www.w3.org/2000/svg">
  <g>
    <path d="M0 612.8016357421875c0 0 0 -151 0 -151c0 -6.667 2.333 -12.5 7 -17.5c4.667 -5 10.667 -7.5 18 -7.5c0 0 265 0 265 0c0 0 -115 201 -115 201c0 0 -150 0 -150 0c-7.333 0 -13.333 -2.333 -18 -7c-4.667 -4.667 -7 -10.667 -7 -18c0 0 0 0 0 0m122 244c0 0 66 38 66 38c0 0 -66 -38 -66 -38m10 -43.5c-2 -7 -1.333 -13.5 2 -19.5c0 0 304 -528 304 -528c3.333 -6 8.333 -9.833 15 -11.5c6.667 -1.667 13 -0.833 19 2.5c0 0 65 37 65 37c6.667 3.333 10.833 8.5 12.5 15.5c1.667 7 0.833 13.5 -2.5 19.5c0 0 -303 528 -303 528c-3.333 6 -8.5 9.833 -15.5 11.5c-7 1.667 -13.5 0.833 -19.5 -2.5c0 0 -65 -38 -65 -38c-6 -2.667 -10 -7.5 -12 -14.5c0 0 0 0 0 0m308 -175.5c0 0 115 -201 115 -201c0 0 67 0 67 0c0 0 94 201 94 201c0 0 -276 0 -276 0c0 0 0 0 0 0m78 -625c0.667 -6 2.667 -10 6 -12c6.667 -3.333 18.5 7 35.5 31c17 24 40.833 62.667 71.5 116c30.667 53.333 51.333 88.333 62 105c18.667 29.333 43.833 72.833 75.5 130.5c31.667 57.667 62 114 91 169c29 55 43.5 82.833 43.5 83.5c7.333 12.667 6.667 24.667 -2 36c-8.667 11.333 -19 19.333 -31 24c-12 5.333 -20 8.333 -24 9c-4 0.667 -14 -1.667 -30 -7c-20 -10 -83.333 -141 -190 -393c-3.333 -7.333 -7.833 -17.5 -13.5 -30.5c-5.667 -13 -11.333 -25.667 -17 -38c-5.667 -12.333 -11.833 -26.333 -18.5 -42c-6.667 -15.667 -12.833 -30.333 -18.5 -44c-5.667 -13.667 -11.333 -27.667 -17 -42c-5.667 -14.333 -10.167 -27.333 -13.5 -39c-3.333 -11.667 -6 -22.5 -8 -32.5c-2 -10 -2.667 -18 -2 -24c0 0 0 0 0 0m328 424c0 0 235 0 235 0c6.667 0 12.5 2.5 17.5 7.5c5 5 7.5 10.833 7.5 17.5c0 0 0 151 0 151c0 6.667 -2.5 12.5 -7.5 17.5c-5 5 -10.833 7.5 -17.5 7.5c0 0 -133 0 -133 0c-2.667 -10.667 -5.333 -18.333 -8 -23c0 0 -24 -46 -24 -46c-42.667 -80.667 -66 -124.667 -70 -132c0 0 0 0 0 0m13 316.5c2 -7 6.333 -12.167 13 -15.5c0 0 37 -19 37 -19c6.667 -3.333 13.667 -3.833 21 -1.5c7.333 2.333 12.667 6.833 16 13.5c0 0 31 60 31 60c8 16 4.667 29 -10 39c0 0 -27 16 -27 16c-6.667 3.333 -13.667 4.167 -21 2.5c-7.333 -1.667 -13 -5.833 -17 -12.5c0 0 -40 -62 -40 -62c-4 -6.667 -5 -13.5 -3 -20.5c0 0 0 0 0 0m76.5 144.5c0.333 -10.667 1.667 -17.667 4 -21c2.333 -3.333 6.5 -8 12.5 -14c0 0 24 -9 24 -9c40.667 -8 64.667 15.333 72 70c2 21.333 1.667 46.667 -1 76c-2.667 -8 -17.333 -17.833 -44 -29.5c-26.667 -11.667 -45 -24.5 -55 -38.5c-8.667 -12 -12.833 -23.333 -12.5 -34c0 0 0 0 0 0" />
  </g>
</svg>