<svg height="1000" width="1106" xmlns="http://www.w3.org/2000/svg"><path d="M0 612.61l0-151q0-10 7-17.5t18-7.5l265 0l-115 201l-150 0q-11 0-18-7t-7-18zm122 244l66 38zm10-43.5q-3-10.5 2-19.5l304-528q5-9 15-11.5t19 2.5l65 37q10 5 12.5 15.5t-2.5 19.5l-303 528q-5 9-15.5 11.5t-19.5-2.5l-65-38q-9-4-12-14.5zm308-175.5l115-201l67 0l94 201l-276 0zm78-625q1-9 6-12 10-5 35.5 31t71.5 116 62 105q28 44 75.5 130.5t91 169 43.5 83.5q11 19-2 36t-31 24q-18 8-24 9t-30-7q-30-15-190-393-5-11-13.5-30.5t-17-38-18.5-42-18.5-44-17-42-13.5-39-8-32.5-2-24zm328 424l235 0q10 0 17.5 7.5t7.5 17.5l0 151q0 10-7.5 17.5t-17.5 7.5l-133 0q-4-16-8-23l-24-46q-64-121-70-132zm13 316.5q3-10.5 13-15.5l37-19q10-5 21-1.5t16 13.5l31 60q12 24-10 39l-27 16q-10 5-21 2.5t-17-12.5l-40-62q-6-10-3-20.5zm76.5 144.5q.5-16 4-21t12.5-14l24-9q61-12 72 70 3 32-1 76-4-12-44-29.5t-55-38.5q-13-18-12.5-34z"/></svg>