<svg height="1000px" width="1341px" xmlns="http://www.w3.org/2000/svg">
  <g>
    <path d="M0 460c0 -23.333 0.667 -58.333 2 -105c16 -5.333 32 -8 48 -8c0 0 18 0 18 0c11.333 15.333 24.667 38.667 40 70c15.333 31.333 25.667 51.667 31 61c1.333 -4.667 4 -16.833 8 -36.5c4 -19.667 7.333 -33.833 10 -42.5c2.667 -8.667 6.333 -20.833 11 -36.5c4.667 -15.667 9.833 -29.167 15.5 -40.5c5.667 -11.333 12.167 -21.667 19.5 -31c18.667 3.333 34 5 46 5c4 0 7.667 -0.333 11 -1c16 36 31.167 90.333 45.5 163c14.333 72.667 27.167 124.333 38.5 155c-0.667 0 -2 -0.333 -4 -1c0 0 -3 -1 -3 -1c-6 0 -14.667 1.833 -26 5.5c-11.333 3.667 -18.667 5.833 -22 6.5c-26.667 -67.333 -47.333 -135 -62 -203c-10 17.333 -15 47 -15 89c0 42 -3.667 71.333 -11 88c0 0 -5 -2 -5 -2c-5.333 0 -12.667 0.667 -22 2c-9.333 1.333 -16.333 2 -21 2c0 0 -18 0 -18 0c-18 -32 -37 -61.667 -57 -89c-2 4 -3 9 -3 15c0 6 0.833 14.667 2.5 26c1.667 11.333 2.5 19.667 2.5 25c0 0 -1 12 -1 12c-20 10 -37.333 15 -52 15c-4.667 0 -8 -0.333 -10 -1c-11.333 -37.333 -17 -84.667 -17 -142c0 0 0 0 0 0m355 76c0 -18 2.667 -37.167 8 -57.5c5.333 -20.333 14.667 -39.333 28 -57c13.333 -17.667 29 -26.5 47 -26.5c6.667 0 16 1.667 28 5c12 3.333 19.667 5.333 23 6c6 26.667 9 53.667 9 81c0 18.667 -2 37 -6 55c-8 -2.667 -20.667 -4.167 -38 -4.5c-17.333 -0.333 -29.667 -1.5 -37 -3.5c-3.333 13.333 -5 25.667 -5 37c0 14 3.333 26.333 10 37c6.667 10.667 16.667 16 30 16c6 0 14.667 -1.667 26 -5c11.333 -3.333 20 -5 26 -5c11.333 0 19 4.667 23 14c-28 10.667 -55.333 16 -82 16c-30.667 0 -53.333 -10 -68 -30c-14.667 -20 -22 -46 -22 -78c0 0 0 0 0 0m58 -28c0 0 8 -1 8 -1c2 0 4.667 0.667 8 2c3.333 1.333 5.667 2 7 2c0 0 7 -3 7 -3c1.333 -9.333 2 -16.667 2 -22c0 -12 -1.667 -25.333 -5 -40c-14.667 16.667 -23.667 37.333 -27 62c0 0 0 0 0 0m110 54c0 -82 26 -142.667 78 -182c21.333 2 41.333 9.667 60 23c-0.667 11.333 -3.333 33.667 -8 67c-3.333 26 -5 47.667 -5 65c0 0 0 14 0 14c-13.333 1.333 -23 2 -29 2c-5.333 0 -19.667 -1.667 -43 -5c-3.333 8 -5 15.667 -5 23c0 14.667 5.667 27.167 17 37.5c11.333 10.333 24.333 15.5 39 15.5c17.333 0 31 -7.667 41 -23c12 4 19 9.667 21 17c-14.667 14 -35.667 21 -63 21c-24.667 0 -48 -6.667 -70 -20c-22 -13.333 -33 -31.667 -33 -55c0 0 0 0 0 0m56 -43c2.667 4 7.333 6 14 6c0 0 9 0 9 0c6 -12.667 9 -29 9 -49c0 -8.667 -2 -21.667 -6 -39c-2 5.333 -5.333 13.667 -10 25c-4.667 11.333 -8.5 21.5 -11.5 30.5c-3 9 -4.5 17.833 -4.5 26.5c0 0 0 0 0 0m99 -19c-1.333 -17.333 6.333 -26 23 -26c4 0 10 0.333 18 1c8 0.667 13.667 1 17 1c2 -10 3 -20.333 3 -31c0 -19.333 -2.5 -48.167 -7.5 -86.5c-5 -38.333 -7.5 -67.167 -7.5 -86.5c0 -28.667 3.333 -52.667 10 -72c3.333 2 12.167 3.833 26.5 5.5c14.333 1.667 27.833 9.833 40.5 24.5c-4 17.333 -6 39.667 -6 67c0 13.333 1.333 40.333 4 81c1.333 23.333 2 43.667 2 61c0 13.333 -0.333 24.667 -1 34c0 0 6 0 6 0c4.667 0 7.667 -2 9 -6c1.333 -4 2 -8.167 2 -12.5c0 -4.333 1.333 -6.5 4 -6.5c5.333 0 11.5 2.833 18.5 8.5c7 5.667 14.5 12.833 22.5 21.5c8 8.667 13 14 15 16c-6 4.667 -19.5 7.667 -40.5 9c-21 1.333 -33.833 2.667 -38.5 4c-0.667 8 -1 20 -1 36c0 10.667 0.167 21.667 0.5 33c0.333 11.333 0.833 24 1.5 38c0.667 14 1 25 1 33c-5.333 0.667 -13 1.333 -23 2c-10 0.667 -17.333 1.333 -22 2c0 0 0 -10 0 -10c0 0 0 -10 0 -10c0 -14 -1 -33 -3 -57c-2.667 -29.333 -4 -49.667 -4 -61c-4 -1.333 -14.667 -2.5 -32 -3.5c-17.333 -1 -30 -4.167 -38 -9.5c0 0 0 0 0 0m215 -8c0 -13.333 0.667 -32.667 2 -58c7.333 0.667 14 2.333 20 5c6 2.667 13 6.167 21 10.5c8 4.333 14 7.5 18 9.5c0 0 -1 27 -1 27c0 39.333 3 78 9 116c12.667 -4.667 23 -12.333 31 -23c8 -10.667 13.5 -24.5 16.5 -41.5c3 -17 4.833 -31 5.5 -42c0.667 -11 1.333 -25.833 2 -44.5c0 0 0 -11 0 -11c2 0.667 5 1 9 1c13.333 1.333 29.667 9.667 49 25c0 2 0.167 5.167 0.5 9.5c0.333 4.333 0.5 7.5 0.5 9.5c0 10 -1.333 20 -4 30c-2.667 10 -5.167 17.333 -7.5 22c-2.333 4.667 -7.167 13 -14.5 25c-7.333 12 -12 19.667 -14 23c-10 8 -21.333 22 -34 42c-14 4.667 -26.667 7 -38 7c-47.333 0 -71 -47.333 -71 -142c0 0 0 0 0 0m200 108c4.667 -4 12.667 -7.333 24 -10c0 -2 0.333 -5 1 -9c2.667 -23.333 5 -42.167 7 -56.5c2 -14.333 6.167 -34 12.5 -59c6.333 -25 13.667 -44.833 22 -59.5c8.333 -14.667 20.167 -27.833 35.5 -39.5c15.333 -11.667 33 -17.5 53 -17.5c22.667 0 48 8 76 24c11.333 24.667 17 49.667 17 75c0 44 -15.5 83.667 -46.5 119c-31 35.333 -68.5 58 -112.5 68c-1.333 21.333 -2 37.333 -2 48c0 48.667 6 87.667 18 117c-5.333 -1.333 -17.667 -2 -37 -2c-10 0 -17.333 -0.667 -22 -2c-6 -14 -11.5 -46 -16.5 -96c-5 -50 -14.833 -83.333 -29.5 -100c0 0 0 0 0 0m90 -25c26 -6.667 47.833 -22.667 65.5 -48c17.667 -25.333 26.5 -51.667 26.5 -79c0 -20 -5 -38.667 -15 -56c-15.333 14 -28.5 32.5 -39.5 55.5c-11 23 -18.667 43 -23 60c-4.333 17 -9.167 39.5 -14.5 67.5c0 0 0 0 0 0" />
  </g>
</svg>