<svg height="1000px" width="1220px" xmlns="http://www.w3.org/2000/svg">
  <g>
    <path d="M0 140c-0.667 -3.333 0.167 -6.5 2.5 -9.5c2.333 -3 5.167 -4.833 8.5 -5.5c7.333 -1.333 17.667 -3.5 31 -6.5c13.333 -3 22.667 -5.167 28 -6.5c0 -11.333 0.333 -27.833 1 -49.5c0.667 -21.667 1 -37.833 1 -48.5c1.333 -8 5.667 -12 13 -12c9.333 0 14 4.667 14 14c-1.333 40 -2 70.333 -2 91c7.333 -1.333 19 -3.667 35 -7c16 -3.333 27.667 -6 35 -8c12 -2.667 30.333 -6 55 -10c24.667 -4 43.333 -7.333 56 -10c268 -46 532.667 -70 794 -72c4 0 7.167 1.5 9.5 4.5c2.333 3 3.167 6.5 2.5 10.5c0 7.333 -0.667 18.333 -2 33c-1.333 14.667 -2 25.667 -2 33c28 2 70.667 5.667 128 11c3.333 0 6.333 1.5 9 4.5c2.667 3 3.667 6.167 3 9.5c-15.333 91.333 -38 228.667 -68 412c-30 183.333 -52.667 321 -68 413c33.333 5.333 58.667 9.333 76 12c5.333 0.667 8.833 3.333 10.5 8c1.667 4.667 1.5 9 -0.5 13c-2 4 -5.333 6 -10 6c0 0 -3 0 -3 0c-8.667 -1.333 -21.667 -3.5 -39 -6.5c-17.333 -3 -30.333 -5.167 -39 -6.5c-0.667 8 -2.333 18.333 -5 31c-1.333 6 -4.667 9.667 -10 11c-0.667 0.667 -2 1 -4 1c0 0 -4 0 -4 0c-198 -50 -398 -89 -600 -117c-66.667 -1.333 -116.333 -2 -149 -2c-36.667 0 -91.667 0.667 -165 2c0 0 0 1 0 1c0.667 0.667 1 1.333 1 2c0.667 4 -0.667 7.5 -4 10.5c-3.333 3 -7 4.5 -11 4.5c-7.333 0 -11.333 -3.667 -12 -11c0 -3.333 -0.5 -8.5 -1.5 -15.5c-1 -7 -1.833 -12.5 -2.5 -16.5c0 0 -13 0 -13 0c-5.333 0 -8.833 -2.333 -10.5 -7c-1.667 -4.667 -1.333 -9.167 1 -13.5c2.333 -4.333 6.167 -6.5 11.5 -6.5c0 0 1 0 1 0c0 0 7 0 7 0c0 0 -6 -54 -6 -54c-4 -26.667 -12.333 -91.5 -25 -194.5c-12.667 -103 -24.5 -186.833 -35.5 -251.5c-11 -64.667 -25.167 -128.333 -42.5 -191c0 0 0 0 0 0m30 8c14 52 28.333 119 43 201c-2 -46.667 -3 -116.333 -3 -209c-10.667 1.333 -24 4 -40 8c0 0 0 0 0 0m67 91c0.667 128.667 7.667 270 21 424c2 26.667 5.667 63 11 109c0.667 6 1.5 12.333 2.5 19c1 6.667 2.167 14 3.5 22c1.333 8 2.333 14.333 3 19c44.667 2 108.667 6.333 192 13c83.333 6.667 144 11 182 13c236 13.333 397 25 483 35c7.333 -106.667 18.167 -258.333 32.5 -455c14.333 -196.667 24.167 -333.667 29.5 -411c-312 2.667 -632 38.333 -960 107c-0.667 35.333 -0.667 70.333 0 105c0 0 0 0 0 0m92 163c0 45.333 14.167 82.333 42.5 111c28.333 28.667 64.5 43 108.5 43c46 0 82.333 -14.333 109 -43c0 0 2 0 2 0c-8.667 46.667 -30.333 83.667 -65 111c-27.333 22 -61 34.667 -101 38c-26.667 2.667 -44 3.333 -52 2c0 0 0 75 0 75c23.333 0 42.333 -0.667 57 -2c71.333 -5.333 128.333 -28 171 -68c58 -54.667 87 -132.333 87 -233c0 -62.667 -15.667 -113.833 -47 -153.5c-31.333 -39.667 -75.333 -59.5 -132 -59.5c-52 0 -95 17.667 -129 53c-34 35.333 -51 77.333 -51 126c0 0 0 0 0 0m94 -6c0 -30 7.5 -54.5 22.5 -73.5c15 -19 34.5 -28.5 58.5 -28.5c0 0 1 0 1 0c28.667 0 50.333 11.833 65 35.5c14.667 23.667 21.667 53.833 21 90.5c0 10.667 -1.667 19.333 -5 26c-17.333 28 -44.333 42 -81 42c-25.333 0 -45.333 -8.667 -60 -26c-14.667 -17.333 -22 -39.333 -22 -66c0 0 0 0 0 0m89 477c0 0 96 10 96 10c0 0 373 40 373 40c93.333 20 163 36 209 48c0 0 3 -18 3 -18c-36.667 -6 -91.667 -14.333 -165 -25c-166 -23.333 -338 -41.667 -516 -55c0 0 0 0 0 0m192 -471c0 45.333 14.333 82.333 43 111c28.667 28.667 64.667 43 108 43c46 0 82.667 -14.333 110 -43c0 0 1 0 1 0c-8.667 46.667 -30 83.667 -64 111c-28 22 -62 34.667 -102 38c-26.667 2.667 -44 3.333 -52 2c0 0 0 75 0 75c23.333 0 42.333 -0.667 57 -2c71.333 -5.333 128.333 -28 171 -68c58 -53.333 87 -131 87 -233c0 -62.667 -15.667 -113.833 -47 -153.5c-31.333 -39.667 -75 -59.5 -131 -59.5c-52 0 -95.167 17.667 -129.5 53c-34.333 35.333 -51.5 77.333 -51.5 126c0 0 0 0 0 0m94 -6c0 -30 7.667 -54.5 23 -73.5c15.333 -19 34.667 -28.5 58 -28.5c0 0 1 0 1 0c28.667 0 50.333 11.833 65 35.5c14.667 23.667 21.667 53.833 21 90.5c0 10.667 -1.667 19.333 -5 26c-17.333 28 -44.333 42 -81 42c-25.333 0 -45.333 -8.667 -60 -26c-14.667 -17.333 -22 -39.333 -22 -66c0 0 0 0 0 0m357 524c18.667 2.667 33 4.667 43 6c13.333 -80 34.833 -210.667 64.5 -392c29.667 -181.333 52.5 -320.333 68.5 -417c-8.667 -0.667 -20.5 -1.667 -35.5 -3c-15 -1.333 -28.833 -2.5 -41.5 -3.5c-12.667 -1 -24.667 -1.833 -36 -2.5c-4 56.667 -13 178.833 -27 366.5c-14 187.667 -24.333 332.833 -31 435.5c0 3.333 -1.333 6.333 -4 9c-0.667 0 -1 0.333 -1 1c0 0 0 0 0 0" />
  </g>
</svg>