<svg height="1000" width="1220" xmlns="http://www.w3.org/2000/svg"><path d="M.222 140q-1-5 2.5-9.5t8.5-5.5q11-2 31-6.5t28-6.5q0-17 1-49.5t1-48.5q2-12 13-12 14 0 14 14-2 60-2 91 11-2 35-7t35-8q18-4 55-10t56-10q402-69 794-72 6 0 9.5 4.5t2.5 10.5q0 11-2 33t-2 33q42 3 128 11 5 0 9 4.5t3 9.5q-23 137-68 412t-68 413q50 8 76 12 8 1 10.5 8t-.5 13-10 6l-3 0q-13-2-39-6.5t-39-6.5q-1 12-5 31-2 9-10 11-1 1-4 1l-4 0q-297-75-600-117-100-2-149-2-55 0-165 2l0 1q1 1 1 2 1 6-4 10.5t-11 4.5q-11 0-12-11 0-5-1.5-15.5t-2.5-16.5l-13 0q-8 0-10.5-7t1-13.5 11.5-6.5l8 0l-6-54q-6-40-25-194.5t-35.5-251.5-42.5-191zm30 8q21 78 43 201-3-70-3-209-16 2-40 8zm67 91q1 193 21 424 3 40 11 109 1 9 2.5 19t3.5 22 3 19q67 3 192 13t182 13q354 20 483 35 11-160 32.5-455t29.5-411q-468 4-960 107-1 53 0 105zm92 163q0 68 42.5 111t108.5 43q69 0 109-43l2 0q-13 70-65 111-41 33-101 38-40 4-52 2l0 75q35 0 57-2 107-8 171-68 87-82 87-233 0-94-47-153.5t-132-59.5q-78 0-129 53t-51 126zm94-6q0-45 22.5-73.5t58.5-28.5l1 0q43 0 65 35.5t21 90.5q0 16-5 26-26 42-81 42-38 0-60-26t-22-66zm89 477l96 10 373 40q140 30 209 48l3-18q-55-9-165-25-249-35-516-55zm192-471q0 68 43 111t108 43q69 0 110-43l1 0q-13 70-64 111-42 33-102 38-40 4-52 2l0 75q35 0 57-2 107-8 171-68 87-80 87-233 0-94-47-153.5t-131-59.5q-78 0-129.5 53t-51.5 126zm94-6q0-45 23-73.5t58-28.5l1 0q43 0 65 35.5t21 90.5q0 16-5 26-26 42-81 42-38 0-60-26t-22-66zm357 524q28 4 43 6 20-120 64.5-392t68.5-417q-13-1-35.5-3t-41.5-3.5-36-2.5q-6 85-27 366.5t-31 435.5q0 5-4 9-1 0-1 1z"/></svg>