<svg height="1000px" width="1273px" xmlns="http://www.w3.org/2000/svg">
  <g>
    <path d="M0 466c0 0 0 -51 0 -51c0 -25.333 29 -47 87 -65c58 -18 128.333 -27 211 -27c82.667 0 153 9 211 27c58 18 87 39.667 87 65c0 0 0 51 0 51c-0.667 25.333 -30 46.833 -88 64.5c-58 17.667 -128 26.5 -210 26.5c-82 0 -152 -8.833 -210 -26.5c-58 -17.667 -87.333 -39.167 -88 -64.5c0 0 0 0 0 0m287 -243c0 0 0 -27 0 -27c1.333 -12.667 22.667 -23.5 64 -32.5c41.333 -9 91 -13.5 149 -13.5c58 0 107.5 4.5 148.5 13.5c41 9 62.167 19.833 63.5 32.5c0 0 1 0 1 0c0 0 0 27 0 27c0 0 -1 0 -1 0c-1.333 13.333 -22.5 24.5 -63.5 33.5c-41 9 -90.5 13.5 -148.5 13.5c-58 0 -107.667 -4.5 -149 -13.5c-41.333 -9 -62.667 -20.167 -64 -33.5c0 0 0 0 0 0m211 494c0 0 0 -59 0 -59c0 0 0 -5 0 -5c2.667 -37.333 41.667 -68.833 117 -94.5c75.333 -25.667 165.667 -38.5 271 -38.5c105.333 0 195.5 12.833 270.5 38.5c75 25.667 113.833 57.167 116.5 94.5c0 0 0 4 0 4c0 0 0 56 0 56c0 0 0 4 0 4c-2 36.667 -40.667 68 -116 94c-75.333 26 -165.667 39 -271 39c-105.333 0 -195.667 -12.833 -271 -38.5c-75.333 -25.667 -114.333 -57.167 -117 -94.5c0 0 0 0 0 0m228 -341c0 0 0 -1 0 -1c0 0 0 -38 0 -38c0 0 0 -3 0 -3c1.333 -19.333 26.5 -35.667 75.5 -49c49 -13.333 107.5 -20 175.5 -20c68 0 126.5 6.667 175.5 20c49 13.333 74.167 29.667 75.5 49c0 0 0 2 0 2c0 0 0 39 0 39c0 0 0 1 0 1c0 19.333 -24.5 36 -73.5 50c-49 14 -108.167 21 -177.5 21c-69.333 0 -128.5 -7 -177.5 -21c-49 -14 -73.5 -30.667 -73.5 -50c0 0 0 0 0 0" />
  </g>
</svg>