<svg height="1000px" width="1083px" xmlns="http://www.w3.org/2000/svg">
  <g>
    <path d="M0 647c-0.667 -42 7.5 -80.833 24.5 -116.5c17 -35.667 39.333 -65.333 67 -89c27.667 -23.667 58.333 -44.667 92 -63c33.667 -18.333 67.333 -32.667 101 -43c33.667 -10.333 64.5 -18.833 92.5 -25.5c28 -6.667 50.667 -11 68 -13c0 0 26 -3 26 -3c0 0 0 123 0 123c-38 2.667 -72.833 9.167 -104.5 19.5c-31.667 10.333 -57.5 22.5 -77.5 36.5c-20 14 -37.667 29.167 -53 45.5c-15.333 16.333 -27 32.333 -35 48c-8 15.667 -14.333 29.833 -19 42.5c-4.667 12.667 -7.333 23 -8 31c0 0 -2 12 -2 12c-2 10 -3 20 -3 30c0 14.667 2.333 28.667 7 42c8 22.667 20.667 42 38 58c17.333 16 37 30.833 59 44.5c22 13.667 44.667 24.667 68 33c23.333 8.333 44.667 15.5 64 21.5c19.333 6 35 10.333 47 13c0 0 19 3 19 3c0 0 0 103 0 103c-64.667 -6.667 -123.167 -18.333 -175.5 -35c-52.333 -16.667 -94.5 -35.5 -126.5 -56.5c-32 -21 -59.667 -43.5 -83 -67.5c-23.333 -24 -40.333 -47.5 -51 -70.5c-10.667 -23 -18.833 -43.667 -24.5 -62c-5.667 -18.333 -8.833 -33.167 -9.5 -44.5c0 0 -1 -17 -1 -17m510 353c0 0 0 -902 0 -902c0 0 142 -98 142 -98c0 0 0 922 0 922c0 0 -142 78 -142 78m176 -591c0 0 5 0 5 0c25.333 0.667 51 5.667 77 15c28 10.667 49.333 21 64 31c0 0 21 16 21 16c0 0 -83 34 -83 34c0 0 313 78 313 78c0 0 0 -245 0 -245c0 0 -107 61 -107 61c-26.667 -28.667 -64.167 -51.667 -112.5 -69c-48.333 -17.333 -90.167 -27.667 -125.5 -31c0 0 -52 -5 -52 -5c0 0 0 115 0 115c0 0 0 0 0 0" />
  </g>
</svg>