<svg height="1000px" width="973.8125px" xmlns="http://www.w3.org/2000/svg">
  <g>
    <path d="M0 891c0 0 194 -891 194 -891c0 0 438 0 438 0c33.333 0 65.5 6 96.5 18c31 12 59.167 30.5 84.5 55.5c25.333 25 42.833 56.5 52.5 94.5c9.667 38 9.5 83 -0.5 135c-19.333 90.667 -62.167 162 -128.5 214c-66.333 52 -144.167 78 -233.5 78c0 0 -183 0 -183 0c0 0 -63 296 -63 296c0 0 -257 0 -257 0c0 0 0 0 0 0m100 109c0 0 257 0 257 0c0 0 63 -295 63 -295c0 0 184 0 184 0c89.333 0 167 -26 233 -78c66 -52 109 -123.333 129 -214c18.667 -90 4.333 -163 -43 -219c22 49.333 26 106 12 170c-19.333 90.667 -62.167 162 -128.5 214c-66.333 52 -144.167 78 -233.5 78c0 0 -183 0 -183 0c0 0 -63 295 -63 295c0 0 -216 0 -216 0c0 0 -11 49 -11 49m257 -575c0 0 83 0 83 0c0 0 42 -183 42 -183c0 0 125 0 125 0c1.333 0 7 1 17 3c-5.333 -19.333 -15.833 -34.833 -31.5 -46.5c-15.667 -11.667 -34.167 -17.5 -55.5 -17.5c0 0 -125 0 -125 0c0 0 -55 244 -55 244m125 -1c32 -1.333 61.833 -13.667 89.5 -37c27.667 -23.333 45.167 -51.333 52.5 -84c0 -1.333 0.333 -3.333 1 -6c0.667 -2.667 1 -4.667 1 -6c0 0 -114 0 -114 0c0 0 -30 133 -30 133" />
  </g>
</svg>