<svg height="1000" width="774" xmlns="http://www.w3.org/2000/svg"><path d="M0 359q0-63 26.5-125t76-115 130-86 178.5-33q159 0 261 98t102 231q0 171-86.5 282.5t-223.5 111.5q-45 0-84.5-21t-55.5-51l-40 158q-5 19-13 38.5t-17.5 37.5-19 34-19 30-16.5 23.5-13 16.5l-6 8q-3 4-8 3t-6-6q0-1-1.5-14t-3-27.5-3-37.5-1-44.5 3-47.5 7.5-48q11-47 74-313-8-16-13-38.5t-5-36.5l-1-15q0-64 32.5-106.5t78.5-42.5q37 0 57.5 24.5t20.5 61.5q0 23-8.5 56.5t-22.5 77-20 70.5q-10 45 17.5 78t73.5 33q79 0 130.5-89.5t51.5-216.5q0-97-63-158.5t-176-61.5q-126 0-204.5 81t-78.5 194q0 67 38 113 13 15 8 32-2 5-6 23t-6 23q-2 11-10 14.5t-18-.5q-59-24-88.5-82.5t-29.5-136.5z"/></svg>