<svg height="1000px" width="774px" xmlns="http://www.w3.org/2000/svg">
  <g>
    <path d="M0 359c0 -42 8.833 -83.667 26.5 -125c17.667 -41.333 43 -79.667 76 -115c33 -35.333 76.333 -64 130 -86c53.667 -22 113.167 -33 178.5 -33c106 0 193 32.667 261 98c68 65.333 102 142.333 102 231c0 114 -28.833 208.167 -86.5 282.5c-57.667 74.333 -132.167 111.5 -223.5 111.5c-30 0 -58.167 -7 -84.5 -21c-26.333 -14 -44.833 -31 -55.5 -51c0 0 -40 158 -40 158c-3.333 12.667 -7.667 25.5 -13 38.5c-5.333 13 -11.167 25.5 -17.5 37.5c-6.333 12 -12.667 23.333 -19 34c-6.333 10.667 -12.667 20.667 -19 30c-6.333 9.333 -11.833 17.167 -16.5 23.5c-4.667 6.333 -9 11.833 -13 16.5c0 0 -6 8 -6 8c-2 2.667 -4.667 3.667 -8 3c-3.333 -0.667 -5.333 -2.667 -6 -6c0 -0.667 -0.5 -5.333 -1.5 -14c-1 -8.667 -2 -17.833 -3 -27.5c-1 -9.667 -2 -22.167 -3 -37.5c-1 -15.333 -1.333 -30.167 -1 -44.5c0.333 -14.333 1.333 -30.167 3 -47.5c1.667 -17.333 4.167 -33.333 7.5 -48c7.333 -31.333 32 -135.667 74 -313c-5.333 -10.667 -9.667 -23.5 -13 -38.5c-3.333 -15 -5 -27.167 -5 -36.5c0 0 -1 -15 -1 -15c0 -42.667 10.833 -78.167 32.5 -106.5c21.667 -28.333 47.833 -42.5 78.5 -42.5c24.667 0 43.833 8.167 57.5 24.5c13.667 16.333 20.5 36.833 20.5 61.5c0 15.333 -2.833 34.167 -8.5 56.5c-5.667 22.333 -13.167 48 -22.5 77c-9.333 29 -16 52.5 -20 70.5c-6.667 30 -0.833 56 17.5 78c18.333 22 42.833 33 73.5 33c52.667 0 96.167 -29.833 130.5 -89.5c34.333 -59.667 51.5 -131.833 51.5 -216.5c0 -64.667 -21 -117.5 -63 -158.5c-42 -41 -100.667 -61.5 -176 -61.5c-84 0 -152.167 27 -204.5 81c-52.333 54 -78.5 118.667 -78.5 194c0 44.667 12.667 82.333 38 113c8.667 10 11.333 20.667 8 32c-1.333 3.333 -3.333 11 -6 23c-2.667 12 -4.667 19.667 -6 23c-1.333 7.333 -4.667 12.167 -10 14.5c-5.333 2.333 -11.333 2.167 -18 -0.5c-39.333 -16 -68.833 -43.5 -88.5 -82.5c-19.667 -39 -29.5 -84.5 -29.5 -136.5c0 0 0 0 0 0" />
  </g>
</svg>