<svg height="1000px" width="1049px" xmlns="http://www.w3.org/2000/svg">
  <g>
    <path d="M0 613c6.667 -92.667 62.667 -150.333 168 -173c8 -59.333 22.167 -123.333 42.5 -192c20.333 -68.667 44.167 -117.333 71.5 -146c32 -32.667 72 -57.833 120 -75.5c48 -17.667 96.667 -26.5 146 -26.5c57.333 0 112 13 164 39c52 26 91 62.667 117 110c12.667 24 26.5 67.5 41.5 130.5c15 63 25.167 114.5 30.5 154.5c10 4 21.333 6 34 6c20 0 30 -9.667 30 -29c0 -7.333 -2 -18.5 -6 -33.5c-4 -15 -5.667 -26.833 -5 -35.5c0 0 0 -4 0 -4c0 0 1 0 1 0c18 0 38.333 17 61 51c22.667 34.667 34 61.667 34 81c0 13.333 -3.167 25.167 -9.5 35.5c-6.333 10.333 -12.667 18.5 -19 24.5c-6.333 6 -17.333 11.833 -33 17.5c-15.667 5.667 -26.5 9.167 -32.5 10.5c0 0 -36 8 -36 8c-3.333 0.667 -6 1.333 -8 2c0 0 0 26 0 26c0 115.333 -25.667 199.667 -77 253c0 0 25 25 25 25c2.667 1.333 11 5.167 25 11.5c14 6.333 25.833 12.5 35.5 18.5c9.667 6 15.833 12 18.5 18c-43.333 34 -87.333 51 -132 51c-22.667 0 -47.667 -5.667 -75 -17c-58.667 24.667 -118.667 37 -180 37c-78.667 0 -156.667 -20.333 -234 -61c-24 5.333 -42.333 11.667 -55 19c-4.667 2.667 -13.5 8.667 -26.5 18c-13 9.333 -25.167 17.167 -36.5 23.5c-11.333 6.333 -20.667 9.5 -28 9.5c-2 -12 -3 -24.333 -3 -37c0 -52.667 17.667 -94.667 53 -126c-40 -66 -60.667 -151.667 -62 -257c0 0 -7 -1 -7 -1c0 0 -3 0 -3 0c-20 -0.667 -45.333 5 -76 17c-32 12 -53.333 18.333 -64 19c-2.667 0 -6 -0.667 -10 -2c0 0 0 0 0 0m232 93c0 8.667 2.333 17.667 7 27c18 64 47.667 110 89 138c28.667 19.333 64 34.833 106 46.5c42 11.667 81 17.5 117 17.5c44 0 92.5 -9.333 145.5 -28c53 -18.667 92.833 -42.667 119.5 -72c45.333 -48.667 68 -134.333 68 -257c0 -150.667 -30.667 -277 -92 -379c-8 -13.333 -13.833 -22.5 -17.5 -27.5c-3.667 -5 -10 -10.167 -19 -15.5c-9 -5.333 -19.833 -8 -32.5 -8c-33.333 0 -69 20.333 -107 61c-50.667 -31.333 -97.333 -47 -140 -47c-39.333 0 -74.167 14.333 -104.5 43c-30.333 28.667 -54 63.5 -71 104.5c-17 41 -31 88 -42 141c-11 53 -18.167 100 -21.5 141c-3.333 41 -5 79.167 -5 114.5c0 0 0 0 0 0m181 -407c0 -14.667 5.167 -27.167 15.5 -37.5c10.333 -10.333 22.5 -15.5 36.5 -15.5c14.667 0 27.167 5.167 37.5 15.5c10.333 10.333 15.5 22.833 15.5 37.5c0 14.667 -5.167 27 -15.5 37c-10.333 10 -22.833 15 -37.5 15c-14 0 -26.167 -5 -36.5 -15c-10.333 -10 -15.5 -22.333 -15.5 -37c0 0 0 0 0 0m56 -18c0 8 4 12 12 12c3.333 0 6.167 -1.167 8.5 -3.5c2.333 -2.333 3.5 -5.167 3.5 -8.5c0 -3.333 -1.167 -6.333 -3.5 -9c-2.333 -2.667 -5.167 -4 -8.5 -4c-8 0 -12 4.333 -12 13c0 0 0 0 0 0m94 60c0 0 2 -2 2 -2c0 0 -1 3 -1 3c0 0 -1 -1 -1 -1m5 -5c0 0 52 -52 52 -52c0 0 51 52 51 52c-14.667 4.667 -31.333 7 -50 7c-19.333 0 -37 -2.333 -53 -7c0 0 0 0 0 0m2 22c18 3.333 34.667 5 50 5c14.667 0 31 -1.667 49 -5c0 0 -49 49 -49 49c0 0 -50 -49 -50 -49m105 -16c0 0 0 -3 0 -3c0 0 1 2 1 2c0 0 -1 1 -1 1m27 -43c0 -14.667 5.167 -27.167 15.5 -37.5c10.333 -10.333 22.833 -15.5 37.5 -15.5c14.667 0 27.167 5.167 37.5 15.5c10.333 10.333 15.5 22.833 15.5 37.5c0 14.667 -5.167 27 -15.5 37c-10.333 10 -22.833 15 -37.5 15c-14.667 0 -27.167 -5 -37.5 -15c-10.333 -10 -15.5 -22.333 -15.5 -37c0 0 0 0 0 0m56 -18c0 3.333 1.333 6.167 4 8.5c2.667 2.333 5.333 3.5 8 3.5c3.333 0 6.333 -1.167 9 -3.5c2.667 -2.333 4 -5.167 4 -8.5c0 -8.667 -4.333 -13 -13 -13c-3.333 0 -6.167 1.333 -8.5 4c-2.333 2.667 -3.5 5.667 -3.5 9c0 0 0 0 0 0" />
  </g>
</svg>