<svg height="1000" width="1050" xmlns="http://www.w3.org/2000/svg"><path d="M0 613q10-139 168-173 12-89 42.5-192t71.5-146q48-49 120-75.5t146-26.5q86 0 164 39t117 110q19 36 41.5 130.5t30.5 154.5q15 6 34 6 30 0 30-29 0-11-6-33.5t-5-35.5l0-4l1 0q27 0 61 51 34 52 34 81 0 20-9.5 35.5t-19 24.5-33 17.5-32.5 10.5l-36 8q-5 1-8 2l0 26q0 173-77 253l25 25q4 2 25 11.5t35.5 18.5 18.5 18q-65 51-132 51-34 0-75-17-88 37-180 37-118 0-234-61-36 8-55 19-7 4-26.5 18t-36.5 23.5-28 9.5q-3-18-3-37 0-79 53-126-60-99-62-257l-7-1l-3 0q-30-1-76 17-48 18-64 19-4 0-10-2zm232 93q0 13 7 27 27 96 89 138 43 29 106 46.5t117 17.5q66 0 145.5-28t119.5-72q68-73 68-257 0-226-92-379-12-20-17.5-27.5t-19-15.5-32.5-8q-50 0-107 61-76-47-140-47-59 0-104.5 43t-71 104.5-42 141-21.5 141-5 114.5zm181-407q0-22 15.5-37.5t36.5-15.5q22 0 37.5 15.5t15.5 37.5-15.5 37-37.5 15q-21 0-36.5-15t-15.5-37zm56-18q0 12 12 12 5 0 8.5-3.5t3.5-8.5-3.5-9-8.5-4q-12 0-12 13zm94 60l2-2-1 3zm5-5l52-52 51 52q-22 7-50 7-29 0-53-7zm2 22q27 5 50 5 22 0 49-5l-49 49zm105-16l0-3l1 2zm27-43q0-22 15.5-37.5t37.5-15.5 37.5 15.5 15.5 37.5-15.5 37-37.5 15-37.5-15-15.5-37zm56-18q0 5 4 8.5t8 3.5q5 0 9-3.5t4-8.5q0-13-13-13-5 0-8.5 4t-3.5 9z"/></svg>