<svg height="1000" width="1136" xmlns="http://www.w3.org/2000/svg"><path d="M2.123 330q-7.5-215 11.5-270 4-9 9.5-15.5t14-12.5 13.5-9.5 17.5-10 16.5-8.5q136 0 386-2t329-2l94 0t55 .5 56.5 2.5 45 6 32.5 10q16 9 27 24t16.5 29.5 7.5 40 2 42-.5 50-.5 49.5q0 207-23 327t-96 213q-70 88-164.5 139.5t-193 62.5-200-11-186.5-73.5-151-133-96-181.5q-15-52-22.5-267zm231.5-2q-26 28 15 89.5t104 123.5q2 2 39.5 40t53.5 52 47 35.5 57 28.5q11 3 22.5 3t19.5-1 19.5-6.5 16-7.5 15.5-11.5 12-10.5 12-11l3-3q9-9 60.5-56t86-80.5 67.5-79 35-75.5q-15-40-38-56t-50.5-8.5-56 26-59 48-56 56-49.5 51-37 32.5q-27-16-72.5-59.5t-82-82-73.5-64-55-14.5q-25 15-56 41z"/></svg>