<svg height="1000px" width="1134.375px" xmlns="http://www.w3.org/2000/svg">
  <g>
    <path d="M0.875 330.1671142578125c-5 -143.333 -1.167 -233.333 11.5 -270c2.667 -6 5.833 -11.167 9.5 -15.5c3.667 -4.333 8.333 -8.5 14 -12.5c5.667 -4 10.167 -7.167 13.5 -9.5c3.333 -2.333 9.167 -5.667 17.5 -10c8.333 -4.333 13.833 -7.167 16.5 -8.5c90.667 0 219.333 -0.667 386 -2c166.667 -1.333 276.333 -2 329 -2c0 0 40 0 40 0c0 0 54 0 54 0c0 0 18.333 0.167 55 0.5c36.667 0.333 55.5 1.167 56.5 2.5c1 1.333 16 3.333 45 6c29 2.667 39.833 6 32.5 10c10.667 6 19.667 14 27 24c7.333 10 12.833 19.833 16.5 29.5c3.667 9.667 6.167 23 7.5 40c1.333 17 2 31 2 42c0 11 -0.167 27.667 -0.5 50c-0.333 22.333 -0.5 38.833 -0.5 49.5c0 138 -7.667 247 -23 327c-15.333 80 -47.333 151 -96 213c-46.667 58.667 -101.5 105.167 -164.5 139.5c-63 34.333 -127.333 55.167 -193 62.5c-65.667 7.333 -132.333 3.667 -200 -11c-67.667 -14.667 -129.833 -39.167 -186.5 -73.5c-56.667 -34.333 -107 -78.667 -151 -133c-44 -54.333 -76 -114.833 -96 -181.5c-10 -34.667 -17.5 -123.667 -22.5 -267c0 0 0 0 0 0m231.5 -2c-17.333 18.667 -12.333 48.5 15 89.5c27.333 41 62 82.167 104 123.5c1.333 1.333 14.5 14.667 39.5 40c25 25.333 42.833 42.667 53.5 52c10.667 9.333 26.333 21.167 47 35.5c20.667 14.333 39.667 23.833 57 28.5c7.333 2 14.833 3 22.5 3c7.667 0 14.167 -0.333 19.5 -1c5.333 -0.667 11.833 -2.833 19.5 -6.5c7.667 -3.667 13 -6.167 16 -7.5c3 -1.333 8.167 -5.167 15.5 -11.5c7.333 -6.333 11.333 -9.833 12 -10.5c0.667 -0.667 4.667 -4.333 12 -11c0 0 3 -3 3 -3c6 -6 26.167 -24.667 60.5 -56c34.333 -31.333 63 -58.167 86 -80.5c23 -22.333 45.5 -48.667 67.5 -79c22 -30.333 33.667 -55.5 35 -75.5c-10 -26.667 -22.667 -45.333 -38 -56c-15.333 -10.667 -32.167 -13.5 -50.5 -8.5c-18.333 5 -37 13.667 -56 26c-19 12.333 -38.667 28.333 -59 48c-20.333 19.667 -39 38.333 -56 56c-17 17.667 -33.5 34.667 -49.5 51c-16 16.333 -28.333 27.167 -37 32.5c-18 -10.667 -42.167 -30.5 -72.5 -59.5c-30.333 -29 -57.667 -56.333 -82 -82c-24.333 -25.667 -48.833 -47 -73.5 -64c-24.667 -17 -43 -21.833 -55 -14.5c-16.667 10 -35.333 23.667 -56 41c0 0 0 0 0 0" />
  </g>
</svg>