<svg height="1000" width="1000" xmlns="http://www.w3.org/2000/svg"><path d="M0 519q0-141 67-260.5t182-189 251-69.5 251 69.5 182 189 67 260.5q0 4-.5 10t-.5 10q-8-208-152.5-353t-346.5-145-346.5 145-152.5 353q0-4-.5-10t-.5-10zm183-1q0-136 93-232.5t224-96.5 224 96.5 93 232.5q0 3-.5 10t-.5 10q-8-129-99-219t-217-90-217 90-99 219q0-3-.5-10t-.5-10zm166 195q0-33 4.5-59t10.5-43 18.5-29 23-18 28.5-9.5 31-4 35-.5 35 .5 31 4 28.5 9.5 23 18 18.5 29 10.5 43 4.5 59q0 118-44.5 202.5t-106.5 84.5-106.5-84.5-44.5-202.5zm47-280q0-44 30.5-76t73.5-32 73.5 32 30.5 76-30.5 76-73.5 32-73.5-32-30.5-76z"/></svg>