<svg height="1000px" width="1000px" xmlns="http://www.w3.org/2000/svg">
  <g>
    <path d="M0 519c0 -94 22.333 -180.833 67 -260.5c44.667 -79.667 105.333 -142.667 182 -189c76.667 -46.333 160.333 -69.5 251 -69.5c90.667 0 174.333 23.167 251 69.5c76.667 46.333 137.333 109.333 182 189c44.667 79.667 67 166.5 67 260.5c0 2.667 -0.167 6 -0.5 10c-0.333 4 -0.5 7.333 -0.5 10c-5.333 -138.667 -56.167 -256.333 -152.5 -353c-96.333 -96.667 -211.833 -145 -346.5 -145c-134.667 0 -250.167 48.333 -346.5 145c-96.333 96.667 -147.167 214.333 -152.5 353c0 -2.667 -0.167 -6 -0.5 -10c-0.333 -4 -0.5 -7.333 -0.5 -10c0 0 0 0 0 0m183 -1c0 -90.667 31 -168.167 93 -232.5c62 -64.333 136.667 -96.5 224 -96.5c87.333 0 162 32.167 224 96.5c62 64.333 93 141.833 93 232.5c0 2 -0.167 5.333 -0.5 10c-0.333 4.667 -0.5 8 -0.5 10c-5.333 -86 -38.333 -159 -99 -219c-60.667 -60 -133 -90 -217 -90c-84 0 -156.333 30 -217 90c-60.667 60 -93.667 133 -99 219c0 -2 -0.167 -5.333 -0.5 -10c-0.333 -4.667 -0.5 -8 -0.5 -10c0 0 0 0 0 0m166 195c0 -22 1.5 -41.667 4.5 -59c3 -17.333 6.5 -31.667 10.5 -43c4 -11.333 10.167 -21 18.5 -29c8.333 -8 16 -14 23 -18c7 -4 16.5 -7.167 28.5 -9.5c12 -2.333 22.333 -3.667 31 -4c8.667 -0.333 20.333 -0.5 35 -0.5c14.667 0 26.333 0.167 35 0.5c8.667 0.333 19 1.667 31 4c12 2.333 21.5 5.5 28.5 9.5c7 4 14.667 10 23 18c8.333 8 14.5 17.667 18.5 29c4 11.333 7.5 25.667 10.5 43c3 17.333 4.5 37 4.5 59c0 78.667 -14.833 146.167 -44.5 202.5c-29.667 56.333 -65.167 84.5 -106.5 84.5c-41.333 0 -76.833 -28.167 -106.5 -84.5c-29.667 -56.333 -44.5 -123.833 -44.5 -202.5c0 0 0 0 0 0m47 -280c0 -29.333 10.167 -54.667 30.5 -76c20.333 -21.333 44.833 -32 73.5 -32c28.667 0 53.167 10.667 73.5 32c20.333 21.333 30.5 46.667 30.5 76c0 29.333 -10.167 54.667 -30.5 76c-20.333 21.333 -44.833 32 -73.5 32c-28.667 0 -53.167 -10.667 -73.5 -32c-20.333 -21.333 -30.5 -46.667 -30.5 -76c0 0 0 0 0 0" />
  </g>
</svg>