<svg height="1000px" width="664px" xmlns="http://www.w3.org/2000/svg">
  <g>
    <path d="M0 15c0 0 100 0 100 0c0 0 8 121 8 121c0 0 10 0 10 0c0 0 5 -3 5 -3c52.667 -88.667 134.667 -133 246 -133c86.667 0 157.5 32.833 212.5 98.5c55 65.667 82.5 150.167 82.5 253.5c0 62 -9 117.5 -27 166.5c-18 49 -42.167 88.167 -72.5 117.5c-30.333 29.333 -64 51.667 -101 67c-37 15.333 -75.833 23 -116.5 23c-46 0 -87.833 -9.5 -125.5 -28.5c-37.667 -19 -66.5 -45.5 -86.5 -79.5c0 0 -2 -3 -2 -3c0 0 -11 0 -11 0c0 0 -3 7 -3 7c0 0 0 378 0 378c0 0 -113 0 -113 0c0 0 0 -761 0 -761c0 -58.667 -2 -133.333 -6 -224c0 0 0 0 0 0m119 413c0 20.667 2 39 6 55c12.667 46.667 37.333 84.333 74 113c36.667 28.667 78.667 43 126 43c67.333 0 121.333 -25.5 162 -76.5c40.667 -51 61 -119.167 61 -204.5c0 -79.333 -20.333 -144 -61 -194c-40.667 -50 -93 -75 -157 -75c-48 0 -90.667 15.167 -128 45.5c-37.333 30.333 -62 69.5 -74 117.5c-6 22 -9 39.667 -9 53c0 0 0 123 0 123c0 0 0 0 0 0" />
  </g>
</svg>