<svg height="1000px" width="924px" xmlns="http://www.w3.org/2000/svg">
  <g>
    <path d="M0 900c0 0 0 -333 0 -333c0 0 116 -129 116 -129c0 0 85 0 85 0c0 0 0 64 0 64c0 0 -56 0 -56 0c0 0 -80 89 -80 89c0 0 0 245 0 245c0 0 795 0 795 0c0 0 0 -245 0 -245c0 0 -80 -89 -80 -89c0 0 -56 0 -56 0c0 0 0 -64 0 -64c0 0 85 0 85 0c0 0 115 129 115 129c0 0 0 333 0 333c0 0 -924 0 -924 0c0 0 0 0 0 0m201 -319c0 0 0 -79 0 -79c0 0 0 -64 0 -64c0 0 0 -187 0 -187c0 0 151 -151 151 -151c0 0 372 0 372 0c0 0 0 338 0 338c0 0 0 64 0 64c0 0 0 79 0 79c0 0 -523 0 -523 0c0 0 0 0 0 0m60 -61c0 0 403 0 403 0c0 0 0 -360 0 -360c0 0 -252 0 -252 0c0 0 0 151 0 151c0 0 -151 0 -151 0c0 0 0 209 0 209c0 0 0 0 0 0" />
  </g>
</svg>