<svg height="1000px" width="889px" xmlns="http://www.w3.org/2000/svg">
  <g>
    <path d="M0 451c0 -81.333 19.833 -156.667 59.5 -226c39.667 -69.333 93.5 -124.167 161.5 -164.5c68 -40.333 142.333 -60.5 223 -60.5c122.667 0 227.5 44 314.5 132c87 88 130.5 194.333 130.5 319c0 79.333 -19 152.833 -57 220.5c-38 67.667 -89.333 121.833 -154 162.5c0.667 1.333 1.833 3.5 3.5 6.5c1.667 3 5.5 8.333 11.5 16c6 7.667 13 15 21 22c8 7 19 14.167 33 21.5c14 7.333 29 13 45 17c0 0 0 76 0 76c-24 4.667 -46.333 7 -67 7c-33.333 0 -61.667 -6 -85 -18c-37.333 -19.333 -67.667 -50.667 -91 -94c-32 8.667 -67 13 -105 13c-80 0 -154.167 -20.167 -222.5 -60.5c-68.333 -40.333 -122.333 -95 -162 -164c-39.667 -69 -59.5 -144.167 -59.5 -225.5c0 0 0 0 0 0m221 59c0 77.333 22.167 143.5 66.5 198.5c44.333 55 97.833 82.5 160.5 82.5c17.333 0 34.667 -2.667 52 -8c-1.333 -2 -3.167 -4.833 -5.5 -8.5c-2.333 -3.667 -7.167 -9.833 -14.5 -18.5c-7.333 -8.667 -15.167 -16.5 -23.5 -23.5c-8.333 -7 -18.667 -13.5 -31 -19.5c-12.333 -6 -24.5 -9.333 -36.5 -10c0 0 0 -79 0 -79c0 0 0 -9 0 -9c6.667 -0.667 13.333 -1 20 -1c79.333 0 147 30 203 90c42 -54 63 -118.667 63 -194c0 0 0 -116 0 -116c0 -77.333 -22.167 -143.5 -66.5 -198.5c-44.333 -55 -97.833 -82.5 -160.5 -82.5c-62.667 0 -116.167 27.5 -160.5 82.5c-44.333 55 -66.5 121.167 -66.5 198.5c0 0 0 116 0 116c0 0 0 0 0 0" />
  </g>
</svg>