<svg height="1000" width="889" xmlns="http://www.w3.org/2000/svg"><path d="M0 451q0-122 59.5-226t161.5-164.5 223-60.5q184 0 314.5 132t130.5 319q0 119-57 220.5t-154 162.5q1 2 3.5 6.5t11.5 16 21 22 33 21.5 45 17l0 76q-36 7-67 7-50 0-85-18-56-29-91-94-48 13-105 13-120 0-222.5-60.5t-162-164-59.5-225.5zm221 59q0 116 66.5 198.5t160.5 82.5q26 0 52-8-2-3-5.5-8.5t-14.5-18.5-23.5-23.5-31-19.5-36.5-10l0-88q10-1 20-1 119 0 203 90 63-81 63-194l0-116q0-116-66.5-198.5t-160.5-82.5-160.5 82.5-66.5 198.5l0 116z"/></svg>