<svg height="1000px" width="1205px" xmlns="http://www.w3.org/2000/svg">
  <g>
    <path d="M0 497c0 -41.333 16.5 -76.667 49.5 -106c33 -29.333 70.5 -44 112.5 -44c41.333 0 76.333 12 105 36c0 0 5 0 5 0c89.333 -54.667 201 -82 335 -82c0 0 5 -4 5 -4c0 0 70 -267 70 -267c0 0 242 36 242 36c0 0.667 0.667 1 2 1c0.667 0 0.667 -0.333 0 -1c1.333 -0.667 5.167 -5.833 11.5 -15.5c6.333 -9.667 11.167 -15.833 14.5 -18.5c22.667 -21.333 50 -32 82 -32c32.667 0 60.167 10.833 82.5 32.5c22.333 21.667 33.5 48.833 33.5 81.5c0 32.667 -11.167 60.667 -33.5 84c-22.333 23.333 -49.833 35 -82.5 35c-38 0 -67 -12.833 -87 -38.5c-20 -25.667 -30 -57.833 -30 -96.5c-1.333 0.667 -33.833 -3.667 -97.5 -13c-63.667 -9.333 -100.167 -15 -109.5 -17c0 0 -3 0 -3 0c-1.333 1.333 -6.833 19.167 -16.5 53.5c-9.667 34.333 -19.667 70.667 -30 109c-10.333 38.333 -16.167 59.5 -17.5 63.5c0 0 0 3 0 3c0 0 5 4 5 4c48 0 97.167 6.833 147.5 20.5c50.333 13.667 93.833 32.833 130.5 57.5c0 0 3 2 3 2c0.667 -0.667 1.333 -1 2 -1c0.667 0 1.333 -0.333 2 -1c16.667 -12 28.5 -20.333 35.5 -25c7 -4.667 16.833 -9 29.5 -13c12.667 -4 27 -6 43 -6c45.333 0 84 16 116 48c32 32 48 71 48 117c0 31.333 -8.833 60 -26.5 86c-17.667 26 -40.833 46 -69.5 60c0 130 -86.667 231 -260 303c-27.333 12 -46 19.667 -56 23c-21.333 6.667 -51.667 13 -91 19c-39.333 6 -70.333 9 -93 9c-80 0 -157 -11.667 -231 -35c-1.333 -1.333 -25.333 -14 -72 -38c-63.333 -34 -114.167 -72.667 -152.5 -116c-38.333 -43.333 -57.5 -95.333 -57.5 -156c0 0 -5 0 -5 0c-22 -11.333 -41.667 -28 -59 -50c0 0 -9 -12 -9 -12c-10 -18 -16.333 -33.167 -19 -45.5c-2.667 -12.333 -4 -29.167 -4 -50.5c0 0 0 0 0 0m34 12c0 44 19 81.333 57 112c3.333 -39.333 19.333 -78 48 -116c28.667 -38 62.333 -71.667 101 -101c-24.667 -17.333 -52 -26 -82 -26c-32.667 0 -61.5 13.5 -86.5 40.5c-25 27 -37.5 57.167 -37.5 90.5c0 0 0 0 0 0m102 146c0 36 10.333 70.667 31 104c20.667 33.333 47.167 61.833 79.5 85.5c32.333 23.667 66.5 43.5 102.5 59.5c36 16 71 27.333 105 34c50 9.333 98.667 14 146 14c82 0 159.667 -13.167 233 -39.5c73.333 -26.333 135 -67.167 185 -122.5c0 0 -3 0 -3 0c20 -25.333 34.333 -48.167 43 -68.5c8.667 -20.333 13 -44.5 13 -72.5c0 -36 -8.833 -70.333 -26.5 -103c-17.667 -32.667 -40.833 -60.667 -69.5 -84c-28.667 -23.333 -59.333 -43.5 -92 -60.5c-32.667 -17 -66 -29.833 -100 -38.5c-56.667 -15.333 -117 -23 -181 -23c-49.333 0 -99.833 6 -151.5 18c-51.667 12 -101.667 30 -150 54c-48.333 24 -87.833 57.167 -118.5 99.5c-30.667 42.333 -46 90.167 -46 143.5c0 0 0 0 0 0m186 -73c0 -24.667 7.5 -44.5 22.5 -59.5c15 -15 34.833 -22.5 59.5 -22.5c24.667 0 45.333 7.5 62 22.5c16.667 15 25 34.833 25 59.5c0 24 -8.5 44 -25.5 60c-17 16 -37.5 24 -61.5 24c-24 0 -43.667 -8 -59 -24c-15.333 -16 -23 -36 -23 -60c0 0 0 0 0 0m36 164c0 0 44 0 44 0c16.667 30 43.167 52.833 79.5 68.5c36.333 15.667 73.5 23.5 111.5 23.5c38.667 0 75.333 -7.833 110 -23.5c34.667 -15.667 62.667 -38.5 84 -68.5c0 0 41 0 41 0c-16.667 41.333 -47.667 73.333 -93 96c-45.333 22.667 -92.667 34 -142 34c-48 0 -95.167 -11.5 -141.5 -34.5c-46.333 -23 -77.5 -54.833 -93.5 -95.5c0 0 0 0 0 0m336 -164c0 -25.333 7.667 -45.333 23 -60c15.333 -14.667 35.667 -22 61 -22c22.667 0 42 8 58 24c16 16 24 35.333 24 58c0 22.667 -8 42.333 -24 59c-16 16.667 -35.333 25 -58 25c-24.667 0 -44.833 -7.833 -60.5 -23.5c-15.667 -15.667 -23.5 -35.833 -23.5 -60.5c0 0 0 0 0 0m255 -468c0 23.333 8.333 43.333 25 60c16.667 16.667 36.667 25 60 25c24 0 43.667 -8.167 59 -24.5c15.333 -16.333 23 -36.5 23 -60.5c0 -22.667 -8 -42 -24 -58c-16 -16 -35.333 -24 -58 -24c-22.667 0 -42.5 8.167 -59.5 24.5c-17 16.333 -25.5 35.5 -25.5 57.5c0 0 0 0 0 0m14 281c36.667 24 68.333 54.833 95 92.5c26.667 37.667 45.333 77.5 56 119.5c39.333 -28.667 59 -60.667 59 -96c0 -38.667 -11.833 -72 -35.5 -100c-23.667 -28 -54.5 -42 -92.5 -42c-30 0 -57.333 8.667 -82 26c0 0 0 0 0 0" />
  </g>
</svg>