<svg height="1000" width="1205" xmlns="http://www.w3.org/2000/svg"><path d="M0 497q0-62 49.5-106t112.5-44q62 0 105 36l5 0q134-82 335-82l5-4 70-267 242 36q0 1 2 1 1 0 0-1 2-1 11.5-15.5t14.5-18.5q34-32 82-32 49 0 82.5 32.5t33.5 81.5-33.5 84-82.5 35q-57 0-87-38.5t-30-96.5q-2 1-97.5-13t-109.5-17l-3 0q-2 2-16.5 53.5t-30 109-17.5 63.5l0 3l5 4q72 0 147.5 20.5t130.5 57.5l3 2q1-1 2-1t2-1q25-18 35.5-25t29.5-13 43-6q68 0 116 48t48 117q0 47-26.5 86t-69.5 60q0 195-260 303-41 18-56 23-32 10-91 19t-93 9q-120 0-231-35-2-2-72-38-95-51-152.5-116t-57.5-156l-5 0q-33-17-59-50l-9-12q-15-27-19-45.5t-4-50.5zm34 12q0 66 57 112 5-59 48-116t101-101q-37-26-82-26-49 0-86.5 40.5t-37.5 90.5zm102 146q0 54 31 104t79.5 85.5 102.5 59.5 105 34q75 14 146 14 123 0 233-39.5t185-122.5l-3 0q30-38 43-68.5t13-72.5q0-54-26.5-103t-69.5-84-92-60.5-100-38.5q-85-23-181-23-74 0-151.5 18t-150 54-118.5 99.5-46 143.5zm186-73q0-37 22.5-59.5t59.5-22.5 62 22.5 25 59.5q0 36-25.5 60t-61.5 24-59-24-23-60zm36 164l44 0q25 45 79.5 68.5t111.5 23.5q58 0 110-23.5t84-68.5l41 0q-25 62-93 96t-142 34q-72 0-141.5-34.5t-93.5-95.5zm336-164q0-38 23-60t61-22q34 0 58 24t24 58-24 59-58 25q-37 0-60.5-23.5t-23.5-60.5zm255-468q0 35 25 60t60 25q36 0 59-24.5t23-60.5q0-34-24-58t-58-24-59.5 24.5-25.5 57.5zm14 281q55 36 95 92.5t56 119.5q59-43 59-96 0-58-35.5-100t-92.5-42q-45 0-82 26z"/></svg>