<svg height="1000px" width="1000px" xmlns="http://www.w3.org/2000/svg">
  <g>
    <path d="M0 866c0 -36.667 13 -68 39 -94c26 -26 57.333 -39 94 -39c36.667 0 68 13 94 39c26 26 39 57.333 39 94c0 37.333 -13 68.833 -39 94.5c-26 25.667 -57.333 38.5 -94 38.5c-36.667 0 -68 -13 -94 -39c-26 -26 -39 -57.333 -39 -94c0 0 0 0 0 0m0 -335c0 0 0 -191 0 -191c119.333 0 229.667 29.5 331 88.5c101.333 59 181.5 139.167 240.5 240.5c59 101.333 88.5 211.667 88.5 331c0 0 -192 0 -192 0c0 -129.333 -45.667 -239.667 -137 -331c-92 -92 -202.333 -138 -331 -138c0 0 0 0 0 0m0 -339c0 0 0 -192 0 -192c135.333 0 264.667 26.5 388 79.5c123.333 53 229.667 124.167 319 213.5c89.333 89.333 160.5 195.667 213.5 319c53 123.333 79.5 252.667 79.5 388c0 0 -192 0 -192 0c0 -109.333 -21.333 -214 -64 -314c-42.667 -100 -100.167 -186 -172.5 -258c-72.333 -72 -158.333 -129.333 -258 -172c-99.667 -42.667 -204.167 -64 -313.5 -64c0 0 0 0 0 0" />
  </g>
</svg>