<svg height="1000px" width="861px" xmlns="http://www.w3.org/2000/svg">
  <g>
    <path d="M0 712c0 -29.333 10.5 -54.667 31.5 -76c21 -21.333 46.5 -32 76.5 -32c29.333 0 54.667 10.667 76 32c21.333 21.333 32 46.667 32 76c0 30.667 -11.333 56.667 -34 78c43.333 49.333 97.667 74 163 74c46 0 84.667 -13.667 116 -41c31.333 -28 47 -63.333 47 -106c0 -26 -8.333 -51.667 -25 -77c-15.333 -25.333 -35.333 -46.667 -60 -64c-22.667 -15.333 -61 -34.333 -115 -57c-50 -20 -90.667 -39.667 -122 -59c-28 -18 -52.333 -39.333 -73 -64c-20 -24 -35.333 -48.667 -46 -74c-9.333 -26 -14 -52.333 -14 -79c0 -67.333 27 -124.667 81 -172c54.667 -47.333 120.333 -71 197 -71c51.333 0 103 11 155 33c44 18.667 81.667 45.333 113 80c24.667 21.333 37 48 37 80c0 30 -10.667 55.5 -32 76.5c-21.333 21 -46.667 31.5 -76 31.5c-30 0 -55.5 -10.5 -76.5 -31.5c-21 -21 -31.5 -46.5 -31.5 -76.5c0 -14 3.333 -28.667 10 -44c-21.333 -10.667 -50.667 -16 -88 -16c-46 0 -83.333 10.333 -112 31c-28.667 20.667 -43 47.333 -43 80c0 28.667 12.667 54 38 76c26.667 22 69.333 45.667 128 71c61.333 26.667 108.333 51 141 73c34 22.667 61.333 47.333 82 74c22 27.333 38 55.667 48 85c0 0.667 0.333 1.667 1 3c0.667 1.333 1 2.333 1 3c-50 41.333 -75 94 -75 158c0 35.333 9.333 70 28 104c-7.333 8.667 -15.333 17.667 -24 27c-58 54.667 -126.667 82 -206 82c-79.333 0 -148.667 -21.333 -208 -64c-59.333 -42.667 -105.667 -107.333 -139 -194c0 0 3 -1 3 -1c-3.333 -10 -5 -19.667 -5 -29c0 0 0 0 0 0m613 75c0 34.667 12 64.167 36 88.5c24 24.333 53.333 36.5 88 36.5c34.667 0 64 -12.167 88 -36.5c24 -24.333 36 -53.833 36 -88.5c0 -34 -12 -63.167 -36 -87.5c-24 -24.333 -53.333 -36.5 -88 -36.5c-34.667 0 -64 12.167 -88 36.5c-24 24.333 -36 53.5 -36 87.5c0 0 0 0 0 0" />
  </g>
</svg>