<svg height="1000" width="986" xmlns="http://www.w3.org/2000/svg"><path d="M0 273q0-113 80-193t193-80q78 0 145 42 36-7 80-7 195 0 333 138t138 332q0 49-11 101 28 59 28 121 0 113-80 193t-193 80q-68 0-129-32-45 8-86 8-194 0-332-138t-138-333q0-47 9-94-37-65-37-138zm221 366q0 41 30 85 71 104 246 104 50 0 96.5-11t87.5-34 66-63.5 25-94.5q0-58-29.5-98t-73.5-58-95.5-32.5-95.5-23-73.5-26-29.5-44.5q0-33 36.5-49t74.5-16q40 0 66 12.5t38 30 21 35 24.5 30 39.5 12.5q27 0 47.5-19t20.5-46-15-54q-30-55-95-80t-138-25q-46 0-89 9t-83 29-64.5 56.5-24.5 86.5q0 66 40 106.5t97 57 114.5 28.5 97.5 33.5 40 58.5q0 29-23 49t-50.5 27-56.5 7q-38 0-64.5-10.5t-38.5-27-22.5-35-18-35-22.5-27-37-10.5q-28 0-48.5 17t-20.5 45z"/></svg>