<svg height="1000px" width="986px" xmlns="http://www.w3.org/2000/svg">
  <g>
    <path d="M0 273c0 -75.333 26.667 -139.667 80 -193c53.333 -53.333 117.667 -80 193 -80c52 0 100.333 14 145 42c24 -4.667 50.667 -7 80 -7c130 0 241 46 333 138c92 92 138 202.667 138 332c0 32.667 -3.667 66.333 -11 101c18.667 39.333 28 79.667 28 121c0 75.333 -26.667 139.667 -80 193c-53.333 53.333 -117.667 80 -193 80c-45.333 0 -88.333 -10.667 -129 -32c-30 5.333 -58.667 8 -86 8c-129.333 0 -240 -46 -332 -138c-92 -92 -138 -203 -138 -333c0 -31.333 3 -62.667 9 -94c-24.667 -43.333 -37 -89.333 -37 -138c0 0 0 0 0 0m221 366c0 27.333 10 55.667 30 85c47.333 69.333 129.333 104 246 104c33.333 0 65.5 -3.667 96.5 -11c31 -7.333 60.167 -18.667 87.5 -34c27.333 -15.333 49.333 -36.5 66 -63.5c16.667 -27 25 -58.5 25 -94.5c0 -38.667 -9.833 -71.333 -29.5 -98c-19.667 -26.667 -44.167 -46 -73.5 -58c-29.333 -12 -61.167 -22.833 -95.5 -32.5c-34.333 -9.667 -66.167 -17.333 -95.5 -23c-29.333 -5.667 -53.833 -14.333 -73.5 -26c-19.667 -11.667 -29.5 -26.5 -29.5 -44.5c0 -22 12.167 -38.333 36.5 -49c24.333 -10.667 49.167 -16 74.5 -16c26.667 0 48.667 4.167 66 12.5c17.333 8.333 30 18.333 38 30c8 11.667 15 23.333 21 35c6 11.667 14.167 21.667 24.5 30c10.333 8.333 23.5 12.5 39.5 12.5c18 0 33.833 -6.333 47.5 -19c13.667 -12.667 20.5 -28 20.5 -46c0 -18 -5 -36 -15 -54c-20 -36.667 -51.667 -63.333 -95 -80c-43.333 -16.667 -89.333 -25 -138 -25c-30.667 0 -60.333 3 -89 9c-28.667 6 -56.333 15.667 -83 29c-26.667 13.333 -48.167 32.167 -64.5 56.5c-16.333 24.333 -24.5 53.167 -24.5 86.5c0 44 13.333 79.5 40 106.5c26.667 27 59 46 97 57c38 11 76.167 20.5 114.5 28.5c38.333 8 70.833 19.167 97.5 33.5c26.667 14.333 40 33.833 40 58.5c0 19.333 -7.667 35.667 -23 49c-15.333 13.333 -32.167 22.333 -50.5 27c-18.333 4.667 -37.167 7 -56.5 7c-25.333 0 -46.833 -3.5 -64.5 -10.5c-17.667 -7 -30.5 -16 -38.5 -27c-8 -11 -15.5 -22.667 -22.5 -35c-7 -12.333 -13 -24 -18 -35c-5 -11 -12.5 -20 -22.5 -27c-10 -7 -22.333 -10.5 -37 -10.5c-18.667 0 -34.833 5.667 -48.5 17c-13.667 11.333 -20.5 26.333 -20.5 45c0 0 0 0 0 0" />
  </g>
</svg>