<svg height="1000px" width="1000px" xmlns="http://www.w3.org/2000/svg">
  <g>
    <path d="M0 238c0 -16.667 5.333 -31.833 16 -45.5c10.667 -13.667 24.333 -22.5 41 -26.5c0 0 197 -47 197 -47c-42 48 -63 104 -63 168c0 123.333 84.333 217.667 253 283c18.667 7.333 36.667 15.5 54 24.5c17.333 9 35.5 20.167 54.5 33.5c19 13.333 34.333 28.833 46 46.5c11.667 17.667 17.5 36.167 17.5 55.5c0 28.667 -11.667 51 -35 67c-23.333 16 -50 24 -80 24c-38.667 0 -79 -7.5 -121 -22.5c-42 -15 -77 -35.167 -105 -60.5c0 0 -79 179 -79 179c37.333 20.667 85.333 41 144 61c-6.667 1.333 -17.167 4.167 -31.5 8.5c-14.333 4.333 -27.167 7.667 -38.5 10c-11.333 2.333 -22 3.5 -32 3.5c-16.667 0 -31.833 -5.333 -45.5 -16c-13.667 -10.667 -22.5 -24.333 -26.5 -41c0 0 -164 -687 -164 -687c-1.333 -8 -2 -14 -2 -18c0 0 0 0 0 0m419 46c0 -25.333 11.667 -44.833 35 -58.5c23.333 -13.667 48.667 -20.5 76 -20.5c32.667 0 69.333 5.833 110 17.5c40.667 11.667 70 27.167 88 46.5c0 0 61 -170 61 -170c-60 -32 -122 -53 -186 -63c1.333 0 16.333 -4 45 -12c28.667 -8 52.5 -14 71.5 -18c19 -4 33.167 -6 42.5 -6c16.667 0 31.833 5.333 45.5 16c13.667 10.667 22.5 24.333 26.5 41c0 0 164 687 164 687c1.333 8 2 14 2 18c0 16.667 -5.333 31.833 -16 45.5c-10.667 13.667 -24.333 22.5 -41 26.5c0 0 -145 34 -145 34c31.333 -46.667 47 -97.333 47 -152c0 -74 -23.5 -134.833 -70.5 -182.5c-47 -47.667 -108.5 -84.167 -184.5 -109.5c-114 -38.667 -171 -85.333 -171 -140c0 0 0 0 0 0" />
  </g>
</svg>