<svg height="1000" width="1000" xmlns="http://www.w3.org/2000/svg"><path d="M0 238q0-25 16-45.5t41-26.5l197-47q-63 72-63 168 0 185 253 283 28 11 54 24.5t54.5 33.5 46 46.5 17.5 55.5q0 43-35 67t-80 24q-58 0-121-22.5t-105-60.5l-79 179q56 31 144 61-10 2-31.5 8.5t-38.5 10-32 3.5q-25 0-45.5-16t-26.5-41l-164-687q-2-12-2-18zm419 46q0-38 35-58.5t76-20.5q49 0 110 17.5t88 46.5l61-170q-90-48-186-63 2 0 45-12t71.5-18 42.5-6q25 0 45.5 16t26.5 41l164 687q2 12 2 18 0 25-16 45.5t-41 26.5l-145 34q47-70 47-152 0-111-70.5-182.5t-184.5-109.5q-171-58-171-140z"/></svg>