<svg height="1000px" width="1000px" xmlns="http://www.w3.org/2000/svg">
  <g>
    <path d="M0 567c0 0 0 -67 0 -67c0 0 0 -67 0 -67c0 0 0.833 -19.667 2.5 -59c1.667 -39.333 4 -59.833 7 -61.5c3 -1.667 7.667 -19.333 14 -53c6.333 -33.667 14.167 -52.167 23.5 -55.5c9.333 -3.333 21.167 -18.833 35.5 -46.5c14.333 -27.667 31.167 -43.5 50.5 -47.5c97.333 -73.333 216 -110 356 -110c0 0 11 0 11 0c0 0 5 0 5 0c0 0 0 777 0 777c0 0 124 0 124 0c0 0 0 -208 0 -208c4.667 7.333 17.667 28.5 39 63.5c21.333 35 38.333 61.5 51 79.5c19.333 26.667 40.5 44.333 63.5 53c23 8.667 53.5 13 91.5 13c0 0 36 0 36 0c0 0 0 -118 0 -118c-30 0 -51 -2.333 -63 -7c-12 -4.667 -26 -18.333 -42 -41c-9.333 -12 -21.667 -30.833 -37 -56.5c-15.333 -25.667 -24 -40.167 -26 -43.5c0 0 171 -238 171 -238c0 0 -148 0 -148 0c0 0 -136 189 -136 189c0 0 0 -453 0 -453c90 14.667 169.333 48 238 100c19.333 14.667 36.167 30.5 50.5 47.5c14.333 17 26.167 32.5 35.5 46.5c9.333 14 17.167 32.5 23.5 55.5c6.333 23 11 40.667 14 53c3 12.333 5.333 32.833 7 61.5c1.667 28.667 2.5 48.333 2.5 59c0 0 0 67 0 67c0 0 0 67 0 67c0 0 -0.833 19.667 -2.5 59c-1.667 39.333 -4 59.833 -7 61.5c-3 1.667 -7.667 19.333 -14 53c-6.333 33.667 -14.167 52.167 -23.5 55.5c-9.333 3.333 -21.167 18.833 -35.5 46.5c-14.333 27.667 -31.167 43.5 -50.5 47.5c-97.333 73.333 -219.667 110 -367 110c-147.333 0 -269.667 -36.667 -367 -110c-19.333 -14.667 -36.167 -30.5 -50.5 -47.5c-14.333 -17 -26.167 -32.5 -35.5 -46.5c-9.333 -14 -17.167 -32.5 -23.5 -55.5c-6.333 -23 -11 -40.667 -14 -53c-3 -12.333 -5.333 -32.833 -7 -61.5c-1.667 -28.667 -2.5 -48.333 -2.5 -59c0 0 0 0 0 0m81 149c44 44.667 108 67 192 67c53.333 0 99.167 -13.667 137.5 -41c38.333 -27.333 57.5 -66.667 57.5 -118c0 -34 -6 -62.167 -18 -84.5c-12 -22.333 -27 -37.5 -45 -45.5c-18 -8 -37.5 -14.5 -58.5 -19.5c-21 -5 -40.5 -8 -58.5 -9c-18 -1 -33 -4.833 -45 -11.5c-12 -6.667 -18 -16.667 -18 -30c0 -31.333 23.333 -46.667 70 -46c38 0 67 9.667 87 29c0 0 78 -78 78 -78c-40 -40 -96.667 -60 -170 -60c-52 0 -95.833 13.833 -131.5 41.5c-35.667 27.667 -53.5 66.833 -53.5 117.5c0 34 6.833 61.833 20.5 83.5c13.667 21.667 30.833 36.5 51.5 44.5c20.667 8 41.5 13.667 62.5 17c21 3.333 40.833 6.333 59.5 9c18.667 2.667 31 7.333 37 14c6.667 7.333 10 17.333 10 30c0 30.667 -24 46 -72 46c-51.333 0 -89 -12 -113 -36c0 0 -80 80 -80 80" />
  </g>
</svg>