<svg height="1000" width="1000" xmlns="http://www.w3.org/2000/svg"><path d="M0 567l0-134t2.5-59 7-61.5 14-53 23.5-55.5 35.5-46.5 50.5-47.5q146-110 356-110l16 0l0 777l124 0l0-208q7 11 39 63.5t51 79.5q29 40 63.5 53t91.5 13l36 0l0-118q-45 0-63-7t-42-41q-14-18-37-56.5t-26-43.5l171-238l-148 0l-136 189l0-453q135 22 238 100 29 22 50.5 47.5t35.5 46.5 23.5 55.5 14 53 7 61.5 2.5 59l0 134t-2.5 59-7 61.5-14 53-23.5 55.5-35.5 46.5-50.5 47.5q-146 110-367 110t-367-110q-29-22-50.5-47.5t-35.5-46.5-23.5-55.5-14-53-7-61.5-2.5-59zm81 149q66 67 192 67 80 0 137.5-41t57.5-118q0-51-18-84.5t-45-45.5-58.5-19.5-58.5-9-45-11.5-18-30q0-47 70-46 57 0 87 29l78-78q-60-60-170-60-78 0-131.5 41.5t-53.5 117.5q0 51 20.5 83.5t51.5 44.5 62.5 17 59.5 9 37 14q10 11 10 30 0 46-72 46-77 0-113-36z"/></svg>