<svg height="1000px" width="1151.5052185058594px" xmlns="http://www.w3.org/2000/svg">
  <g>
    <path d="M0 629c0 -10.667 1.167 -25.333 3.5 -44c2.333 -18.667 5.5 -29 9.5 -31c4 2 7.5 12.833 10.5 32.5c3 19.667 4.5 33.833 4.5 42.5c0 9.333 -1.5 23.5 -4.5 42.5c-3 19 -6.5 29.5 -10.5 31.5c-8.667 -4.667 -13 -29.333 -13 -74c0 0 0 0 0 0m64 0c0 -16.667 1.667 -41.333 5 -74c3.333 -32.667 5.333 -53 6 -61c0 -4 2 -6 6 -6c2.667 0 4.667 2 6 6c8 86 12 131 12 135c0 16 -1.833 39.667 -5.5 71c-3.667 31.333 -5.833 51 -6.5 59c-1.333 4.667 -3.333 7 -6 7c-4 0 -6 -2.333 -6 -7c-0.667 -7.333 -2.667 -26.833 -6 -58.5c-3.333 -31.667 -5 -55.5 -5 -71.5c0 0 0 0 0 0m81 0c0 -16 1.667 -40.5 5 -73.5c3.333 -33 5 -51.167 5 -54.5c0 -6 2.333 -9 7 -9c5.333 0 8 3 8 9c7.333 75.333 11 118 11 128c0 10 -3.667 55.333 -11 136c0 5.333 -2.667 8 -8 8c-4.667 0 -7 -2.667 -7 -8c0 -4.667 -1.667 -24.167 -5 -58.5c-3.333 -34.333 -5 -60.167 -5 -77.5c0 0 0 0 0 0m92 0c0 -25.333 0.5 -52.167 1.5 -80.5c1 -28.333 2.333 -60 4 -95c1.667 -35 2.833 -62.167 3.5 -81.5c0 -6.667 3 -10 9 -10c6.667 0 10 3.333 10 10c0.667 10.667 2.5 47.833 5.5 111.5c3 63.667 4.5 112.167 4.5 145.5c0 17.333 -1.667 43 -5 77c-3.333 34 -5 53.333 -5 58c0 6.667 -3.333 10 -10 10c-6 0 -9 -3.333 -9 -10c-6 -88 -9 -133 -9 -135c0 0 0 0 0 0m94 0c0 -36.667 1 -89.833 3 -159.5c2 -69.667 3.333 -112.5 4 -128.5c1.333 -8 5.333 -12 12 -12c6.667 0 10.667 4 12 12c0.667 21.333 2.167 65.667 4.5 133c2.333 67.333 3.5 119 3.5 155c0 16.667 -1.167 40.667 -3.5 72c-2.333 31.333 -3.833 51.667 -4.5 61c-1.333 8 -5.333 12 -12 12c-6.667 0 -10.667 -4 -12 -12c0 -7.333 -1.167 -27 -3.5 -59c-2.333 -32 -3.5 -56.667 -3.5 -74c0 0 0 0 0 0m95 0c0 -26.667 0.333 -55 1 -85c0.667 -30 1.5 -63.333 2.5 -100c1 -36.667 1.833 -65 2.5 -85c1.333 -10 6 -15 14 -15c8 0 12.667 5 14 15c0.667 20 1.5 48.333 2.5 85c1 36.667 1.833 70 2.5 100c0.667 30 1 58.333 1 85c0 1.333 -2 45 -6 131c0 0 0 -1 0 -1c-1.333 10 -6 15 -14 15c-8 0 -12.667 -4.667 -14 -14c-4 -86 -6 -129.667 -6 -131c0 0 0 0 0 0m95 1c0 -2 2 -119 6 -351c1.333 -12 6.667 -18 16 -18c9.333 0 14.667 6 16 18c4 232 6 349 6 351c0 0.667 -2 43 -6 127c-1.333 11.333 -6.667 17 -16 17c-9.333 0 -14.667 -5.667 -16 -17c-4 -84 -6 -126.333 -6 -127c0 0 0 0 0 0m80 -212.5c0 -55 0.333 -106.833 1 -155.5c-0.667 -6.667 3.5 -12.667 12.5 -18c9 -5.333 19.833 -9.167 32.5 -11.5c12.667 -2.333 24.167 -4.167 34.5 -5.5c10.333 -1.333 18.5 -2 24.5 -2c64.667 0 121 24.167 169 72.5c48 48.333 74.667 107.833 80 178.5c18.667 -8.667 37 -13 55 -13c38.667 0 71.833 15.167 99.5 45.5c27.667 30.333 41.667 67.167 42 110.5c0.333 43.333 -13.5 80.167 -41.5 110.5c-28 30.333 -61.333 45.5 -100 45.5c0 0 -393 0 -393 0c-4 0 -7.5 -2 -10.5 -6c-3 -4 -4.5 -8.333 -4.5 -13c0 -36.667 -0.167 -88.5 -0.5 -155.5c-0.333 -67 -0.5 -128 -0.5 -183c0 0 0 0 0 0" />
  </g>
</svg>