<svg height="1000" width="1152" xmlns="http://www.w3.org/2000/svg"><path d="M0 629q0-16 3.5-44t9.5-31q6 3 10.5 32.5t4.5 42.5q0 14-4.5 42.5t-10.5 31.5q-13-7-13-74zm64 0q0-25 5-74t6-61q0-6 6-6 4 0 6 6 12 129 12 135 0 24-5.5 71t-6.5 59q-2 7-6 7-6 0-6-7-1-11-6-58.5t-5-71.5zm81 0q0-24 5-73.5t5-54.5q0-9 7-9 8 0 8 9 11 113 11 128t-11 136q0 8-8 8-7 0-7-8 0-7-5-58.5t-5-77.5zm92 0q0-38 1.5-80.5t4-95 3.5-81.5q0-10 9-10 10 0 10 10 1 16 5.5 111.5t4.5 145.5q0 26-5 77t-5 58q0 10-10 10-9 0-9-10-9-132-9-135zm94 0q0-55 3-159.5t4-128.5q2-12 12-12t12 12q1 32 4.5 133t3.5 155q0 25-3.5 72t-4.5 61q-2 12-12 12t-12-12q0-11-3.5-59t-3.5-74zm95 0q0-40 1-85t2.5-100 2.5-85q2-15 14-15t14 15q1 30 2.5 85t2.5 100 1 85q0 2-6 131l0-1q-2 15-14 15t-14-14q-6-129-6-131zm95 1q0-3 6-351 2-18 16-18t16 18q6 348 6 351 0 1-6 127-2 17-16 17t-16-17q-6-126-6-127zm80-212.5q0-82.5 1-155.5-1-10 12.5-18t32.5-11.5 34.5-5.5 24.5-2q97 0 169 72.5t80 178.5q28-13 55-13 58 0 99.5 45.5t42 110.5-41.5 110.5-100 45.5l-393 0q-6 0-10.5-6t-4.5-13q0-55-.5-155.5t-.5-183z"/></svg>