<svg height="1000px" width="1000px" xmlns="http://www.w3.org/2000/svg">
  <g>
    <path d="M0 500c0 -90.667 22.333 -174.333 67 -251c44.667 -76.667 105.333 -137.333 182 -182c76.667 -44.667 160.333 -67 251 -67c90.667 0 174.333 22.333 251 67c76.667 44.667 137.333 105.333 182 182c44.667 76.667 67 160.333 67 251c0 67.333 -12.667 131.333 -38 192c-25.333 60.667 -61 114 -107 160c-40 -48.667 -88.5 -86.667 -145.5 -114c-57 -27.333 -117.833 -41 -182.5 -41c-71.333 0 -137.667 16.5 -199 49.5c-61.333 33 -111.667 77.833 -151 134.5c-55.333 -47.333 -98.667 -104 -130 -170c-31.333 -66 -47 -136.333 -47 -211c0 0 0 0 0 0m164 -144c0 11.333 4 21.167 12 29.5c8 8.333 18 12.5 30 12.5c4 0 7 -0.333 9 -1c96 -38.667 195.333 -58 298 -58c102.667 0 202 19.333 298 58c0.667 0 2 0.167 4 0.5c2 0.333 3.667 0.5 5 0.5c11.333 0 21.167 -4.167 29.5 -12.5c8.333 -8.333 12.5 -18.167 12.5 -29.5c0 -16.667 -7.667 -29 -23 -37c-106 -42 -214.667 -63 -326 -63c-113.333 0 -223 21.333 -329 64c-13.333 8.667 -20 20.667 -20 36c0 0 0 0 0 0m46 149c0 0 6 16 6 16c5.333 8.667 13 13 23 13c2 0 5 -0.667 9 -2c84.667 -36.667 173 -55 265 -55c92.667 0 181.667 18.667 267 56c2.667 1.333 5 2 7 2c10 0 17.667 -4.333 23 -13c0 0 5 -17 5 -17c0 -8.667 -3.333 -15.667 -10 -21c-92 -41.333 -189.333 -62 -292 -62c-102 0 -199.667 20.667 -293 62c-6.667 6.667 -10 13.667 -10 21c0 0 0 0 0 0m48 144c6.667 16.667 17 22 31 16c72 -34 146.667 -51 224 -51c74.667 0 147.667 16 219 48c16 8.667 27.667 4.667 35 -12c3.333 -8.667 3.333 -16.333 0 -23c-3.333 -6.667 -8 -11.667 -14 -15c-70.667 -35.333 -150.667 -53 -240 -53c-85.333 0 -166.667 18.333 -244 55c-12.667 6.667 -16.333 18.333 -11 35c0 0 0 0 0 0m61 317c24.667 -32 55.167 -57.333 91.5 -76c36.333 -18.667 75.167 -28 116.5 -28c76 0 140.333 28.667 193 86c-69.333 34.667 -142.667 52 -220 52c-62.667 0 -123 -11.333 -181 -34c0 0 0 0 0 0" />
  </g>
</svg>