<svg height="1000" width="1078" xmlns="http://www.w3.org/2000/svg"><path d="M0 417.747q0-121.5 93-209.5 58-55 133.5-75t153 1.5 137.5 84.5q44 46 62.5 107t15 115.5-23.5 102.5q-19 41-3 93t40 88.5 50.5 68.5 26.5 33l-11-9q-10-10-21.5-20.5t-31-25.5-38-27-42.5-25-45-18.5-44.5-7.5-42.5 7q-47 19-103.5 20t-117-22-102.5-69q-86-91-86-212.5zm132-19.5q-9 69 33.5 124.5t111.5 64.5 124-33.5 64-111.5-33-124-111-64-124.5 33-64.5 111zm478-294q21-59 74-87.5t113-8.5q58 18 86.5 72t8.5 116q-24 72-114 104-31 11-55.5 33.5t-34.5 38-23 40.5q22-94-24-159-55-80-31-149zm38 495q2-92 63-155t152-63q89 0 152 61.5t63 156.5q0 110-110 195-38 29-62 71t-30.5 68-12.5 67q-4-40-10-67t-30-69.5-65-73.5q-111-83-110-191zm38-472q-11 27 .5 54.5t38.5 38.5 54 0 38-38q11-28 0-55t-38-38-54.5 0-38.5 38zm66.5 514.5q18.5 45.5 65.5 65.5 46 19 92-.5t65-65.5 0-91.5-65-65.5q-46-19-92 0t-65 65q-19 47-.5 92.5z"/></svg>