<svg height="1000px" width="1078px" xmlns="http://www.w3.org/2000/svg">
  <g>
    <path d="M0 417.6215209960937c0 -81 31 -150.833 93 -209.5c38.667 -36.667 83.167 -61.667 133.5 -75c50.333 -13.333 101.333 -12.833 153 1.5c51.667 14.333 97.5 42.5 137.5 84.5c29.333 30.667 50.167 66.333 62.5 107c12.333 40.667 17.333 79.167 15 115.5c-2.333 36.333 -10.167 70.5 -23.5 102.5c-12.667 27.333 -13.667 58.333 -3 93c10.667 34.667 24 64.167 40 88.5c16 24.333 32.833 47.167 50.5 68.5c17.667 21.333 26.5 32.333 26.5 33c0 0 -11 -9 -11 -9c-6.667 -6.667 -13.833 -13.5 -21.5 -20.5c-7.667 -7 -18 -15.5 -31 -25.5c-13 -10 -25.667 -19 -38 -27c-12.333 -8 -26.5 -16.333 -42.5 -25c-16 -8.667 -31 -14.833 -45 -18.5c-14 -3.667 -28.833 -6.167 -44.5 -7.5c-15.667 -1.333 -29.833 1 -42.5 7c-31.333 12.667 -65.833 19.333 -103.5 20c-37.667 0.667 -76.667 -6.667 -117 -22c-40.333 -15.333 -74.5 -38.333 -102.5 -69c-57.333 -60.667 -86 -131.5 -86 -212.5c0 0 0 0 0 0m132 -19.5c-6 46 5.167 87.5 33.5 124.5c28.333 37 65.5 58.5 111.5 64.5c46 6 87.333 -5.167 124 -33.5c36.667 -28.333 58 -65.5 64 -111.5c6 -46 -5 -87.333 -33 -124c-28 -36.667 -65 -58 -111 -64c-46 -6 -87.5 5 -124.5 33c-37 28 -58.5 65 -64.5 111c0 0 0 0 0 0m478 -294c14 -39.333 38.667 -68.5 74 -87.5c35.333 -19 73 -21.833 113 -8.5c38.667 12 67.5 36 86.5 72c19 36 21.833 74.667 8.5 116c-16 48 -54 82.667 -114 104c-20.667 7.333 -39.167 18.5 -55.5 33.5c-16.333 15 -27.833 27.667 -34.5 38c-6.667 10.333 -14.333 23.833 -23 40.5c14.667 -62.667 6.667 -115.667 -24 -159c-36.667 -53.333 -47 -103 -31 -149c0 0 0 0 0 0m38 495c1.333 -61.333 22.333 -113 63 -155c40.667 -42 91.333 -63 152 -63c59.333 0 110 20.5 152 61.5c42 41 63 93.167 63 156.5c0 73.333 -36.667 138.333 -110 195c-25.333 19.333 -46 43 -62 71c-16 28 -26.167 50.667 -30.5 68c-4.333 17.333 -8.5 39.667 -12.5 67c-2.667 -26.667 -6 -49 -10 -67c-4 -18 -14 -41.167 -30 -69.5c-16 -28.333 -37.667 -52.833 -65 -73.5c-74 -55.333 -110.667 -119 -110 -191c0 0 0 0 0 0m38 -472c-7.333 18 -7.167 36.167 0.5 54.5c7.667 18.333 20.5 31.167 38.5 38.5c18 7.333 36 7.333 54 0c18 -7.333 30.667 -20 38 -38c7.333 -18.667 7.333 -37 0 -55c-7.333 -18 -20 -30.667 -38 -38c-18 -7.333 -36.167 -7.333 -54.5 0c-18.333 7.333 -31.167 20 -38.5 38c0 0 0 0 0 0m66.5 514.5c12.333 30.333 34.167 52.167 65.5 65.5c30.667 12.667 61.333 12.5 92 -0.5c30.667 -13 52.333 -34.833 65 -65.5c12.667 -30.667 12.667 -61.167 0 -91.5c-12.667 -30.333 -34.333 -52.167 -65 -65.5c-30.667 -12.667 -61.333 -12.667 -92 0c-30.667 12.667 -52.333 34.333 -65 65c-12.667 31.333 -12.833 62.167 -0.5 92.5c0 0 0 0 0 0" />
  </g>
</svg>