<svg height="1000px" width="1312px" xmlns="http://www.w3.org/2000/svg">
  <g>
    <path d="M0 380c0 -36.667 12.833 -68 38.5 -94c25.667 -26 56.833 -39 93.5 -39c31.333 0 59.167 9.833 83.5 29.5c24.333 19.667 39.833 44.5 46.5 74.5c0 0 502 202 502 202c21.333 -12.667 44 -19 68 -19c1.333 0 3.5 0.167 6.5 0.5c3 0.333 5.5 0.5 7.5 0.5c0 0 110 -159 110 -159c0.667 -48.667 18.333 -90.167 53 -124.5c34.667 -34.333 76.333 -51.5 125 -51.5c49.333 0 91.333 17.333 126 52c34.667 34.667 52 76.667 52 126c0 49.333 -17.333 91.333 -52 126c-34.667 34.667 -76.667 52 -126 52c0 0 -170 124 -170 124c-3.333 34 -17.667 62.5 -43 85.5c-25.333 23 -55 34.5 -89 34.5c-32 0 -60 -10 -84 -30c-24 -20 -39.333 -45 -46 -75c0 0 -502 -201 -502 -201c-21.333 12.667 -44 19 -68 19c-36.667 0 -67.833 -13 -93.5 -39c-25.667 -26 -38.5 -57.333 -38.5 -94c0 0 0 0 0 0m35 0c0 26.667 9.5 49.5 28.5 68.5c19 19 41.833 28.5 68.5 28.5c6 0 13 -0.667 21 -2c0 0 -41 -16 -41 -16c0 0 0 -1 0 -1c-18.667 -8.667 -32 -22.667 -40 -42c-4 -9.333 -6 -18.667 -6 -28c0 -10 2 -20 6 -30c8 -20 21.333 -34 40 -42c10 -4.667 20.333 -6.667 31 -6c8.667 0 17.667 1.667 27 5c0 0 0 -1 0 -1c0 0 49 20 49 20c-19.333 -34.667 -48.333 -52 -87 -52c-26.667 0 -49.5 9.5 -68.5 28.5c-19 19 -28.5 42.167 -28.5 69.5c0 0 0 0 0 0m710 333c19.333 34.667 48.333 52 87 52c26.667 0 49.667 -9.5 69 -28.5c19.333 -19 29 -42.167 29 -69.5c0 -26.667 -9.5 -49.5 -28.5 -68.5c-19 -19 -42.167 -28.5 -69.5 -28.5c-9.333 0 -16.333 0.667 -21 2c0 0 40 16 40 16c20 8 34.333 22 43 42c4.667 10 7 20 7 30c0 9.333 -2 19 -6 29c-8 20.667 -22 35 -42 43c-10 4 -20 6 -30 6c-9.333 0 -19 -2 -29 -6c-5.333 -2 -13.5 -5.167 -24.5 -9.5c-11 -4.333 -19.167 -7.5 -24.5 -9.5c0 0 0 0 0 0m270 -335c0 32.667 11.667 60.667 35 84c23.333 23.333 51.333 35 84 35c33.333 0 61.667 -11.667 85 -35c23.333 -23.333 35 -51.333 35 -84c0 -32.667 -11.667 -60.667 -35 -84c-23.333 -23.333 -51.667 -35 -85 -35c-32.667 0 -60.667 11.667 -84 35c-23.333 23.333 -35 51.333 -35 84c0 0 0 0 0 0m25 -1c0 26.667 9.167 49.333 27.5 68c18.333 18.667 40.833 28 67.5 28c26 0 48.333 -9.333 67 -28c18.667 -18.667 28 -41.333 28 -68c0 -26 -9.333 -48.333 -28 -67c-18.667 -18.667 -41 -28 -67 -28c-26.667 0 -49.167 9.333 -67.5 28c-18.333 18.667 -27.5 41 -27.5 67c0 0 0 0 0 0" />
  </g>
</svg>