<svg height="1000" width="1312" xmlns="http://www.w3.org/2000/svg"><path d="M0 380q0-55 38.5-94t93.5-39q47 0 83.5 29.5t46.5 74.5l502 202q32-19 68-19 2 0 6.5.5t7.5.5l110-159q1-73 53-124.5t125-51.5q74 0 126 52t52 126-52 126-126 52l-170 124q-5 51-43 85.5t-89 34.5q-48 0-84-30t-46-75l-502-201q-32 19-68 19-55 0-93.5-39t-38.5-94zm35 0q0 40 28.5 68.5t68.5 28.5q9 0 21-2l-41-16l0-1q-28-13-40-42-6-14-6-28 0-15 6-30 12-30 40-42 15-7 31-6 13 0 27 5l0-1l49 20q-29-52-87-52-40 0-68.5 28.5t-28.5 69.5zm710 333q29 52 87 52 40 0 69-28.5t29-69.5q0-40-28.5-68.5t-69.5-28.5q-14 0-21 2l40 16q30 12 43 42 7 15 7 30 0 14-6 29-12 31-42 43-15 6-30 6-14 0-29-6-8-3-24.5-9.5t-24.5-9.5zm270-335q0 49 35 84t84 35q50 0 85-35t35-84-35-84-85-35q-49 0-84 35t-35 84zm25-1q0 40 27.5 68t67.5 28q39 0 67-28t28-68q0-39-28-67t-67-28q-40 0-67.5 28t-27.5 67z"/></svg>