<svg height="1000px" width="667px" xmlns="http://www.w3.org/2000/svg">
  <g>
    <path d="M0 337.509033203125c-7.333 -100.667 34.667 -184.667 126 -252c42 -31.333 90.333 -54.667 145 -70c52 -15.333 110.333 -19 175 -11c64.667 8 125 27.667 181 59c-1.333 26.667 -1.333 52 0 76c4 79.333 0.667 130.333 -10 153c-6 -0.667 -23.333 -5.333 -52 -14c-24 -7.333 -46 -12.667 -66 -16c-20.667 -4 -41 -6.667 -61 -8c-46.667 -4 -79.667 8.667 -99 38c5.333 29.333 18 51.333 38 66c20 14 47.333 26.333 82 37c32.667 9.333 55.667 18 69 26c75.333 46.667 121.667 119.667 139 219c0 0 0 80 0 80c0 0 0 5 0 5c0 54 -14.833 101.5 -44.5 142.5c-29.667 41 -69.167 71.833 -118.5 92.5c-70 29.333 -151.5 42.167 -244.5 38.5c-93 -3.667 -172.833 -23.5 -239.5 -59.5c2 -27.333 2 -53.667 0 -79c-2 -28 -2.667 -55 -2 -81c1.333 -28.667 5.333 -51.667 12 -69c12 2 28 5.667 48 11c35.333 10 60 16.333 74 19c110 24 169 10.667 177 -40c2 -14.667 -1.5 -28.167 -10.5 -40.5c-9 -12.333 -20.5 -22.167 -34.5 -29.5c-18.667 -9.333 -34.667 -16.667 -48 -22c-19.333 -8 -31.667 -13.667 -37 -17c-29.333 -15.333 -49 -26 -59 -32c-38 -22.667 -64.667 -45.333 -80 -68c-36 -51.333 -56 -102.667 -60 -154c0 0 0 0 0 0" />
  </g>
</svg>