<svg height="1000px" width="1309px" xmlns="http://www.w3.org/2000/svg">
  <g>
    <path d="M0 707c0 0 0 -181 0 -181c0 0 224 0 224 0c0 0 0 179 0 179c0 18.667 6.667 34.833 20 48.5c13.333 13.667 29.667 20.5 49 20.5c19.333 0 35.833 -6.667 49.5 -20c13.667 -13.333 20.5 -29.667 20.5 -49c0 0 0 -423 0 -423c0 -78 28.833 -144.5 86.5 -199.5c57.667 -55 126.167 -82.5 205.5 -82.5c79.333 0 147.833 27.667 205.5 83c57.667 55.333 86.5 122.333 86.5 201c0 0 0 92 0 92c0 0 -134 40 -134 40c0 0 -89 -42 -89 -42c0 0 0 -80 0 -80c0 -19.333 -6.667 -35.667 -20 -49c-13.333 -13.333 -29.667 -20 -49 -20c-19.333 0 -35.833 6.667 -49.5 20c-13.667 13.333 -20.5 29.667 -20.5 49c0 0 0 417 0 417c0 80 -28.667 148.167 -86 204.5c-57.333 56.333 -126 84.5 -206 84.5c-80.667 0 -149.667 -28.5 -207 -85.5c-57.333 -57 -86 -126.167 -86 -207.5c0 0 0 0 0 0m724 3c0 0 0 -183 0 -183c0 0 89 42 89 42c0 0 134 -40 134 -40c0 0 0 184 0 184c0 19.333 6.667 35.833 20 49.5c13.333 13.667 29.667 20.5 49 20.5c19.333 0 35.667 -6.833 49 -20.5c13.333 -13.667 20 -30.167 20 -49.5c0 0 0 -187 0 -187c0 0 224 0 224 0c0 0 0 181 0 181c0 80.667 -28.5 149.667 -85.5 207c-57 57.333 -125.833 86 -206.5 86c-80.667 0 -149.667 -28.333 -207 -85c-57.333 -56.667 -86 -125 -86 -205c0 0 0 0 0 0" />
  </g>
</svg>