<svg height="1000px" width="616px" xmlns="http://www.w3.org/2000/svg">
  <g>
    <path d="M0 410c0 0 0 -142 0 -142c40 -13.333 73.667 -31.667 101 -55c27.333 -22 49.667 -50.667 67 -86c17.333 -34 29 -76.333 35 -127c0 0 143 0 143 0c0 0 0 253 0 253c0 0 237 0 237 0c0 0 0 157 0 157c0 0 -237 0 -237 0c0 0 0 256 0 256c0 57.333 3 94.667 9 112c6 16 17.333 29 34 39c22.667 13.333 48 20 76 20c51.333 0 101.667 -16.333 151 -49c0 0 0 157 0 157c-42 20.667 -80.667 35 -116 43c-34.667 8 -72 12 -112 12c-45.333 0 -86 -5.667 -122 -17c-36.667 -12.667 -66.333 -29.333 -89 -50c-24 -20.667 -41.333 -43.333 -52 -68c-9.333 -22.667 -14 -57.667 -14 -105c0 0 0 -350 0 -350c0 0 -111 0 -111 0c0 0 0 0 0 0" />
  </g>
</svg>