<svg height="1000px" width="1230px" xmlns="http://www.w3.org/2000/svg">
  <g>
    <path d="M0 887c20 2 40 3 60 3c117.333 0 222 -36 314 -108c-54.667 -0.667 -103.667 -17.333 -147 -50c-43.333 -32.667 -73 -74.333 -89 -125c13.333 2.667 29 4 47 4c23.333 0 45.667 -3 67 -9c-58.667 -11.333 -107.167 -40.167 -145.5 -86.5c-38.333 -46.333 -57.5 -99.833 -57.5 -160.5c0 0 0 -3 0 -3c35.333 20 73.667 30.333 115 31c-34.667 -22.667 -62.167 -52.5 -82.5 -89.5c-20.333 -37 -30.5 -77.167 -30.5 -120.5c0 -45.333 11.667 -87.667 35 -127c62.667 78 139.167 140.167 229.5 186.5c90.333 46.333 187.167 72.167 290.5 77.5c-4.667 -22 -7 -41.333 -7 -58c0 -69.333 24.667 -128.667 74 -178c49.333 -49.333 109 -74 179 -74c72.667 0 134 26.667 184 80c58 -12 111.333 -32.667 160 -62c-18.667 60.667 -55.333 107.333 -110 140c48.667 -6 96.667 -19.333 144 -40c-32 50 -73.667 93.667 -125 131c0 0 0 33 0 33c0 67.333 -9.833 134.833 -29.5 202.5c-19.667 67.667 -49.667 132.333 -90 194c-40.333 61.667 -88.5 116.5 -144.5 164.5c-56 48 -123.167 86.167 -201.5 114.5c-78.333 28.333 -162.5 42.5 -252.5 42.5c-139.333 0 -268.333 -37.667 -387 -113c0 0 0 0 0 0" />
  </g>
</svg>