<svg height="1000px" width="878px" xmlns="http://www.w3.org/2000/svg">
  <g>
    <path d="M0 633c0 98 33.667 183.667 101 257c67.333 73.333 154 110 260 110c105.333 0 191.667 -36.667 259 -110c67.333 -72 101 -157.667 101 -257c0 -52 -9 -100.667 -27 -146c-26.667 16.667 -55 28 -85 34c14.667 34 22 72 22 114c0 50.667 -12 98 -36 142c-24.667 44 -57.667 77.667 -99 101c-41.333 24 -86.333 36 -135 36c-50 0 -95.333 -12 -136 -36c-42 -24.667 -74.667 -58.333 -98 -101c-24.667 -43.333 -37 -90.667 -37 -142c0 -78 26.667 -145.333 80 -202c53.333 -55.333 117 -83 191 -83c34 0 66.667 6.333 98 19c2.667 -26 11.667 -54.667 27 -86c-38 -14 -79.667 -21 -125 -21c-106.667 0 -195.333 39.333 -266 118c-63.333 71.333 -95 155.667 -95 253c0 0 0 0 0 0m280 253c0 0 56 4 56 4c49.333 -31.333 90.833 -67.667 124.5 -109c33.667 -41.333 57.833 -82.667 72.5 -124c14.667 -41.333 25 -83.333 31 -126c4 -27.333 6 -54 6 -80c0 -14 -0.667 -27.333 -2 -40c-3.333 -36.667 -7.5 -69.5 -12.5 -98.5c-5 -29 -10.167 -51.833 -15.5 -68.5c0 0 -9 -25 -9 -25c-14.667 -45.333 -29.167 -85 -43.5 -119c-14.333 -34 -24.833 -56.333 -31.5 -67c0 0 -11 -17 -11 -17c26 13.333 47 29.333 63 48c15.333 19.333 24.667 37 28 53c2.667 13.333 4 26.333 4 39c0 0 0 7 0 7c-0.667 14.667 -2.667 26.333 -6 35c0 0 -5 13 -5 13c2.667 38.667 4.333 76 5 112c0 34.667 -1.667 68.667 -5 102c-6 66.667 -16.167 122.333 -30.5 167c-14.333 44.667 -30.833 85.167 -49.5 121.5c-18.667 36.333 -37.833 64.833 -57.5 85.5c-19.667 20.667 -37.833 37.833 -54.5 51.5c-16.667 13.667 -30.333 23.167 -41 28.5c0 0 -16 7 -16 7m275 -637c2.667 -26.667 10.333 -48 23 -64c0 0 18 -25 18 -25c8 -9.333 21 -18.167 39 -26.5c18 -8.333 34 -14.5 48 -18.5c0 0 21 -6 21 -6c24 -5.333 46.167 -17 66.5 -35c20.333 -18 34.833 -35 43.5 -51c0 0 13 -23 13 -23c27.333 38 43.667 81 49 129c2.667 21.333 3.667 40.333 3 57c0 22.667 -2 42.333 -6 59c0 0 -11 45 -11 45c-8 22 -19.167 42 -33.5 60c-14.333 18 -26.5 30.333 -36.5 37c0 0 -15 11 -15 11c-22.667 13.333 -45 20 -67 20c0 0 -109 -53 -109 -53c38.667 -21.333 72.333 -43 101 -65c28.667 -22 49.833 -41.167 63.5 -57.5c13.667 -16.333 24.667 -31.167 33 -44.5c8.333 -13.333 13.167 -23.667 14.5 -31c0 0 2 -10 2 -10c-12 26.667 -28.167 51 -48.5 73c-20.333 22 -41 39.333 -62 52c-21 12.667 -41.167 23.5 -60.5 32.5c-19.333 9 -35 15.167 -47 18.5c0 0 -18 5 -18 5c-16.667 -29.333 -25 -55.667 -25 -79c0 -3.333 0.333 -6.667 1 -10c0 0 0 0 0 0" />
  </g>
</svg>