<svg height="1000" width="879" xmlns="http://www.w3.org/2000/svg"><path d="M0 633q0 147 101 257t260 110q158 0 259-110 101-108 101-257 0-78-27-146-40 25-85 34 22 51 22 114 0 76-36 142-37 66-99 101-62 36-135 36-75 0-136-36-63-37-98-101-37-65-37-142 0-117 80-202 80-83 191-83 51 0 98 19 4-39 27-86-57-21-125-21-160 0-266 118-95 107-95 253zm280 253l56 4q74-47 124.5-109t72.5-124 31-126q6-41 6-80 0-21-2-40-5-55-12.5-98.5t-15.5-68.5l-9-25q-22-68-43.5-119t-31.5-67l-11-17q39 20 63 48 23 29 28 53 4 20 4 39l0 7q-1 22-6 35l-5 13q4 58 5 112 0 52-5 102-9 100-30.5 167t-49.5 121.5-57.5 85.5-54.5 51.5-41 28.5zm275-637q4-40 23-64l18-25q12-14 39-26.5t48-18.5l21-6q36-8 66.5-35t43.5-51l13-23q41 57 49 129 4 32 3 57 0 34-6 59l-11 45q-12 33-33.5 60t-36.5 37l-15 11q-34 20-67 20l-109-53q58-32 101-65t63.5-57.5 33-44.5 14.5-31l2-10q-18 40-48.5 73t-62 52-60.5 32.5-47 18.5l-18 5q-25-44-25-79 0-5 1-10z"/></svg>