<svg height="1000" width="1146" xmlns="http://www.w3.org/2000/svg"><path d="M0 272q55-65 110-116t95.5-77.5 72.5-43 48-21.5l17-4q12-2 24-2 19 0 35 6 26 10 42.5 34.5t29 55 21.5 72 15 77.5 13.5 79.5 14.5 70.5q32 125 51.5 177.5t41.5 52.5q24 0 66.5-55.5t93.5-151.5q26-48 26-91 0-13-2-23-9-52-51-65-11-4-24-4-35 0-83 26 22-130 134-209 85-60 174-60 12 0 24 1 102 8 139 90 18 38 18 88 0 29-6 61-18 102-69.5 208t-113 187.5-132.5 155-123.5 117-90.5 68.5q-42 24-78.5 24t-69.5-21-56-48-38-57q-18-38-97.5-298.5t-96.5-280.5q-1-2-4-4t-13.5-4.5-24 0-36.5 14-50 32.5z"/></svg>