<svg height="1000px" width="1146px" xmlns="http://www.w3.org/2000/svg">
  <g>
    <path d="M0 272c36.667 -43.333 73.333 -82 110 -116c36.667 -34 68.5 -59.833 95.5 -77.5c27 -17.667 51.167 -32 72.5 -43c21.333 -11 37.333 -18.167 48 -21.5c0 0 17 -4 17 -4c8 -1.333 16 -2 24 -2c12.667 0 24.333 2 35 6c17.333 6.667 31.5 18.167 42.5 34.5c11 16.333 20.667 34.667 29 55c8.333 20.333 15.5 44.333 21.5 72c6 27.667 11 53.5 15 77.5c4 24 8.5 50.5 13.5 79.5c5 29 9.833 52.5 14.5 70.5c21.333 83.333 38.5 142.5 51.5 177.5c13 35 26.833 52.5 41.5 52.5c16 0 38.167 -18.5 66.5 -55.5c28.333 -37 59.5 -87.5 93.5 -151.5c17.333 -32 26 -62.333 26 -91c0 -8.667 -0.667 -16.333 -2 -23c-6 -34.667 -23 -56.333 -51 -65c-7.333 -2.667 -15.333 -4 -24 -4c-23.333 0 -51 8.667 -83 26c14.667 -86.667 59.333 -156.333 134 -209c56.667 -40 114.667 -60 174 -60c8 0 16 0.333 24 1c68 5.333 114.333 35.333 139 90c12 25.333 18 54.667 18 88c0 19.333 -2 39.667 -6 61c-12 68 -35.167 137.333 -69.5 208c-34.333 70.667 -72 133.167 -113 187.5c-41 54.333 -85.167 106 -132.5 155c-47.333 49 -88.5 88 -123.5 117c-35 29 -65.167 51.833 -90.5 68.5c-28 16 -54.167 24 -78.5 24c-24.333 0 -47.5 -7 -69.5 -21c-22 -14 -40.667 -30 -56 -48c-15.333 -18 -28 -37 -38 -57c-12 -25.333 -44.5 -124.833 -97.5 -298.5c-53 -173.667 -85.167 -267.167 -96.5 -280.5c-0.667 -1.333 -2 -2.667 -4 -4c-2 -1.333 -6.5 -2.833 -13.5 -4.5c-7 -1.667 -15 -1.667 -24 0c-9 1.667 -21.167 6.333 -36.5 14c-15.333 7.667 -32 18.5 -50 32.5c0 0 -47 -61 -47 -61" />
  </g>
</svg>