<svg height="1000" width="1220" xmlns="http://www.w3.org/2000/svg"><path d="M0 196q10-8 25-12 14-4 25-4l9 0q10 0 24 1 22 1 32 1 6 0 38-2 16-1 29-.5t23 .5q20 2 32 8 6 3 13 13t11.5 19 11.5 25.5 10 21.5q38 82 94 163 2 3 7 11t8.5 12.5 9 11.5 10.5 11 10.5 8.5 11.5 5.5 12 0q28-5 31-117 1-19 1-35 0-74-15-102-6-11-15.5-17.5t-24.5-12-23-10.5q14-28 49.5-37t96.5-9l53 0t26 .5 27 3l22 5.5t19.5 9 12.5 14q9 18 11 42 0 7 1 14 0 20-3 52-4 42-4 52-3 23-3 46 0 18 2 38 4 44 30 61 9-1 16.5-4t15.5-11 11-11.5 12.5-16.5 10.5-14q47-62 94-163l9-22.5t11.5-26.5 12-19.5 15.5-13.5q16-7 38-7l9 0q20 0 46 2 32 2 47 2 9 0 27.5-1t32.5-1.5 29.5.5 25.5 6 14 13q3 6 3 13 0 29-35 87-17 29-34.5 52.5t-45.5 58-37 46.5q-2 2-14 18t-17.5 24-11.5 22.5-5 26.5q0 8 3 15t9.5 15 10 12 13.5 13 12 11q71 65 112 117 40 52 40 75 0 33-51 41-26 4-53 4-21 0-43-3-20-2-37-2-26 0-45 5l-6 0q-66-11-139-94-4-4-17-20.5t-22-25.5-23-17-27-6q-23 4-30.5 29t-9 59.5-9.5 48.5q-13 24-79 24-28 0-66-4-78-8-141.5-40t-100.5-67.5-81-92.5q-104-133-197-322-3-6-11-22.5t-12-25.5-9.5-23.5-8-28-2.5-26.5z"/></svg>