<svg height="1000px" width="1213px" xmlns="http://www.w3.org/2000/svg">
  <g>
    <path d="M-9 196c6.667 -5.333 15 -9.333 25 -12c9.333 -2.667 17.667 -4 25 -4c0 0 9 0 9 0c6.667 0 14.667 0.333 24 1c14.667 0.667 25.333 1 32 1c4 0 16.667 -0.667 38 -2c10.667 -0.667 20.333 -0.833 29 -0.5c8.667 0.333 16.333 0.5 23 0.5c13.333 1.333 24 4 32 8c4 2 8.333 6.333 13 13c4.667 6.667 8.5 13 11.5 19c3 6 6.833 14.5 11.5 25.5c4.667 11 8 18.167 10 21.5c25.333 54.667 56.667 109 94 163c1.333 2 3.667 5.667 7 11c3.333 5.333 6.167 9.5 8.5 12.5c2.333 3 5.333 6.833 9 11.5c3.667 4.667 7.167 8.333 10.5 11c3.333 2.667 6.833 5.5 10.5 8.5c3.667 3 7.5 4.833 11.5 5.5c4 0.667 8 0.667 12 0c18.667 -3.333 29 -42.333 31 -117c0.667 -12.667 1 -24.333 1 -35c0 -49.333 -5 -83.333 -15 -102c-4 -7.333 -9.167 -13.167 -15.5 -17.5c-6.333 -4.333 -14.5 -8.333 -24.5 -12c-10 -3.667 -17.667 -7.167 -23 -10.5c9.333 -18.667 25.833 -31 49.5 -37c23.667 -6 55.833 -9 96.5 -9c0 0 25 0 25 0c0 0 28 0 28 0c0 0 8.667 0.167 26 0.5c17.333 0.333 26.333 1.333 27 3c0 0 22 5.5 22 5.5c0 0 6.5 3 19.5 9c13 6 17.167 10.667 12.5 14c6 12 9.667 26 11 42c0 4.667 0.333 9.333 1 14c0 13.333 -1 30.667 -3 52c-2.667 28 -4 45.333 -4 52c-2 15.333 -3 30.667 -3 46c0 12 0.667 24.667 2 38c2.667 29.333 12.667 49.667 30 61c6 -0.667 11.5 -2 16.5 -4c5 -2 10.167 -5.667 15.5 -11c5.333 -5.333 9 -9.167 11 -11.5c2 -2.333 6.167 -7.833 12.5 -16.5c6.333 -8.667 9.833 -13.333 10.5 -14c31.333 -41.333 62.667 -95.667 94 -163c0 0 9 -22.5 9 -22.5c0 0 3.833 -8.833 11.5 -26.5c7.667 -17.667 11.667 -24.167 12 -19.5c0.333 4.667 5.5 0.167 15.5 -13.5c10.667 -4.667 23.333 -7 38 -7c0 0 9 0 9 0c13.333 0 28.667 0.667 46 2c21.333 1.333 37 2 47 2c6 0 15.167 -0.333 27.5 -1c12.333 -0.667 23.167 -1.167 32.5 -1.5c9.333 -0.333 19.167 -0.167 29.5 0.5c10.333 0.667 18.833 2.667 25.5 6c6.667 3.333 11.333 7.667 14 13c2 4 3 8.333 3 13c0 19.333 -11.667 48.333 -35 87c-11.333 19.333 -22.833 36.833 -34.5 52.5c-11.667 15.667 -26.833 35 -45.5 58c-18.667 23 -31 38.5 -37 46.5c-1.333 1.333 -6 7.333 -14 18c-8 10.667 -13.833 18.667 -17.5 24c-3.667 5.333 -7.5 12.833 -11.5 22.5c-4 9.667 -5.667 18.5 -5 26.5c0 5.333 1 10.333 3 15c2 4.667 5.167 9.667 9.5 15c4.333 5.333 7.667 9.333 10 12c2.333 2.667 6.833 7 13.5 13c6.667 6 10.667 9.667 12 11c47.333 43.333 84.667 82.333 112 117c26.667 34.667 40 59.667 40 75c0 22 -17 35.667 -51 41c-17.333 2.667 -35 4 -53 4c-14 0 -28.333 -1 -43 -3c-13.333 -1.333 -25.667 -2 -37 -2c-17.333 0 -32.333 1.667 -45 5c0 0 -6 0 -6 0c-44 -7.333 -90.333 -38.667 -139 -94c-2.667 -2.667 -8.333 -9.5 -17 -20.5c-8.667 -11 -16 -19.5 -22 -25.5c-6 -6 -13.667 -11.667 -23 -17c-9.333 -5.333 -18.333 -7.333 -27 -6c-15.333 2.667 -25.5 12.333 -30.5 29c-5 16.667 -8 36.5 -9 59.5c-1 23 -4.167 39.167 -9.5 48.5c-8.667 16 -35 24 -79 24c-18.667 0 -40.667 -1.333 -66 -4c-52 -5.333 -99.167 -18.667 -141.5 -40c-42.333 -21.333 -75.833 -43.833 -100.5 -67.5c-24.667 -23.667 -51.667 -54.5 -81 -92.5c-69.333 -88.667 -135 -196 -197 -322c-2 -4 -5.667 -11.5 -11 -22.5c-5.333 -11 -9.333 -19.5 -12 -25.5c-2.667 -6 -5.833 -13.833 -9.5 -23.5c-3.667 -9.667 -6.333 -19 -8 -28c-1.667 -9 -2.5 -17.833 -2.5 -26.5c0 0 0 0 0 0" />
  </g>
</svg>