<svg height="1000px" width="1125px" xmlns="http://www.w3.org/2000/svg">
  <g>
    <path d="M0 203c0 0 77 0 77 0c0 0 107 363 107 363c0 0 72 -244 72 -244c0 0 -35 -119 -35 -119c0 0 77 0 77 0c0 0 107 363 107 363c0 0 107 -363 107 -363c0 0 77 0 77 0c0 0 213 0 213 0c0 0 0 36 0 36c0 0 -109 188 -109 188c38.667 13.333 67.333 35.667 86 67c20 33.333 30 71.333 30 114c0 54.667 -14.333 100.333 -43 137c-28.667 36.667 -66 55 -112 55c-34 0 -64 -11 -90 -33c-26 -22.667 -44.667 -52.333 -56 -89c0 0 60 -25 60 -25c8.667 22.667 20.333 40.667 35 54c13.333 12.667 30.333 19 51 19c20.667 0 38 -11.333 52 -34c14.667 -22.667 22 -50.667 22 -84c0 -34.667 -7.667 -62.333 -23 -83c-18 -22.667 -45.667 -34 -83 -34c0 0 -30 0 -30 0c0 0 0 -36 0 -36c0 0 103 -178 103 -178c0 0 -124 0 -124 0c0 0 -7 12 -7 12c0 0 -152 511 -152 511c0 0 -7 0 -7 0c0 0 -110 -370 -110 -370c0 0 -111 370 -111 370c0 0 -7 0 -7 0c0 0 -177 -597 -177 -597m818 417c0 0 18 50 18 50c10 22 21 41.333 33 58c28 38.667 59.333 61 94 67c30 6 59.333 0 88 -18c12.667 -8 24.333 -18.333 35 -31c13.333 -13.333 22.667 -25.333 28 -36c2.667 -4.667 6.333 -11.333 11 -20c0 0 -11 -59 -11 -59c-5.333 10.667 -10.667 20 -16 28c-5.333 8 -9.333 13.667 -12 17c0 0 -4 4 -4 4c-22.667 24.667 -43 41 -61 49c-22 10 -44.667 13.667 -68 11c-18 -1.333 -38 -9.333 -60 -24c-24 -20.667 -38.333 -35 -43 -43c-8.667 -12 -19.333 -29.667 -32 -53c0 0 0 0 0 0m27 -195c0 -56 11 -104.667 33 -146c10.667 -20 23.167 -36 37.5 -48c14.333 -12 28.5 -18.667 42.5 -20c23.333 -2.667 46.667 6 70 26c12 10 24.333 26.667 37 50c0 0 44 -87 44 -87c0 0 12 76 12 76c0 0 -44 85 -44 85c-5.333 -10.667 -11.667 -20.667 -19 -30c-7.333 -9.333 -13.333 -16 -18 -20c0 0 -8 -6 -8 -6c-20.667 -14.667 -42 -19.667 -64 -15c-16 3.333 -31.833 13.333 -47.5 30c-15.667 16.667 -27.167 36.333 -34.5 59c-12.667 36.667 -19 72 -19 106c-0.667 26.667 1 47.667 5 63c-8 -14.667 -14.333 -32.333 -19 -53c-4.667 -20.667 -7 -37.667 -7 -51c0 0 -1 -19 -1 -19" />
  </g>
</svg>