<svg height="1000" width="1125" xmlns="http://www.w3.org/2000/svg"><path d="M0 203l77 0l107 363 72-244-35-119l77 0l107 363 107-363l290 0l0 36l-109 188q58 20 86 67 30 50 30 114 0 82-43 137t-112 55q-51 0-90-33-39-34-56-89l60-25q13 34 35 54 20 19 51 19t52-34q22-34 22-84 0-52-23-83-27-34-83-34l-30 0l0-36l103-178l-124 0l-7 12-152 511l-7 0l-110-370-111 370l-7 0zm818 417l18 50q15 33 33 58 42 58 94 67 45 9 88-18 19-12 35-31 20-20 28-36 4-7 11-20l-11-59q-8 16-16 28t-12 17l-4 4q-34 37-61 49-33 15-68 11-27-2-60-24-36-31-43-43-13-18-32-53zm27-195q0-84 33-146 16-30 37.5-48t42.5-20q35-4 70 26 18 15 37 50l44-87 12 76-44 85q-8-16-19-30t-18-20l-8-6q-31-22-64-15-24 5-47.5 30t-34.5 59q-19 55-19 106-1 40 5 63-12-22-19-53t-7-51z"/></svg>