<svg height="1000" width="1235" xmlns="http://www.w3.org/2000/svg"><path d="M0 672q0-161 184-347 117-116 236-162 56-23 97-23 45 0 72 27 26 26 26 72 0 31-12 72-4 14 3 17.5t16 .5l10-4q96-40 170-40t106 42q15 22 15 52 0 31-16 71-7 10-2.5 17t8 9 14.5 5q62 19 106 62t44 107q0 59-41 120.5t-111.5 112.5-178 84-228.5 33q-131 0-247.5-38.5t-193.5-115-77-174.5zm125 48q10 101 125 161 92 49 209 49 29 0 60-3 153-15 255-97 92-75 92-165 0-9-1-18-10-100-125-160-93-49-210-49-29 0-59 3-101 10-183 51t-126 101q-38 53-38 109 0 9 1 18zm160 62q-13-29-13-59 0-35 18-70 31-64 104-96 45-20 91-20 27 0 54 7 76 20 109 82 17 32 17 66 0 32-15 65-31 71-109 104-44 19-88 19-34 0-67-11-73-23-101-87zm56-19q6 25 30 35 13 6 27 6 12 0 24-4 28-9 43-33 10-16 10-32 0-7-3-15-6-24-30-34-13-5-26-5-12 0-25 4-27 9-41 32-11 16-11 33 0 7 2 13zm141-79q3 9 13 13 5 2 9.5 2t9.5-2q11-4 16-13t2-18-12-13q-9-3-19.5.5t-15.5 12.5q-3 6-3 12l0 6zm321-621q-1-5-1-10 0-13 8-25 10-16 29-21 34-7 68-7 51 0 100 15 83 27 143 93t78 153q7 35 7 68 0 51-16 98l0 1q-6 18-23 27-11 5-22 5-7 0-15-2-19-6-27-23-5-11-5-21 0-8 2-15l0-1q11-34 11-70 0-23-4-48-13-62-56-109t-102-66q-35-10-70-10-24 0-49 5-5 1-10 1-14 0-26-8-16-11-20-30zm40 157q-1-5-1-10 0-10 6-21 9-14 26-18 19-4 37-4 67 0 115 53 29 33 38 75 3 17 3 33 0 24-8 48-5 16-20 23-9 5-18 5-7 0-13-2-16-5-24-20-4-9-4-18 0-7 2-13 4-14 4-26 0-28-21-50-22-26-54-26-10 0-20 2-5 1-9 1-11 0-21-7-14-9-18-25z"/></svg>