<svg height="1000px" width="1234px" xmlns="http://www.w3.org/2000/svg">
  <g>
    <path d="M0 672c0 -107.333 61.333 -223 184 -347c78 -77.333 156.667 -131.333 236 -162c37.333 -15.333 69.667 -23 97 -23c30 0 54 9 72 27c17.333 17.333 26 41.333 26 72c0 20.667 -4 44.667 -12 72c-2.667 9.333 -1.667 15.167 3 17.5c4.667 2.333 10 2.5 16 0.5c0 0 10 -4 10 -4c64 -26.667 120.667 -40 170 -40c49.333 0 84.667 14 106 42c10 14.667 15 32 15 52c0 20.667 -5.333 44.333 -16 71c-4.667 6.667 -5.5 12.333 -2.5 17c3 4.667 5.667 7.667 8 9c2.333 1.333 7.167 3 14.5 5c41.333 12.667 76.667 33.333 106 62c29.333 28.667 44 64.333 44 107c0 39.333 -13.667 79.5 -41 120.5c-27.333 41 -64.5 78.5 -111.5 112.5c-47 34 -106.333 62 -178 84c-71.667 22 -147.833 33 -228.5 33c-87.333 0 -169.833 -12.833 -247.5 -38.5c-77.667 -25.667 -142.167 -64 -193.5 -115c-51.333 -51 -77 -109.167 -77 -174.5c0 0 0 0 0 0m125 48c6.667 67.333 48.333 121 125 161c61.333 32.667 131 49 209 49c19.333 0 39.333 -1 60 -3c102 -10 187 -42.333 255 -97c61.333 -50 92 -105 92 -165c0 -6 -0.333 -12 -1 -18c-6.667 -66.667 -48.333 -120 -125 -160c-62 -32.667 -132 -49 -210 -49c-19.333 0 -39 1 -59 3c-67.333 6.667 -128.333 23.667 -183 51c-54.667 27.333 -96.667 61 -126 101c-25.333 35.333 -38 71.667 -38 109c0 6 0.333 12 1 18c0 0 0 0 0 0m160 62c-8.667 -19.333 -13 -39 -13 -59c0 -23.333 6 -46.667 18 -70c20.667 -42.667 55.333 -74.667 104 -96c30 -13.333 60.333 -20 91 -20c18 0 36 2.333 54 7c50.667 13.333 87 40.667 109 82c11.333 21.333 17 43.333 17 66c0 21.333 -5 43 -15 65c-20.667 47.333 -57 82 -109 104c-29.333 12.667 -58.667 19 -88 19c-22.667 0 -45 -3.667 -67 -11c-48.667 -15.333 -82.333 -44.333 -101 -87c0 0 0 0 0 0m56 -19c4 16.667 14 28.333 30 35c8.667 4 17.667 6 27 6c8 0 16 -1.333 24 -4c18.667 -6 33 -17 43 -33c6.667 -10.667 10 -21.333 10 -32c0 -4.667 -1 -9.667 -3 -15c-4 -16 -14 -27.333 -30 -34c-8.667 -3.333 -17.333 -5 -26 -5c-8 0 -16.333 1.333 -25 4c-18 6 -31.667 16.667 -41 32c-7.333 10.667 -11 21.667 -11 33c0 4.667 0.667 9 2 13c0 0 0 0 0 0m141 -79c2 6 6.333 10.333 13 13c3.333 1.333 6.5 2 9.5 2c3 0 6.167 -0.667 9.5 -2c7.333 -2.667 12.667 -7 16 -13c3.333 -6 4 -12 2 -18c-2 -6 -6 -10.333 -12 -13c-6 -2 -12.5 -1.833 -19.5 0.5c-7 2.333 -12.167 6.5 -15.5 12.5c-2 4 -3 8 -3 12c0 0 0 6 0 6c0 0 0 0 0 0m321 -621c-0.667 -3.333 -1 -6.667 -1 -10c0 -8.667 2.667 -17 8 -25c6.667 -10.667 16.333 -17.667 29 -21c22.667 -4.667 45.333 -7 68 -7c34 0 67.333 5 100 15c55.333 18 103 49 143 93c40 44 66 95 78 153c4.667 23.333 7 46 7 68c0 34 -5.333 66.667 -16 98c0 0 0 1 0 1c-4 12 -11.667 21 -23 27c-7.333 3.333 -14.667 5 -22 5c-4.667 0 -9.667 -0.667 -15 -2c-12.667 -4 -21.667 -11.667 -27 -23c-3.333 -7.333 -5 -14.333 -5 -21c0 -5.333 0.667 -10.333 2 -15c0 0 0 -1 0 -1c7.333 -22.667 11 -46 11 -70c0 -15.333 -1.333 -31.333 -4 -48c-8.667 -41.333 -27.333 -77.667 -56 -109c-28.667 -31.333 -62.667 -53.333 -102 -66c-23.333 -6.667 -46.667 -10 -70 -10c-16 0 -32.333 1.667 -49 5c-3.333 0.667 -6.667 1 -10 1c-9.333 0 -18 -2.667 -26 -8c-10.667 -7.333 -17.333 -17.333 -20 -30c0 0 0 0 0 0m40 157c-0.667 -3.333 -1 -6.667 -1 -10c0 -6.667 2 -13.667 6 -21c6 -9.333 14.667 -15.333 26 -18c12.667 -2.667 25 -4 37 -4c44.667 0 83 17.667 115 53c19.333 22 32 47 38 75c2 11.333 3 22.333 3 33c0 16 -2.667 32 -8 48c-3.333 10.667 -10 18.333 -20 23c-6 3.333 -12 5 -18 5c-4.667 0 -9 -0.667 -13 -2c-10.667 -3.333 -18.667 -10 -24 -20c-2.667 -6 -4 -12 -4 -18c0 -4.667 0.667 -9 2 -13c2.667 -9.333 4 -18 4 -26c0 -18.667 -7 -35.333 -21 -50c-14.667 -17.333 -32.667 -26 -54 -26c-6.667 0 -13.333 0.667 -20 2c-3.333 0.667 -6.333 1 -9 1c-7.333 0 -14.333 -2.333 -21 -7c-9.333 -6 -15.333 -14.333 -18 -25c0 0 0 0 0 0" />
  </g>
</svg>