<svg height="1000" width="1106" xmlns="http://www.w3.org/2000/svg"><path d="M0 173l0-21l2-2l249 0l2 2l0 20q0 8-10 8l-26 1q-33 1-33 20 0 13 7 28 50 122 222 484l6 1 111-221q-13-30-22-49l-76-150-20-40q-26-51-34-60.5t-33-13.5q-14-2-14-7l0-21l3-2l197 0l5 1l0 21q0 8-10 8l-15 2q-13 2-19 5t-5.5 12 4 17.5 14.5 30.5l73 150 81-162q16-32 5-43-6-8-37-11l-9-1q-4 0-7-3-3-1-3-6l0-19l3-2q57-1 186 0l2 2l0 20q0 8-9 8-22 1-30.5 4.5t-16.5 15.5q-23 34-30 48l-105 196-3 7 128 262 8 3 202-481q12-28-3-41-13-12-39-13l-19-1q-3 0-6-3-4-2-4-6l0-20l3-2l229 0l2 2l0 20q0 7-9 9-46 2-66 19-20 16-34 49l-250 567q-10 23-22.5 30.5t-24-1-22.5-30.5q-38-75-122-263-105 216-131 264-41 71-71 1-32-75-130-284.5t-130-286.5q-16-42-28-52-11-10-52-13-14-2-14-7z"/></svg>