<svg height="1000px" width="1106px" xmlns="http://www.w3.org/2000/svg">
  <g>
    <path d="M0 173.125c0 0 0 -21 0 -21c0 0 2 -2 2 -2c0 0 249 0 249 0c0 0 2 2 2 2c0 0 0 20 0 20c0 5.333 -3.333 8 -10 8c0 0 -26 1 -26 1c-22 0.667 -33 7.333 -33 20c0 8.667 2.333 18 7 28c33.333 81.333 107.333 242.667 222 484c0 0 6 1 6 1c0 0 111 -221 111 -221c-8.667 -20 -16 -36.333 -22 -49c0 0 -76 -150 -76 -150c0 0 -20 -40 -20 -40c-17.333 -34 -28.667 -54.167 -34 -60.5c-5.333 -6.333 -16.333 -10.833 -33 -13.5c-9.333 -1.333 -14 -3.667 -14 -7c0 0 0 -21 0 -21c0 0 3 -2 3 -2c0 0 197 0 197 0c0 0 5 1 5 1c0 0 0 21 0 21c0 5.333 -3.333 8 -10 8c0 0 -15 2 -15 2c-8.667 1.333 -15 3 -19 5c-4 2 -5.833 6 -5.5 12c0.333 6 1.667 11.833 4 17.5c2.333 5.667 7.167 15.833 14.5 30.5c0 0 73 150 73 150c0 0 81 -162 81 -162c10.667 -21.333 12.333 -35.667 5 -43c-4 -5.333 -16.333 -9 -37 -11c0 0 -9 -1 -9 -1c-2.667 0 -5 -1 -7 -3c-2 -0.667 -3 -2.667 -3 -6c0 0 0 -19 0 -19c0 0 3 -2 3 -2c38 -0.667 100 -0.667 186 0c0 0 2 2 2 2c0 0 0 20 0 20c0 5.333 -3 8 -9 8c-14.667 0.667 -24.833 2.167 -30.5 4.5c-5.667 2.333 -11.167 7.5 -16.5 15.5c-15.333 22.667 -25.333 38.667 -30 48c0 0 -105 196 -105 196c0 0 -3 7 -3 7c0 0 128 262 128 262c0 0 8 3 8 3c0 0 202 -481 202 -481c8 -18.667 7 -32.333 -3 -41c-8.667 -8 -21.667 -12.333 -39 -13c0 0 -19 -1 -19 -1c-2 0 -4 -1 -6 -3c-2.667 -1.333 -4 -3.333 -4 -6c0 0 0 -20 0 -20c0 0 3 -2 3 -2c0 0 229 0 229 0c0 0 2 2 2 2c0 0 0 20 0 20c0 4.667 -3 7.667 -9 9c-30.667 1.333 -52.667 7.667 -66 19c-13.333 10.667 -24.667 27 -34 49c0 0 -250 567 -250 567c-6.667 15.333 -14.167 25.5 -22.5 30.5c-8.333 5 -16.333 4.667 -24 -1c-7.667 -5.667 -15.167 -15.833 -22.5 -30.5c-25.333 -50 -66 -137.667 -122 -263c-70 144 -113.667 232 -131 264c-27.333 47.333 -51 47.667 -71 1c-21.333 -50 -64.667 -144.833 -130 -284.5c-65.333 -139.667 -108.667 -235.167 -130 -286.5c-10.667 -28 -20 -45.333 -28 -52c-7.333 -6.667 -24.667 -11 -52 -13c-9.333 -1.333 -14 -3.667 -14 -7c0 0 0 0 0 0" />
  </g>
</svg>