<svg height="1000px" width="1233px" xmlns="http://www.w3.org/2000/svg">
  <g>
    <path d="M0 893c0 0 105 -371 105 -371c23.333 -13.333 51.833 -23.667 85.5 -31c33.667 -7.333 61.5 -11.667 83.5 -13c0 0 34 -1 34 -1c33.333 0 68 3.333 104 10c67.333 13.333 115.333 33.667 144 61c0 0 -104 370 -104 370c-24 -18.667 -50.5 -33.833 -79.5 -45.5c-29 -11.667 -51.833 -18.5 -68.5 -20.5c0 0 -26 -4 -26 -4c-22.667 -2 -44.333 -3 -65 -3c-10.667 0 -24.833 0.5 -42.5 1.5c-17.667 1 -45.5 5.5 -83.5 13.5c-38 8 -67 19 -87 33c0 0 0 0 0 0m126 -477c0 0 105 -371 105 -371c23.333 -13.333 52 -23.833 86 -31.5c34 -7.667 62 -11.833 84 -12.5c0 0 33 -1 33 -1c34 0 68.667 3.333 104 10c67.333 13.333 115.333 33.667 144 61c0 0 -104 371 -104 371c-24 -18.667 -50.5 -33.833 -79.5 -45.5c-29 -11.667 -51.833 -18.5 -68.5 -20.5c0 0 -26 -4 -26 -4c-23.333 -2 -44.667 -3 -64 -3c-10.667 0 -24.833 0.5 -42.5 1.5c-17.667 1 -45.667 5.333 -84 13c-38.333 7.667 -67.5 18.5 -87.5 32.5c0 0 0 0 0 0m431 513c0 0 104 -371 104 -371c24.667 18.667 51.5 33.833 80.5 45.5c29 11.667 51.833 18.5 68.5 20.5c0 0 25 4 25 4c22.667 2 44.333 3 65 3c10.667 0 24.833 -0.5 42.5 -1.5c17.667 -1 45.667 -5.333 84 -13c38.333 -7.667 67.167 -18.5 86.5 -32.5c0 0 -104 371 -104 371c-23.333 13.333 -52 23.667 -86 31c-34 7.333 -62 11.333 -84 12c0 0 -33 2 -33 2c-34 0 -68.667 -3.333 -104 -10c-67.333 -13.333 -115.667 -33.667 -145 -61c0 0 0 0 0 0m120 -475c0 0 104 -370 104 -370c24.667 18.667 51.5 33.833 80.5 45.5c29 11.667 51.833 18.5 68.5 20.5c0 0 25 4 25 4c22.667 2 44.333 3 65 3c10.667 0 24.833 -0.5 42.5 -1.5c17.667 -1 45.5 -5.333 83.5 -13c38 -7.667 67 -18.5 87 -32.5c0 0 -104 370 -104 370c-23.333 13.333 -52 23.833 -86 31.5c-34 7.667 -62.333 11.833 -85 12.5c0 0 -33 2 -33 2c-34.667 0 -69 -3.667 -103 -11c-67.333 -12.667 -115.667 -33 -145 -61c0 0 0 0 0 0" />
  </g>
</svg>