<svg height="1000" width="1233" xmlns="http://www.w3.org/2000/svg"><path d="M0 893l105-371q35-20 85.5-31t83.5-13l34-1q50 0 104 10 101 20 144 61l-104 370q-36-28-79.5-45.5t-68.5-20.5l-26-4q-34-3-65-3-16 0-42.5 1.5t-83.5 13.5-87 33zm126-477l105-371q35-20 86-31.5t84-12.5l33-1q51 0 104 10 101 20 144 61l-104 371q-36-28-79.5-45.5t-68.5-20.5l-26-4q-35-3-64-3-16 0-42.5 1.5t-84 13-87.5 32.5zm431 513l104-371q37 28 80.5 45.5t68.5 20.5l25 4q34 3 65 3 16 0 42.5-1.5t84-13 86.5-32.5l-104 371q-35 20-86 31t-84 12l-33 2q-51 0-104-10-101-20-145-61zm120-475l104-370q37 28 80.5 45.5t68.5 20.5l25 4q34 3 65 3 16 0 42.5-1.5t83.5-13 87-32.5l-104 370q-35 20-86 31.5t-85 12.5l-33 2q-52 0-103-11-101-19-145-61z"/></svg>