<svg height="1000" width="1000" xmlns="http://www.w3.org/2000/svg"><path d="M0 500q0-136 67-251t182-182 251-67 251 67 182 182 67 251-67 251-182 182-251 67-251-67-182-182-67-251zm39 0q0 135 71.5 247t188.5 168l-220-603q-40 89-40 188zm75-253l30 0q48 0 123-6 12-1 17.5 8t1.5 19-16 11l-53 5 168 499 101-302-72-197q-24-3-48-5-12-1-16-11t1.5-19 17.5-8l121 6q49 0 123-6 12-1 17.5 8t1.5 19-16 11l-52 5 166 496 46-154q36-117 36-149 0-64-39-128-2-3-12.5-21t-13.5-23.5-9-19-8-23.5-2-21q0-33 22.5-57.5t55.5-24.5q1 0 3 .5t3 .5q-131-121-312-121-119 0-221 56t-165 152zm256 696q62 18 130 18 80 0 153-26l-3-6-142-389zm362-44q105-61 167-167.5t62-231.5q0-120-56-221 3 21 3 47 0 63-35 165z"/></svg>