<svg height="1000px" width="1000px" xmlns="http://www.w3.org/2000/svg">
  <g>
    <path d="M0 500c0 -90.667 22.333 -174.333 67 -251c44.667 -76.667 105.333 -137.333 182 -182c76.667 -44.667 160.333 -67 251 -67c90.667 0 174.333 22.333 251 67c76.667 44.667 137.333 105.333 182 182c44.667 76.667 67 160.333 67 251c0 90.667 -22.333 174.333 -67 251c-44.667 76.667 -105.333 137.333 -182 182c-76.667 44.667 -160.333 67 -251 67c-90.667 0 -174.333 -22.333 -251 -67c-76.667 -44.667 -137.333 -105.333 -182 -182c-44.667 -76.667 -67 -160.333 -67 -251c0 0 0 0 0 0m39 0c0 90 23.833 172.333 71.5 247c47.667 74.667 110.5 130.667 188.5 168c0 0 -220 -603 -220 -603c-26.667 59.333 -40 122 -40 188c0 0 0 0 0 0m75 -253c0 0 30 0 30 0c32 0 73 -2 123 -6c8 -0.667 13.833 2 17.5 8c3.667 6 4.167 12.333 1.5 19c-2.667 6.667 -8 10.333 -16 11c0 0 -53 5 -53 5c0 0 168 499 168 499c0 0 101 -302 101 -302c0 0 -72 -197 -72 -197c-16 -2 -32 -3.667 -48 -5c-8 -0.667 -13.333 -4.333 -16 -11c-2.667 -6.667 -2.167 -13 1.5 -19c3.667 -6 9.5 -8.667 17.5 -8c0 0 121 6 121 6c32.667 0 73.667 -2 123 -6c8 -0.667 13.833 2 17.5 8c3.667 6 4.167 12.333 1.5 19c-2.667 6.667 -8 10.333 -16 11c0 0 -52 5 -52 5c0 0 166 496 166 496c0 0 46 -154 46 -154c24 -78 36 -127.667 36 -149c0 -42.667 -13 -85.333 -39 -128c-1.333 -2 -5.5 -9 -12.5 -21c-7 -12 -11.5 -19.833 -13.5 -23.5c-2 -3.667 -5 -10 -9 -19c-4 -9 -6.667 -16.833 -8 -23.5c-1.333 -6.667 -2 -13.667 -2 -21c0 -22 7.5 -41.167 22.5 -57.5c15 -16.333 33.5 -24.5 55.5 -24.5c0.667 0 1.667 0.167 3 0.5c1.333 0.333 2.333 0.5 3 0.5c-87.333 -80.667 -191.333 -121 -312 -121c-79.333 0 -153 18.667 -221 56c-68 37.333 -123 88 -165 152c0 0 0 0 0 0m256 696c41.333 12 84.667 18 130 18c53.333 0 104.333 -8.667 153 -26c0 0 -3 -6 -3 -6c0 0 -142 -389 -142 -389c0 0 -138 403 -138 403m362 -44c70 -40.667 125.667 -96.5 167 -167.5c41.333 -71 62 -148.167 62 -231.5c0 -80 -18.667 -153.667 -56 -221c2 14 3 29.667 3 47c0 42 -11.667 97 -35 165c0 0 -141 408 -141 408" />
  </g>
</svg>