<svg height="1000px" width="1375px" xmlns="http://www.w3.org/2000/svg">
  <g>
    <path d="M0 209c0 0 6 19 6 19c2.667 4 5.167 7.333 7.5 10c2.333 2.667 4.167 4.333 5.5 5c0 0 2 2 2 2c0 0 19 10 19 10c0 0 111 0 111 0c0 0 287 344 287 344c7.333 8 11 16.333 11 25c0 0 0 192 0 192c0 5.333 -0.833 9.333 -2.5 12c-1.667 2.667 -3.5 4.333 -5.5 5c0 0 -3 0 -3 0c-74.667 0 -122 1 -142 3c-6.667 0 -10 3 -10 9c0 0 0 55 0 55c0 0 516 0 516 0c0 0 0 -57 0 -57c0 -2 -0.833 -3.667 -2.5 -5c-1.667 -1.333 -3.167 -2 -4.5 -2c0 0 -2 0 -2 0c0 0 -144 0 -144 0c-6 0 -9 -5 -9 -15c0 0 0 -202 0 -202c-0.667 -2 -0.167 -4.333 1.5 -7c1.667 -2.667 3.5 -5 5.5 -7c0 0 3 -3 3 -3c7.333 -7.333 95.333 -90.333 264 -249c0 0 133 0 133 0c6 0 12 -2.333 18 -7c0 0 17 -19 17 -19c4 -4.667 6 -10.667 6 -18c0 0 0 -14 0 -14c-0.667 -2 -1.667 -3.5 -3 -4.5c-1.333 -1 -2.333 -1.5 -3 -1.5c0 0 -2 0 -2 0c0 0 -436 0 -436 0c0 0 -7 6 -7 6c-0.667 4 -0.167 8.167 1.5 12.5c1.667 4.333 3.5 7.5 5.5 9.5c0 0 2 4 2 4c0 0 23 23 23 23c0 0 18 7 18 7c0 0 115 0 115 0c0 0 -207 195 -207 195c0 0 -228 -291 -228 -291c0 0 41 0 41 0c8.667 0.667 16 -0.667 22 -4c0 0 68 -21 68 -21c0.667 0 1.667 -0.333 3 -1c1.333 -0.667 2.833 -2.333 4.5 -5c1.667 -2.667 2.5 -5.667 2.5 -9c0 0 0 -14 0 -14c0 -2 -0.667 -3.667 -2 -5c-1.333 -1.333 -2.667 -2 -4 -2c0 0 -3 0 -3 0c0 0 -489 0 -489 0c-5.333 0.667 -8.667 3 -10 7c0 0 0 8 0 8c0 0 0 0 0 0m1190 -109c0 0 185 7 185 7c0 0 -83 567 -83 567c0 0 -61 -3 -61 -3c0 0 -41 -571 -41 -571m13 763c0 0 4 -110 4 -110c0 0 110 4 110 4c0 0 -4 110 -4 110c0 0 -110 -4 -110 -4" />
  </g>
</svg>