<svg height="1000" width="1375" xmlns="http://www.w3.org/2000/svg"><path d="M0 209l6 19q4 6 7.5 10t5.5 5l2 2 19 10l111 0l287 344q11 12 11 25l0 192q0 8-2.5 12t-5.5 5l-3 0q-112 0-142 3-10 0-10 9l0 55l516 0l0-57q0-3-2.5-5t-4.5-2l-146 0q-9 0-9-15l0-202q-1-3 1.5-7t5.5-7l3-3q11-11 264-249l133 0q9 0 18-7l17-19q6-7 6-18l0-14q-1-3-3-4.5t-3-1.5l-438 0l-7 6q-1 6 1.5 12.5t5.5 9.5l2 4 23 23 18 7l115 0l-207 195-228-291l41 0q13 1 22-4l68-21q1 0 3-1t4.5-5 2.5-9l0-14q0-3-2-5t-4-2l-492 0q-8 1-10 7l0 8zm1190-109l185 7-83 567-61-3zm13 763l4-110 110 4-4 110z"/></svg>