<svg height="1000" width="741" xmlns="http://www.w3.org/2000/svg"><path d="M0 588.5l0 13q0 43 6 69 5 18 19 25.5t29 2.5l204-63q22-7 31-26 5-10 5-20t-5-19q-9-19-32-26l-204-82q-14-3-27.5 7.5t-16.5 30.5q-8 36-9 88zm87-477q-5-8-5-16 0-9 6-18 12-17 38-27 81-31 171-46l5 0q45 0 49 38 25 313 25 393 0 33-27 40-6 2-12 2-21 0-37-25-148-232-213-341zm69 765l139-166q19-21 38-21 8 0 16 3 25 11 25 45 0 5-1 10l0 221q-2 14-17 22-9 5-18 5-8 0-16-3-36-6-85-25.5t-73-37.5q-18-14-18-30 0-11 10-23zm294-337q-6-12-6-23 0-17 15-33l130-179q7-8 20-8 3 0 7 1 17 2 29 18 25 26 53 70.5t37 73.5q3 8 3 15 0 9-4 16-8 13-23 16l-209 53q-8 2-16 2-23 0-36-22zm12 125q-9 12-9 24 0 16 13 32l114 190q7 9 24 9l3 0q19-1 33-15 27-24 55.5-62.5t41.5-69.5q4-11 4-21 0-7-3-13-5-14-19-19l-205-70q-10-4-19-4-21 0-33 19z"/></svg>