<svg height="1000px" width="741px" xmlns="http://www.w3.org/2000/svg">
  <g>
    <path d="M0 588.5c0 0 0 13 0 13c0 28.667 2 51.667 6 69c3.333 12 9.667 20.5 19 25.5c9.333 5 19 5.833 29 2.5c0 0 204 -63 204 -63c14.667 -4.667 25 -13.333 31 -26c3.333 -6.667 5 -13.333 5 -20c0 -6.667 -1.667 -13 -5 -19c-6 -12.667 -16.667 -21.333 -32 -26c0 0 -204 -82 -204 -82c-9.333 -2 -18.5 0.5 -27.5 7.5c-9 7 -14.5 17.167 -16.5 30.5c-5.333 24 -8.333 53.333 -9 88c0 0 0 0 0 0m87 -477c-3.333 -5.333 -5 -10.667 -5 -16c0 -6 2 -12 6 -18c8 -11.333 20.667 -20.333 38 -27c54 -20.667 111 -36 171 -46c0 0 5 0 5 0c30 0 46.333 12.667 49 38c16.667 208.667 25 339.667 25 393c0 22 -9 35.333 -27 40c-4 1.333 -8 2 -12 2c-14 0 -26.333 -8.333 -37 -25c-98.667 -154.667 -169.667 -268.333 -213 -341c0 0 0 0 0 0m69 765c0 0 139 -166 139 -166c12.667 -14 25.333 -21 38 -21c5.333 0 10.667 1 16 3c16.667 7.333 25 22.333 25 45c0 3.333 -0.333 6.667 -1 10c0 0 0 221 0 221c-1.333 9.333 -7 16.667 -17 22c-6 3.333 -12 5 -18 5c-5.333 0 -10.667 -1 -16 -3c-24 -4 -52.333 -12.5 -85 -25.5c-32.667 -13 -57 -25.5 -73 -37.5c-12 -9.333 -18 -19.333 -18 -30c0 -7.333 3.333 -15 10 -23c0 0 0 0 0 0m294 -337c-4 -8 -6 -15.667 -6 -23c0 -11.333 5 -22.333 15 -33c0 0 130 -179 130 -179c4.667 -5.333 11.333 -8 20 -8c2 0 4.333 0.333 7 1c11.333 1.333 21 7.333 29 18c16.667 17.333 34.333 40.833 53 70.5c18.667 29.667 31 54.167 37 73.5c2 5.333 3 10.333 3 15c0 6 -1.333 11.333 -4 16c-5.333 8.667 -13 14 -23 16c0 0 -209 53 -209 53c-5.333 1.333 -10.667 2 -16 2c-15.333 0 -27.333 -7.333 -36 -22c0 0 0 0 0 0m12 125c-6 8 -9 16 -9 24c0 10.667 4.333 21.333 13 32c0 0 114 190 114 190c4.667 6 12.667 9 24 9c0 0 3 0 3 0c12.667 -0.667 23.667 -5.667 33 -15c18 -16 36.5 -36.833 55.5 -62.5c19 -25.667 32.833 -48.833 41.5 -69.5c2.667 -7.333 4 -14.333 4 -21c0 -4.667 -1 -9 -3 -13c-3.333 -9.333 -9.667 -15.667 -19 -19c0 0 -205 -70 -205 -70c-6.667 -2.667 -13 -4 -19 -4c-14 0 -25 6.333 -33 19c0 0 0 0 0 0" />
  </g>
</svg>