<svg height="1000px" width="859px" xmlns="http://www.w3.org/2000/svg">
  <g>
    <path d="M-15 727c0 -36 2 -90 6 -162c2.667 -35.333 15.333 -64.167 38 -86.5c22.667 -22.333 51.667 -34.5 87 -36.5c66.667 -3.333 167 -5 301 -5c134 0 234.333 1.667 301 5c35.333 2 64.333 14.167 87 36.5c22.667 22.333 35.333 51.167 38 86.5c3.333 60 5 114 5 162c0 48 -1.667 102 -5 162c-2.667 35.333 -15.333 64.167 -38 86.5c-22.667 22.333 -51.667 34.5 -87 36.5c-66.667 3.333 -167 5 -301 5c-134 0 -234.333 -1.667 -301 -5c-35.333 -2 -64.333 -14.167 -87 -36.5c-22.667 -22.333 -35.333 -51.167 -38 -86.5c-4 -72 -6 -126 -6 -162c0 0 0 0 0 0m67 -141c0 0 61 0 61 0c0 0 0 326 0 326c0 0 59 0 59 0c0 0 0 -326 0 -326c0 0 61 0 61 0c0 0 0 -55 0 -55c0 0 -181 0 -181 0c0 0 0 55 0 55c0 0 0 0 0 0m65 -603c0 0 60 0 60 0c0 0 38 152 38 152c0 0 4 0 4 0c0 0 36 -152 36 -152c0 0 60 0 60 0c0 0 -46 148 -46 148c-15.333 48.667 -23 73.667 -23 75c0 0 0 158 0 158c0 0 -59 0 -59 0c0 0 0 -151 0 -151c-1.333 -9.333 -3.167 -17.833 -5.5 -25.5c-2.333 -7.667 -5.333 -16.5 -9 -26.5c-3.667 -10 -6.5 -18.333 -8.5 -25c0 0 -47 -153 -47 -153m116 885c0 32 12 48 36 48c21.333 0 41.667 -11.667 61 -35c0 0 0 31 0 31c0 0 52 0 52 0c0 0 0 -281 0 -281c0 0 -52 0 -52 0c0 0 0 214 0 214c-14 14 -24.333 21 -31 21c-9.333 0 -14 -6.333 -14 -19c0 0 0 -216 0 -216c0 0 -52 0 -52 0c0 0 0 237 0 237c0 0 0 0 0 0m79 -575c0 0 0 -146 0 -146c0 -22.667 7.333 -40.167 22 -52.5c14.667 -12.333 33.333 -18.5 56 -18.5c22 0 39.833 6.667 53.5 20c13.667 13.333 20.5 31 20.5 53c0 0 0 145 0 145c0 24 -6.667 42.833 -20 56.5c-13.333 13.667 -32 20.5 -56 20.5c-23.333 0 -41.833 -7.167 -55.5 -21.5c-13.667 -14.333 -20.5 -33.167 -20.5 -56.5c0 0 0 0 0 0m54 7c0 15.333 7.333 23 22 23c15.333 0 23 -8.333 23 -25c0 0 0 -153 0 -153c0 -6 -2.333 -11 -7 -15c-4.667 -4 -10 -6 -16 -6c-6 0 -11.167 1.833 -15.5 5.5c-4.333 3.667 -6.5 8.5 -6.5 14.5c0 0 0 156 0 156c0 0 0 0 0 0m67 612c0 0 53 0 53 0c0 0 0 -21 0 -21c13.333 16.667 30 25 50 25c31.333 0 47 -20.667 47 -62c0 0 0 -156 0 -156c0 -47.333 -17 -71 -51 -71c-16.667 0 -32 9 -46 27c0 0 0 -123 0 -123c0 0 -53 0 -53 0c0 0 0 381 0 381c0 0 0 0 0 0m53 -53c0 0 0 -176 0 -176c7.333 -7.333 14.667 -11 22 -11c14.667 0 22 9.333 22 28c0 0 0 148 0 148c0 16 -6.333 24 -19 24c-9.333 0 -17.667 -4.333 -25 -13c0 0 0 0 0 0m23 -539c0 0 0 -237 0 -237c0 0 52 0 52 0c0 0 0 215 0 215c0 12.667 4.667 19 14 19c8.667 0 19 -7 31 -21c0 0 0 -213 0 -213c0 0 52 0 52 0c0 0 0 281 0 281c0 0 -52 0 -52 0c0 0 0 -31 0 -31c-19.333 23.333 -39.667 35 -61 35c-24 0 -36 -16 -36 -48c0 0 0 0 0 0m114 513c0 25.333 6.333 46.167 19 62.5c12.667 16.333 31.667 24.5 57 24.5c52 0 78 -29 78 -87c0 0 0 -21 0 -21c0 0 -54 0 -54 0c0 1.333 0.167 5.833 0.5 13.5c0.333 7.667 0.167 13.167 -0.5 16.5c-0.667 3.333 -1.5 7.833 -2.5 13.5c-1 5.667 -3.167 9.667 -6.5 12c-3.333 2.333 -8 3.5 -14 3.5c-15.333 0 -23 -13.333 -23 -40c0 0 0 -53 0 -53c0 0 100 0 100 0c0 0 0 -72 0 -72c0 -25.333 -6.167 -45.333 -18.5 -60c-12.333 -14.667 -31.167 -22 -56.5 -22c-24 0 -43.167 7.667 -57.5 23c-14.333 15.333 -21.5 35 -21.5 59c0 0 0 127 0 127c0 0 0 0 0 0m54 -99c0 0 0 -30 0 -30c0 -20.667 7.667 -31 23 -31c15.333 0 23 10.333 23 31c0 0 0 30 0 30c0 0 -46 0 -46 0c0 0 0 0 0 0" />
  </g>
</svg>