<svg height="1000" width="863" xmlns="http://www.w3.org/2000/svg"><path d="M0 727q0-54 6-162 4-53 38-86.5t87-36.5q100-5 301-5t301 5q53 3 87 36.5t38 86.5q5 90 5 162t-5 162q-4 53-38 86.5t-87 36.5q-100 5-301 5t-301-5q-53-3-87-36.5t-38-86.5q-6-108-6-162zm67-141l61 0l0 326l59 0l0-326l61 0l0-55l-181 0l0 55zm65-603l60 0l38 152l4 0l36-152l60 0l-46 148q-23 73-23 75l0 158l-59 0l0-151q-2-14-5.5-25.5t-9-26.5-8.5-25zm116 885q0 48 36 48 32 0 61-35l0 31l52 0l0-281l-52 0l0 214q-21 21-31 21-14 0-14-19l0-216l-52 0l0 237zm79-575l0-146q0-34 22-52.5t56-18.5q33 0 53.5 20t20.5 53l0 145q0 36-20 56.5t-56 20.5q-35 0-55.5-21.5t-20.5-56.5zm54 7q0 23 22 23 23 0 23-25l0-153q0-9-7-15t-16-6-15.5 5.5-6.5 14.5l0 156zm67 612l53 0l0-21q20 25 50 25 47 0 47-62l0-156q0-71-51-71-25 0-46 27l0-123l-53 0l0 381zm53-53l0-176q11-11 22-11 22 0 22 28l0 148q0 24-19 24-14 0-25-13zm23-539l0-237l52 0l0 215q0 19 14 19 13 0 31-21l0-213l52 0l0 281l-52 0l0-31q-29 35-61 35-36 0-36-48zm114 513q0 38 19 62.5t57 24.5q78 0 78-87l0-21l-54 0q0 2 .5 13.5t-.5 16.5-2.5 13.5-6.5 12-14 3.5q-23 0-23-40l0-53l100 0l0-72q0-38-18.5-60t-56.5-22q-36 0-57.5 23t-21.5 59l0 127zm54-99l0-30q0-31 23-31t23 31l0 30l-46 0z"/></svg>